<svg width="139" height="126" viewBox="0 0 139 126" fill="none" xmlns="http://www.w3.org/2000/svg">
<path d="M109.477 64.224C109.476 63.2724 109.093 62.3601 108.412 61.6872C107.731 61.0143 106.807 60.6359 105.844 60.635C105.001 60.7714 89.9062 60.2852 89.7008 61.0163C90.3454 60.0578 90.0089 57.3433 90.0904 56.2449C90.0885 55.2927 89.7047 54.38 89.023 53.7066C88.3413 53.0333 87.4172 52.6542 86.4531 52.6524C86.1733 52.7188 70.2926 52.4565 70.6999 52.8762V47.0694H79.1751C82.0666 47.0657 84.8386 45.9293 86.883 43.9095C88.9273 41.8897 90.077 39.1514 90.0798 36.2954C90.0798 35.9787 89.9526 35.6749 89.7263 35.4507C89.4999 35.2264 89.1927 35.1 88.8721 35.099H79.1751C77.5493 35.0995 75.9442 35.4595 74.4777 36.1526C73.0111 36.8456 71.7203 37.8542 70.6999 39.1043V31.0588C74.759 30.7494 78.5391 28.8993 81.2469 25.8966C83.9548 22.8939 85.3798 18.9719 85.2231 14.9538C85.0664 10.9357 83.3401 7.13366 80.4065 4.34556C77.4728 1.55746 73.5599 0 69.4887 0C65.4175 0 61.5045 1.55746 58.5708 4.34556C55.6372 7.13366 53.9109 10.9357 53.7542 14.9538C53.5975 18.9719 55.0226 22.8939 57.7304 25.8966C60.4382 28.8993 64.2183 30.7494 68.2774 31.0588V47.1079C67.256 45.8518 65.9618 44.8385 64.4906 44.1428C63.0193 43.4471 61.4086 43.0869 59.7775 43.0886H50.0982C49.7769 43.0886 49.4689 43.2147 49.2417 43.439C49.0146 43.6634 48.8869 43.9677 48.8869 44.285C48.8907 47.1404 50.0408 49.8778 52.085 51.8968C54.1292 53.9159 56.9007 55.0518 59.7917 55.0555H68.2916V60.8588C68.8158 60.4356 52.7367 60.7119 52.5384 60.6385C51.5749 60.6394 50.6512 61.0178 49.97 61.6907C49.2887 62.3636 48.9056 63.2759 48.9046 64.2275C48.9932 65.3329 48.6461 68.0299 49.2907 68.9988C49.1384 68.2538 33.9341 68.7505 33.1479 68.6176C32.6699 68.6162 32.1964 68.7079 31.7543 68.8873C31.3123 69.0668 30.9104 69.3306 30.5716 69.6636C30.2328 69.9966 29.9638 70.3923 29.7799 70.828C29.596 71.2637 29.5009 71.731 29.5 72.2031V75.3968C29.5019 76.3481 29.8853 77.2599 30.5664 77.9326C31.2474 78.6053 32.1706 78.984 33.1337 78.9858H47.6757C48.5728 78.9837 49.4368 78.6506 50.0982 78.0519C50.7617 78.6494 51.6263 78.9822 52.5242 78.9858H67.0662C67.9632 78.983 68.8269 78.65 69.4887 78.0519C70.1508 78.6494 71.0143 78.9823 71.9111 78.9858H86.4531C87.3501 78.983 88.2139 78.65 88.8756 78.0519C89.5392 78.6494 90.4037 78.9822 91.3016 78.9858H105.844C106.807 78.984 107.73 78.6053 108.411 77.9326C109.092 77.2599 109.475 76.3481 109.477 75.3968C109.392 73.8332 109.881 70.9788 108.532 69.7999C109.87 68.6455 109.407 65.7876 109.477 64.224ZM79.1751 37.4952H87.5829C87.2881 39.4881 86.2778 41.3098 84.7363 42.6282C83.1947 43.9465 81.2248 44.6736 79.1857 44.6768H70.7778C71.0726 42.6839 72.083 40.8622 73.6245 39.5438C75.166 38.2255 77.136 37.4984 79.1751 37.4952ZM59.7917 52.6559C57.7521 52.6516 55.7821 51.9232 54.2412 50.6035C52.7003 49.2838 51.6911 47.4608 51.398 45.4673H59.7917C61.8307 45.4705 63.8007 46.1976 65.3422 47.5159C66.8838 48.8343 67.8941 50.656 68.1889 52.6489L59.7917 52.6559ZM48.8905 75.3933C48.8895 75.7109 48.7611 76.0152 48.5334 76.2395C48.3057 76.4637 47.9973 76.5897 47.6757 76.5897H33.1337C31.2814 76.5652 32.0712 73.7667 31.926 72.1996C31.926 71.8829 32.0531 71.5791 32.2795 71.3549C32.5059 71.1306 32.8131 71.0042 33.1337 71.0032H47.6757C49.5315 71.0312 48.7276 73.8297 48.8905 75.3933ZM68.2774 75.3933C68.2765 75.7103 68.1486 76.0141 67.9216 76.2382C67.6947 76.4624 67.3871 76.5887 67.0662 76.5897H52.5207C50.6648 76.5652 51.4582 73.7702 51.3094 72.1996C51.3104 71.8826 51.4383 71.5788 51.6652 71.3547C51.8922 71.1305 52.1997 71.0042 52.5207 71.0032H67.0626C68.9185 71.0312 68.1039 73.8297 68.2774 75.3933ZM68.2774 67.4142C68.2765 67.7312 68.1486 68.035 67.9216 68.2591C67.6947 68.4833 67.3871 68.6096 67.0662 68.6106H52.5207C50.6648 68.5861 51.4582 65.7841 51.3094 64.2205C51.3113 63.9041 51.4396 63.6012 51.6665 63.3778C51.8933 63.1544 52.2003 63.0286 52.5207 63.0276H67.0626C68.9185 63.0521 68.1039 65.8506 68.2774 67.4142ZM56.1579 15.5518C56.1579 12.0598 57.5624 8.71077 60.0624 6.24153C62.5624 3.77228 65.9531 2.38508 69.4887 2.38508C73.0242 2.38508 76.4149 3.77228 78.9149 6.24153C81.4149 8.71077 82.8194 12.0598 82.8194 15.5518C82.8194 19.0439 81.4149 22.3929 78.9149 24.8621C76.4149 27.3314 73.0242 28.7186 69.4887 28.7186C65.9531 28.7186 62.5624 27.3314 60.0624 24.8621C57.5624 22.3929 56.1579 19.0439 56.1579 15.5518ZM87.6785 75.3968C87.6776 75.7144 87.5492 76.0187 87.3215 76.243C87.0938 76.4672 86.7853 76.5932 86.4637 76.5932H71.9111C70.0589 76.5687 70.8664 73.7702 70.6999 72.2031C70.7008 71.8861 70.8288 71.5823 71.0557 71.3582C71.2827 71.134 71.5902 71.0077 71.9111 71.0067H86.4531C88.3089 71.0312 87.5014 73.8332 87.6679 75.3968H87.6785ZM87.6785 67.4177C87.6776 67.7353 87.5492 68.0396 87.3215 68.2639C87.0938 68.4881 86.7853 68.6141 86.4637 68.6141H71.9111C70.0589 68.5896 70.8664 65.7876 70.6999 64.224C70.7008 63.907 70.8288 63.6032 71.0557 63.3791C71.2827 63.1549 71.5902 63.0286 71.9111 63.0276H86.4531C88.3089 63.0521 87.5014 65.8541 87.6679 67.4177H87.6785ZM87.6785 59.4386C87.6776 59.7562 87.5492 60.0605 87.3215 60.2848C87.0938 60.509 86.7853 60.635 86.4637 60.635H71.9111C70.0589 60.6105 70.8664 57.8085 70.6999 56.2449C70.6999 55.9276 70.8275 55.6233 71.0547 55.3989C71.2818 55.1746 71.5899 55.0485 71.9111 55.0485H86.4531C88.3089 55.073 87.5014 57.8715 87.6679 59.4386H87.6785ZM107.062 75.3968C107.061 75.7138 106.933 76.0176 106.706 76.2417C106.479 76.4659 106.172 76.5922 105.851 76.5932H91.3016C89.4458 76.5687 90.2391 73.7737 90.0904 72.2031C90.0904 71.8858 90.218 71.5815 90.4452 71.3571C90.6723 71.1328 90.9804 71.0067 91.3016 71.0067H105.844C107.696 71.0312 106.892 73.8367 107.062 75.3968ZM107.062 67.4177C107.061 67.7347 106.933 68.0385 106.706 68.2626C106.479 68.4868 106.172 68.6131 105.851 68.6141H91.3016C89.4458 68.5896 90.2391 65.7876 90.0904 64.224C90.0904 63.9067 90.218 63.6024 90.4452 63.378C90.6723 63.1537 90.9804 63.0276 91.3016 63.0276H105.844C107.696 63.0521 106.892 65.8541 107.062 67.4177ZM74.5426 18.9939C74.5118 20.0623 74.1144 21.0886 73.4155 21.9047C72.7167 22.7208 71.7579 23.2781 70.6964 23.4854C70.7814 24.3705 70.6291 25.5213 69.4816 25.5248C68.3341 25.5283 68.1818 24.3705 68.2703 23.4854C67.5076 23.3255 66.7945 22.9882 66.1903 22.5015C65.586 22.0148 65.108 21.3928 64.796 20.687C64.6861 20.3976 64.694 20.0774 64.8179 19.7935C64.9418 19.5097 65.1721 19.2842 65.4605 19.1643C65.749 19.0445 66.0732 19.0396 66.3653 19.1506C66.6574 19.2617 66.8946 19.48 67.0272 19.76C67.8914 22.0372 72.1839 21.481 72.1201 18.9939C72.1201 17.5037 71.2312 16.7482 69.4816 16.7482C68.2853 16.8491 67.0957 16.4905 66.1603 15.7471C65.2249 15.0036 64.6158 13.9325 64.4598 12.7567C64.3037 11.5809 64.6127 10.3909 65.3225 9.43446C66.0323 8.47799 67.0881 7.82869 68.2703 7.62169C68.1818 6.73318 68.3341 5.57882 69.4816 5.57882C70.6291 5.57882 70.7849 6.72968 70.6964 7.61819C72.3786 7.85256 75.7503 10.5601 73.5297 11.9838C73.383 12.0452 73.2255 12.0774 73.0662 12.0784C72.9069 12.0795 72.7489 12.0494 72.6015 11.9899C72.454 11.9304 72.3199 11.8427 72.2069 11.7317C72.0939 11.6208 72.0042 11.4889 71.943 11.3436C71.0824 9.0629 66.7864 9.62259 66.8501 12.1097C66.8501 13.6209 67.7108 14.3555 69.4745 14.3555C70.1256 14.2861 70.7842 14.3555 71.4058 14.5589C72.0274 14.7624 72.5976 15.0951 73.078 15.5348C73.5583 15.9744 73.9376 16.5107 74.1903 17.1074C74.4429 17.7041 74.5631 18.3474 74.5426 18.9939ZM61.7927 15.5518C61.7927 15.8691 61.6651 16.1734 61.4379 16.3978C61.2108 16.6221 60.9027 16.7482 60.5814 16.7482C60.2602 16.7482 59.9521 16.6221 59.725 16.3978C59.4978 16.1734 59.3702 15.8691 59.3702 15.5518C59.3702 15.2327 59.4986 14.9266 59.727 14.7009C59.9555 14.4753 60.2654 14.3485 60.5885 14.3485C60.9116 14.3485 61.2215 14.4753 61.45 14.7009C61.6785 14.9266 61.8068 15.2327 61.8068 15.5518H61.7927ZM78.3746 16.7482C78.0534 16.7482 77.7453 16.6221 77.5182 16.3978C77.291 16.1734 77.1634 15.8691 77.1634 15.5518C77.1634 15.2345 77.291 14.9302 77.5182 14.7059C77.7453 14.4815 78.0534 14.3555 78.3746 14.3555C78.6959 14.3555 79.004 14.4815 79.2311 14.7059C79.4583 14.9302 79.5859 15.2345 79.5859 15.5518C79.5859 15.8691 79.4583 16.1734 79.2311 16.3978C79.004 16.6221 78.6959 16.7482 78.3746 16.7482Z" fill="#161616"/>
<path d="M4.392 120.986V109.952H0.072V108.386H10.494V109.952H6.174V120.986H4.392ZM17.2965 111.356C18.0765 111.356 18.7605 111.506 19.3485 111.806C19.9485 112.106 20.4165 112.562 20.7525 113.174C21.0885 113.786 21.2565 114.56 21.2565 115.496V120.986H19.5285V115.694C19.5285 114.77 19.3005 114.074 18.8445 113.606C18.4005 113.138 17.7705 112.904 16.9545 112.904C16.3425 112.904 15.8085 113.024 15.3525 113.264C14.8965 113.504 14.5425 113.858 14.2905 114.326C14.0505 114.794 13.9305 115.376 13.9305 116.072V120.986H12.2025V107.63H13.9305V114.02L13.5885 113.336C13.9005 112.712 14.3805 112.226 15.0285 111.878C15.6765 111.53 16.4325 111.356 17.2965 111.356ZM28.7024 121.094C27.6824 121.094 26.7824 120.884 26.0024 120.464C25.2344 120.044 24.6344 119.468 24.2024 118.736C23.7824 118.004 23.5724 117.164 23.5724 116.216C23.5724 115.268 23.7764 114.428 24.1844 113.696C24.6044 112.964 25.1744 112.394 25.8944 111.986C26.6264 111.566 27.4484 111.356 28.3604 111.356C29.2844 111.356 30.1004 111.56 30.8084 111.968C31.5164 112.376 32.0684 112.952 32.4644 113.696C32.8724 114.428 33.0764 115.286 33.0764 116.27C33.0764 116.342 33.0704 116.426 33.0584 116.522C33.0584 116.618 33.0524 116.708 33.0404 116.792H24.9224V115.55H32.1404L31.4384 115.982C31.4504 115.37 31.3244 114.824 31.0604 114.344C30.7964 113.864 30.4304 113.492 29.9624 113.228C29.5064 112.952 28.9724 112.814 28.3604 112.814C27.7604 112.814 27.2264 112.952 26.7584 113.228C26.2904 113.492 25.9244 113.87 25.6604 114.362C25.3964 114.842 25.2644 115.394 25.2644 116.018V116.306C25.2644 116.942 25.4084 117.512 25.6964 118.016C25.9964 118.508 26.4104 118.892 26.9384 119.168C27.4664 119.444 28.0724 119.582 28.7564 119.582C29.3204 119.582 29.8304 119.486 30.2864 119.294C30.7544 119.102 31.1624 118.814 31.5104 118.43L32.4644 119.546C32.0324 120.05 31.4924 120.434 30.8444 120.698C30.2084 120.962 29.4944 121.094 28.7024 121.094ZM45.3679 121.094C44.5519 121.094 43.8139 120.914 43.1539 120.554C42.5059 120.182 41.9899 119.636 41.6059 118.916C41.2339 118.196 41.0479 117.296 41.0479 116.216C41.0479 115.136 41.2399 114.236 41.6239 113.516C42.0199 112.796 42.5419 112.256 43.1899 111.896C43.8499 111.536 44.5759 111.356 45.3679 111.356C46.3039 111.356 47.1319 111.56 47.8519 111.968C48.5719 112.376 49.1419 112.946 49.5619 113.678C49.9819 114.398 50.1919 115.244 50.1919 116.216C50.1919 117.188 49.9819 118.04 49.5619 118.772C49.1419 119.504 48.5719 120.074 47.8519 120.482C47.1319 120.89 46.3039 121.094 45.3679 121.094ZM40.3099 120.986V107.63H42.0379V113.984L41.8579 116.198L41.9659 118.412V120.986H40.3099ZM45.2239 119.582C45.8359 119.582 46.3819 119.444 46.8619 119.168C47.3539 118.892 47.7379 118.502 48.0139 117.998C48.3019 117.482 48.4459 116.888 48.4459 116.216C48.4459 115.532 48.3019 114.944 48.0139 114.452C47.7379 113.948 47.3539 113.558 46.8619 113.282C46.3819 113.006 45.8359 112.868 45.2239 112.868C44.6239 112.868 44.0779 113.006 43.5859 113.282C43.1059 113.558 42.7219 113.948 42.4339 114.452C42.1579 114.944 42.0199 115.532 42.0199 116.216C42.0199 116.888 42.1579 117.482 42.4339 117.998C42.7219 118.502 43.1059 118.892 43.5859 119.168C44.0779 119.444 44.6239 119.582 45.2239 119.582ZM56.8274 121.094C55.8074 121.094 54.9074 120.884 54.1274 120.464C53.3594 120.044 52.7594 119.468 52.3274 118.736C51.9074 118.004 51.6974 117.164 51.6974 116.216C51.6974 115.268 51.9014 114.428 52.3094 113.696C52.7294 112.964 53.2994 112.394 54.0194 111.986C54.7514 111.566 55.5734 111.356 56.4854 111.356C57.4094 111.356 58.2254 111.56 58.9334 111.968C59.6414 112.376 60.1934 112.952 60.5894 113.696C60.9974 114.428 61.2014 115.286 61.2014 116.27C61.2014 116.342 61.1954 116.426 61.1834 116.522C61.1834 116.618 61.1774 116.708 61.1654 116.792H53.0474V115.55H60.2654L59.5634 115.982C59.5754 115.37 59.4494 114.824 59.1854 114.344C58.9214 113.864 58.5554 113.492 58.0874 113.228C57.6314 112.952 57.0974 112.814 56.4854 112.814C55.8854 112.814 55.3514 112.952 54.8834 113.228C54.4154 113.492 54.0494 113.87 53.7854 114.362C53.5214 114.842 53.3894 115.394 53.3894 116.018V116.306C53.3894 116.942 53.5334 117.512 53.8214 118.016C54.1214 118.508 54.5354 118.892 55.0634 119.168C55.5914 119.444 56.1974 119.582 56.8814 119.582C57.4454 119.582 57.9554 119.486 58.4114 119.294C58.8794 119.102 59.2874 118.814 59.6354 118.43L60.5894 119.546C60.1574 120.05 59.6174 120.434 58.9694 120.698C58.3334 120.962 57.6194 121.094 56.8274 121.094ZM66.3369 121.094C65.5449 121.094 64.7889 120.986 64.0689 120.77C63.3609 120.554 62.8029 120.29 62.3949 119.978L63.1149 118.61C63.5229 118.886 64.0269 119.12 64.6269 119.312C65.2269 119.504 65.8389 119.6 66.4629 119.6C67.2669 119.6 67.8429 119.486 68.1909 119.258C68.5509 119.03 68.7309 118.712 68.7309 118.304C68.7309 118.004 68.6229 117.77 68.4069 117.602C68.1909 117.434 67.9029 117.308 67.5429 117.224C67.1949 117.14 66.8049 117.068 66.3729 117.008C65.9409 116.936 65.5089 116.852 65.0769 116.756C64.6449 116.648 64.2489 116.504 63.8889 116.324C63.5289 116.132 63.2409 115.874 63.0249 115.55C62.8089 115.214 62.7009 114.77 62.7009 114.218C62.7009 113.642 62.8629 113.138 63.1869 112.706C63.5109 112.274 63.9669 111.944 64.5549 111.716C65.1549 111.476 65.8629 111.356 66.6789 111.356C67.3029 111.356 67.9329 111.434 68.5689 111.59C69.2169 111.734 69.7449 111.944 70.1529 112.22L69.4149 113.588C68.9829 113.3 68.5329 113.102 68.0649 112.994C67.5969 112.886 67.1289 112.832 66.6609 112.832C65.9049 112.832 65.3409 112.958 64.9689 113.21C64.5969 113.45 64.4109 113.762 64.4109 114.146C64.4109 114.47 64.5189 114.722 64.7349 114.902C64.9629 115.07 65.2509 115.202 65.5989 115.298C65.9589 115.394 66.3549 115.478 66.7869 115.55C67.2189 115.61 67.6509 115.694 68.0829 115.802C68.5149 115.898 68.9049 116.036 69.2529 116.216C69.6129 116.396 69.9009 116.648 70.1169 116.972C70.3449 117.296 70.4589 117.728 70.4589 118.268C70.4589 118.844 70.2909 119.342 69.9549 119.762C69.6189 120.182 69.1449 120.512 68.5329 120.752C67.9209 120.98 67.1889 121.094 66.3369 121.094ZM75.8945 121.094C74.9345 121.094 74.1905 120.836 73.6625 120.32C73.1345 119.804 72.8705 119.066 72.8705 118.106V109.358H74.5985V118.034C74.5985 118.55 74.7245 118.946 74.9765 119.222C75.2405 119.498 75.6125 119.636 76.0925 119.636C76.6325 119.636 77.0825 119.486 77.4425 119.186L77.9825 120.428C77.7185 120.656 77.4005 120.824 77.0285 120.932C76.6685 121.04 76.2905 121.094 75.8945 121.094ZM71.2505 112.868V111.446H77.3345V112.868H71.2505ZM89.9636 121.094C89.1716 121.094 88.4456 120.914 87.7856 120.554C87.1376 120.182 86.6156 119.636 86.2196 118.916C85.8356 118.196 85.6436 117.296 85.6436 116.216C85.6436 115.136 85.8296 114.236 86.2016 113.516C86.5856 112.796 87.1016 112.256 87.7496 111.896C88.4096 111.536 89.1476 111.356 89.9636 111.356C90.8996 111.356 91.7276 111.56 92.4476 111.968C93.1676 112.376 93.7376 112.946 94.1576 113.678C94.5776 114.398 94.7876 115.244 94.7876 116.216C94.7876 117.188 94.5776 118.04 94.1576 118.772C93.7376 119.504 93.1676 120.074 92.4476 120.482C91.7276 120.89 90.8996 121.094 89.9636 121.094ZM84.9056 124.478V111.446H86.5616V114.02L86.4536 116.234L86.6336 118.448V124.478H84.9056ZM89.8196 119.582C90.4316 119.582 90.9776 119.444 91.4576 119.168C91.9496 118.892 92.3336 118.502 92.6096 117.998C92.8976 117.482 93.0416 116.888 93.0416 116.216C93.0416 115.532 92.8976 114.944 92.6096 114.452C92.3336 113.948 91.9496 113.558 91.4576 113.282C90.9776 113.006 90.4316 112.868 89.8196 112.868C89.2196 112.868 88.6736 113.006 88.1816 113.282C87.7016 113.558 87.3176 113.948 87.0296 114.452C86.7536 114.944 86.6156 115.532 86.6156 116.216C86.6156 116.888 86.7536 117.482 87.0296 117.998C87.3176 118.502 87.7016 118.892 88.1816 119.168C88.6736 119.444 89.2196 119.582 89.8196 119.582ZM97.1751 120.986V111.446H98.8311V114.038L98.6691 113.39C98.9331 112.73 99.3771 112.226 100.001 111.878C100.625 111.53 101.393 111.356 102.305 111.356V113.03C102.233 113.018 102.161 113.012 102.089 113.012C102.029 113.012 101.969 113.012 101.909 113.012C100.985 113.012 100.253 113.288 99.7131 113.84C99.1731 114.392 98.9031 115.19 98.9031 116.234V120.986H97.1751ZM104.435 120.986V111.446H106.163V120.986H104.435ZM105.299 109.61C104.963 109.61 104.681 109.502 104.453 109.286C104.237 109.07 104.129 108.806 104.129 108.494C104.129 108.17 104.237 107.9 104.453 107.684C104.681 107.468 104.963 107.36 105.299 107.36C105.635 107.36 105.911 107.468 106.127 107.684C106.355 107.888 106.469 108.146 106.469 108.458C106.469 108.782 106.361 109.058 106.145 109.286C105.929 109.502 105.647 109.61 105.299 109.61ZM113.62 121.094C112.648 121.094 111.778 120.884 111.01 120.464C110.254 120.044 109.66 119.468 109.228 118.736C108.796 118.004 108.58 117.164 108.58 116.216C108.58 115.268 108.796 114.428 109.228 113.696C109.66 112.964 110.254 112.394 111.01 111.986C111.778 111.566 112.648 111.356 113.62 111.356C114.484 111.356 115.252 111.53 115.924 111.878C116.608 112.214 117.136 112.718 117.508 113.39L116.194 114.236C115.882 113.768 115.498 113.426 115.042 113.21C114.598 112.982 114.118 112.868 113.602 112.868C112.978 112.868 112.42 113.006 111.928 113.282C111.436 113.558 111.046 113.948 110.758 114.452C110.47 114.944 110.326 115.532 110.326 116.216C110.326 116.9 110.47 117.494 110.758 117.998C111.046 118.502 111.436 118.892 111.928 119.168C112.42 119.444 112.978 119.582 113.602 119.582C114.118 119.582 114.598 119.474 115.042 119.258C115.498 119.03 115.882 118.682 116.194 118.214L117.508 119.042C117.136 119.702 116.608 120.212 115.924 120.572C115.252 120.92 114.484 121.094 113.62 121.094ZM123.853 121.094C122.833 121.094 121.933 120.884 121.153 120.464C120.385 120.044 119.785 119.468 119.353 118.736C118.933 118.004 118.723 117.164 118.723 116.216C118.723 115.268 118.927 114.428 119.335 113.696C119.755 112.964 120.325 112.394 121.045 111.986C121.777 111.566 122.599 111.356 123.511 111.356C124.435 111.356 125.251 111.56 125.959 111.968C126.667 112.376 127.219 112.952 127.615 113.696C128.023 114.428 128.227 115.286 128.227 116.27C128.227 116.342 128.221 116.426 128.209 116.522C128.209 116.618 128.203 116.708 128.191 116.792H120.073V115.55H127.291L126.589 115.982C126.601 115.37 126.475 114.824 126.211 114.344C125.947 113.864 125.581 113.492 125.113 113.228C124.657 112.952 124.123 112.814 123.511 112.814C122.911 112.814 122.377 112.952 121.909 113.228C121.441 113.492 121.075 113.87 120.811 114.362C120.547 114.842 120.415 115.394 120.415 116.018V116.306C120.415 116.942 120.559 117.512 120.847 118.016C121.147 118.508 121.561 118.892 122.089 119.168C122.617 119.444 123.223 119.582 123.907 119.582C124.471 119.582 124.981 119.486 125.437 119.294C125.905 119.102 126.313 118.814 126.661 118.43L127.615 119.546C127.183 120.05 126.643 120.434 125.995 120.698C125.359 120.962 124.645 121.094 123.853 121.094ZM133.362 121.094C132.57 121.094 131.814 120.986 131.094 120.77C130.386 120.554 129.828 120.29 129.42 119.978L130.14 118.61C130.548 118.886 131.052 119.12 131.652 119.312C132.252 119.504 132.864 119.6 133.488 119.6C134.292 119.6 134.868 119.486 135.216 119.258C135.576 119.03 135.756 118.712 135.756 118.304C135.756 118.004 135.648 117.77 135.432 117.602C135.216 117.434 134.928 117.308 134.568 117.224C134.22 117.14 133.83 117.068 133.398 117.008C132.966 116.936 132.534 116.852 132.102 116.756C131.67 116.648 131.274 116.504 130.914 116.324C130.554 116.132 130.266 115.874 130.05 115.55C129.834 115.214 129.726 114.77 129.726 114.218C129.726 113.642 129.888 113.138 130.212 112.706C130.536 112.274 130.992 111.944 131.58 111.716C132.18 111.476 132.888 111.356 133.704 111.356C134.328 111.356 134.958 111.434 135.594 111.59C136.242 111.734 136.77 111.944 137.178 112.22L136.44 113.588C136.008 113.3 135.558 113.102 135.09 112.994C134.622 112.886 134.154 112.832 133.686 112.832C132.93 112.832 132.366 112.958 131.994 113.21C131.622 113.45 131.436 113.762 131.436 114.146C131.436 114.47 131.544 114.722 131.76 114.902C131.988 115.07 132.276 115.202 132.624 115.298C132.984 115.394 133.38 115.478 133.812 115.55C134.244 115.61 134.676 115.694 135.108 115.802C135.54 115.898 135.93 116.036 136.278 116.216C136.638 116.396 136.926 116.648 137.142 116.972C137.37 117.296 137.484 117.728 137.484 118.268C137.484 118.844 137.316 119.342 136.98 119.762C136.644 120.182 136.17 120.512 135.558 120.752C134.946 120.98 134.214 121.094 133.362 121.094Z" fill="#161616"/>
</svg>
