<svg width="178" height="126" viewBox="0 0 178 126" fill="none" xmlns="http://www.w3.org/2000/svg">
<path d="M100.173 23.1356H79.2726C78.9634 23.1191 78.6725 22.9858 78.4596 22.7633C78.2466 22.5409 78.128 22.246 78.128 21.9395C78.128 21.6331 78.2466 21.3382 78.4596 21.1157C78.6725 20.8932 78.9634 20.76 79.2726 20.7435H100.173C100.337 20.7347 100.501 20.7591 100.655 20.8153C100.81 20.8714 100.951 20.9581 101.07 21.07C101.189 21.1819 101.285 21.3168 101.349 21.4663C101.414 21.6158 101.448 21.7768 101.448 21.9395C101.448 22.1023 101.414 22.2633 101.349 22.4128C101.285 22.5623 101.189 22.6972 101.07 22.8091C100.951 22.921 100.81 23.0077 100.655 23.0638C100.501 23.12 100.337 23.1444 100.173 23.1356ZM66.027 23.1356H72.8279C73.1371 23.1191 73.428 22.9858 73.6409 22.7633C73.8539 22.5409 73.9725 22.246 73.9725 21.9395C73.9725 21.6331 73.8539 21.3382 73.6409 21.1157C73.428 20.8932 73.1371 20.76 72.8279 20.7435H66.027C65.7179 20.76 65.4269 20.8932 65.214 21.1157C65.0011 21.3382 64.8824 21.6331 64.8824 21.9395C64.8824 22.246 65.0011 22.5409 65.214 22.7633C65.4269 22.9858 65.7179 23.1191 66.027 23.1356ZM59.5824 20.7435H58.2701C57.961 20.76 57.67 20.8932 57.4571 21.1157C57.2442 21.3382 57.1255 21.6331 57.1255 21.9395C57.1255 22.246 57.2442 22.5409 57.4571 22.7633C57.67 22.9858 57.961 23.1191 58.2701 23.1356H59.5824C59.8915 23.1191 60.1825 22.9858 60.3954 22.7633C60.6083 22.5409 60.727 22.246 60.727 21.9395C60.727 21.6331 60.6083 21.3382 60.3954 21.1157C60.1825 20.8932 59.8915 20.76 59.5824 20.7435ZM82.8635 31.9184H66.027C65.7179 31.935 65.4269 32.0682 65.214 32.2907C65.0011 32.5132 64.8824 32.808 64.8824 33.1145C64.8824 33.421 65.0011 33.7158 65.214 33.9383C65.4269 34.1608 65.7179 34.294 66.027 34.3105H82.8635C83.1844 34.3105 83.4922 34.1843 83.7191 33.9597C83.946 33.7351 84.0734 33.4304 84.0734 33.1127C84.0734 32.7951 83.946 32.4904 83.7191 32.2658C83.4922 32.0411 83.1844 31.9149 82.8635 31.9149V31.9184ZM59.5824 31.9184H58.2701C57.961 31.935 57.67 32.0682 57.4571 32.2907C57.2442 32.5132 57.1255 32.808 57.1255 33.1145C57.1255 33.421 57.2442 33.7158 57.4571 33.9383C57.67 34.1608 57.961 34.294 58.2701 34.3105H59.5824C59.9032 34.3105 60.211 34.1843 60.4379 33.9597C60.6648 33.7351 60.7923 33.4304 60.7923 33.1127C60.7923 32.7951 60.6648 32.4904 60.4379 32.2658C60.211 32.0411 59.9032 31.9149 59.5824 31.9149V31.9184ZM66.0305 45.4785H82.8635C83.1727 45.462 83.4636 45.3287 83.6765 45.1062C83.8895 44.8837 84.0081 44.5889 84.0081 44.2824C84.0081 43.9759 83.8895 43.6811 83.6765 43.4586C83.4636 43.2361 83.1727 43.1029 82.8635 43.0864H66.027C65.723 43.1094 65.439 43.2452 65.2317 43.4667C65.0245 43.6881 64.9094 43.9788 64.9094 44.2807C64.9094 44.5825 65.0245 44.8733 65.2317 45.0947C65.439 45.3162 65.723 45.452 66.027 45.475L66.0305 45.4785ZM59.5824 43.0829H58.2701C57.961 43.0994 57.67 43.2326 57.4571 43.4551C57.2442 43.6776 57.1255 43.9725 57.1255 44.2789C57.1255 44.5854 57.2442 44.8803 57.4571 45.1027C57.67 45.3252 57.961 45.4585 58.2701 45.475H59.5824C59.8915 45.4585 60.1825 45.3252 60.3954 45.1027C60.6083 44.8803 60.727 44.5854 60.727 44.2789C60.727 43.9725 60.6083 43.6776 60.3954 43.4551C60.1825 43.2326 59.8915 43.0994 59.5824 43.0829ZM92.5217 54.2578H77.6641C77.3549 54.2744 77.064 54.4076 76.851 54.6301C76.6381 54.8526 76.5195 55.1474 76.5195 55.4539C76.5195 55.7604 76.6381 56.0552 76.851 56.2777C77.064 56.5002 77.3549 56.6334 77.6641 56.6499H92.5182C92.8391 56.6499 93.1468 56.5238 93.3737 56.2991C93.6006 56.0745 93.7281 55.7698 93.7281 55.4521C93.7281 55.1344 93.6006 54.8298 93.3737 54.6051C93.1468 54.3805 92.8391 54.2543 92.5182 54.2543L92.5217 54.2578ZM66.0305 56.6499H71.2229C71.5321 56.6334 71.823 56.5002 72.036 56.2777C72.2489 56.0552 72.3675 55.7604 72.3675 55.4539C72.3675 55.1474 72.2489 54.8526 72.036 54.6301C71.823 54.4076 71.5321 54.2744 71.2229 54.2578H66.027C65.723 54.2808 65.439 54.4167 65.2317 54.6381C65.0245 54.8595 64.9094 55.1503 64.9094 55.4521C64.9094 55.754 65.0245 56.0447 65.2317 56.2662C65.439 56.4876 65.723 56.6234 66.027 56.6465L66.0305 56.6499ZM59.5824 54.2543H58.2701C57.961 54.2709 57.67 54.4041 57.4571 54.6266C57.2442 54.8491 57.1255 55.1439 57.1255 55.4504C57.1255 55.7569 57.2442 56.0517 57.4571 56.2742C57.67 56.4967 57.961 56.6299 58.2701 56.6465H59.5824C59.8915 56.6299 60.1825 56.4967 60.3954 56.2742C60.6083 56.0517 60.727 55.7569 60.727 55.4504C60.727 55.1439 60.6083 54.8491 60.3954 54.6266C60.1825 54.4041 59.8915 54.2709 59.5824 54.2543ZM82.9059 66.6236C82.9059 66.7804 82.9371 66.9357 82.9977 67.0806C83.0583 67.2255 83.1472 67.3572 83.2592 67.4681C83.3712 67.579 83.5042 67.667 83.6506 67.727C83.7969 67.787 83.9538 67.8179 84.1122 67.8179H100.176C100.34 67.8267 100.505 67.8023 100.659 67.7461C100.813 67.69 100.954 67.6033 101.074 67.4914C101.193 67.3794 101.288 67.2446 101.353 67.0951C101.418 66.9456 101.451 66.7846 101.451 66.6218C101.451 66.4591 101.418 66.298 101.353 66.1485C101.288 65.999 101.193 65.8642 101.074 65.7523C100.954 65.6404 100.813 65.5537 100.659 65.4975C100.505 65.4414 100.34 65.417 100.176 65.4258H84.1087C83.95 65.4258 83.7928 65.4568 83.6462 65.517C83.4996 65.5772 83.3665 65.6655 83.2544 65.7768C83.1424 65.8881 83.0536 66.0201 82.9931 66.1655C82.9327 66.3108 82.9019 66.4664 82.9023 66.6236H82.9059ZM66.0305 67.8179H77.6711C77.9803 67.8014 78.2712 67.6681 78.4841 67.4456C78.6971 67.2231 78.8157 66.9283 78.8157 66.6218C78.8157 66.3153 78.6971 66.0205 78.4841 65.798C78.2712 65.5755 77.9803 65.4423 77.6711 65.4258H66.0305C65.7214 65.4419 65.4302 65.5747 65.2169 65.7968C65.0037 66.019 64.8846 66.3137 64.8841 66.6202C64.8837 66.9267 65.0019 67.2217 65.2145 67.4445C65.4271 67.6673 65.7214 67.8009 66.0305 67.8179ZM59.5824 65.4258H58.2701C57.961 65.4423 57.67 65.5755 57.4571 65.798C57.2442 66.0205 57.1255 66.3153 57.1255 66.6218C57.1255 66.9283 57.2442 67.2231 57.4571 67.4456C57.67 67.6681 57.961 67.8014 58.2701 67.8179H59.5824C59.8915 67.8014 60.1825 67.6681 60.3954 67.4456C60.6083 67.2231 60.727 66.9283 60.727 66.6218C60.727 66.3153 60.6083 66.0205 60.3954 65.798C60.1825 65.5755 59.8915 65.4423 59.5824 65.4258ZM109.443 37.4884V56.3287C111.316 53.334 114.026 50.9413 117.245 49.4407C120.463 47.9401 124.053 47.3959 127.577 47.8741C127.898 47.8741 128.205 47.9998 128.432 48.2237C128.659 48.4476 128.786 48.7514 128.787 49.0684C129.206 51.7314 129.005 54.4538 128.199 57.0281C127.394 59.6024 126.005 61.9606 124.139 63.923C122.273 65.8854 119.98 67.4001 117.433 68.3517C114.886 69.3032 112.153 69.6665 109.443 69.4138V74.5962C109.442 75.7595 108.975 76.875 108.144 77.6979C107.314 78.5208 106.187 78.984 105.012 78.9858H53.434C52.2586 78.984 51.1319 78.5209 50.3008 77.6981C49.4696 76.8753 49.0019 75.7598 49 74.5962V4.38616C49.0019 3.22284 49.4697 2.10775 50.301 1.28549C51.1322 0.463221 52.2589 0.000923269 53.434 0L105.009 0C106.183 0.00184705 107.309 0.464552 108.14 1.28672C108.97 2.10888 109.437 3.22345 109.439 4.38616V13.9687C109.423 14.2747 109.288 14.5628 109.063 14.7736C108.839 14.9843 108.541 15.1018 108.231 15.1018C107.922 15.1018 107.624 14.9843 107.399 14.7736C107.174 14.5628 107.04 14.2747 107.023 13.9687V4.38616C107.022 3.85792 106.809 3.35163 106.432 2.97843C106.054 2.60523 105.542 2.39563 105.009 2.39563H94.9345V5.98558C94.9326 7.57156 94.2954 9.09205 93.1626 10.2135C92.0298 11.335 90.4939 11.9658 88.8919 11.9677H69.5509C67.9486 11.9658 66.4124 11.3351 65.279 10.2137C64.1457 9.09236 63.5077 7.57188 63.5049 5.98558V2.39563H53.434C52.9004 2.39563 52.3886 2.60523 52.011 2.97843C51.6334 3.35163 51.4208 3.85792 51.4198 4.38616V74.5962C51.4198 75.125 51.632 75.6322 52.0098 76.0062C52.3875 76.3801 52.8998 76.5902 53.434 76.5902H105.009C105.543 76.5902 106.055 76.3801 106.433 76.0062C106.811 75.6322 107.023 75.125 107.023 74.5962V53.4581C104.313 53.7102 101.581 53.3465 99.0343 52.3947C96.4879 51.4429 94.1946 49.9281 92.3291 47.9658C90.4637 46.0035 89.0754 43.6455 88.2701 41.0714C87.4647 38.4974 87.2636 35.7754 87.682 33.1127C87.6816 32.9556 87.7124 32.7999 87.7728 32.6546C87.8333 32.5093 87.922 32.3772 88.0341 32.266C88.1462 32.1547 88.2793 32.0664 88.4259 32.0062C88.5725 31.9459 88.7297 31.9149 88.8884 31.9149C92.4137 31.4366 96.0034 31.9811 99.2223 33.4824C102.441 34.9837 105.151 37.3773 107.023 40.373V33.1092C107.065 30.5882 107.652 28.1053 108.745 25.8277C109.838 23.5502 111.411 21.5308 113.358 19.9055C115.305 18.2803 117.581 17.0868 120.034 16.4055C122.486 15.7242 125.057 15.5708 127.574 15.9557C127.895 15.9566 128.202 16.0831 128.428 16.3076C128.655 16.532 128.783 16.8361 128.784 17.1535C129.173 19.6454 129.018 22.1908 128.33 24.6184C127.641 27.0461 126.436 29.2996 124.794 31.2273C123.152 33.155 121.113 34.7121 118.812 35.7939C116.512 36.8758 114.004 37.4571 111.457 37.4989L109.443 37.4884ZM109.443 33.4026L117.052 25.87C117.162 25.7499 117.295 25.6533 117.445 25.586C117.594 25.5186 117.755 25.4819 117.919 25.4782C118.083 25.4744 118.245 25.5036 118.397 25.564C118.55 25.6244 118.688 25.7147 118.803 25.8295C118.919 25.9444 119.01 26.0812 119.071 26.2319C119.131 26.3826 119.161 26.5439 119.156 26.706C119.152 26.8682 119.115 27.0278 119.047 27.1753C118.978 27.3227 118.88 27.4548 118.759 27.5637L111.154 35.0963C113.306 35.1138 115.437 34.6783 117.407 33.8187C119.376 32.959 121.138 31.6949 122.577 30.1099C124.015 28.525 125.097 26.6555 125.751 24.6253C126.404 22.5951 126.615 20.4506 126.368 18.3339C124.255 18.0889 122.113 18.2866 120.082 18.9144C118.051 19.5421 116.177 20.5858 114.58 21.9776C112.983 23.3694 111.7 25.0782 110.814 26.993C109.927 28.9078 109.458 30.9857 109.436 33.0918L109.443 33.4026ZM90.1019 34.2966C89.8543 36.4134 90.0641 38.5581 90.7174 40.5886C91.3707 42.619 92.4525 44.4887 93.8911 46.0738C95.3298 47.6589 97.0924 48.9231 99.062 49.7825C101.032 50.642 103.163 51.0771 105.316 51.059L97.7106 43.5299C97.4903 43.3039 97.3684 43.0014 97.3712 42.6874C97.374 42.3734 97.5012 42.073 97.7255 41.851C97.9498 41.6289 98.2532 41.5029 98.5704 41.5002C98.8876 41.4974 99.1932 41.6181 99.4214 41.8362L107.027 49.3653C107.044 47.2352 106.604 45.1258 105.735 43.1768C104.867 41.2278 103.59 39.4838 101.99 38.0601C100.389 36.6363 98.5014 35.5655 96.4513 34.9185C94.4013 34.2715 92.2358 34.0631 90.0983 34.3071L90.1019 34.2966ZM65.9318 5.98558C65.9327 6.9362 66.3141 7.84772 66.9924 8.52057C67.6707 9.19342 68.5907 9.57275 69.5509 9.57552H88.8919C89.8534 9.5746 90.7752 9.19608 91.455 8.52303C92.1349 7.84999 92.5172 6.93741 92.5182 5.98558V2.39563H65.9318V5.98558ZM109.439 65.328L117.048 57.7989C117.274 57.5747 117.582 57.4488 117.902 57.4488C118.222 57.4488 118.529 57.5747 118.755 57.7989C118.982 58.023 119.109 58.327 119.109 58.644C119.109 58.9609 118.982 59.2649 118.755 59.4891L111.15 67.0217C113.303 67.0426 115.436 66.6094 117.407 65.7509C119.378 64.8923 121.142 63.6282 122.581 62.0425C124.021 60.4568 125.102 58.5858 125.755 56.5542C126.407 54.5225 126.615 52.3766 126.364 50.2593H124.35C122.366 50.2626 120.404 50.657 118.576 51.4193C116.748 52.1816 115.092 53.2966 113.704 54.6992C112.316 56.1019 111.224 57.7641 110.492 59.589C109.76 61.4139 109.402 63.3648 109.439 65.328Z" fill="#161616"/>
<path d="M1.89 120.986V108.386H3.69V120.986H1.89ZM12.3043 111.356C13.0843 111.356 13.7683 111.506 14.3563 111.806C14.9563 112.106 15.4243 112.562 15.7603 113.174C16.0963 113.786 16.2643 114.56 16.2643 115.496V120.986H14.5363V115.694C14.5363 114.77 14.3083 114.074 13.8523 113.606C13.4083 113.138 12.7783 112.904 11.9623 112.904C11.3503 112.904 10.8163 113.024 10.3603 113.264C9.90427 113.504 9.55027 113.858 9.29827 114.326C9.05827 114.794 8.93827 115.376 8.93827 116.072V120.986H7.21027V111.446H8.86627V114.02L8.59627 113.336C8.90827 112.712 9.38827 112.226 10.0363 111.878C10.6843 111.53 11.4403 111.356 12.3043 111.356ZM23.4042 121.094C22.4802 121.094 21.6522 120.89 20.9202 120.482C20.2002 120.074 19.6302 119.504 19.2102 118.772C18.7902 118.04 18.5802 117.188 18.5802 116.216C18.5802 115.244 18.7902 114.398 19.2102 113.678C19.6302 112.946 20.2002 112.376 20.9202 111.968C21.6522 111.56 22.4802 111.356 23.4042 111.356C24.2082 111.356 24.9342 111.536 25.5822 111.896C26.2302 112.256 26.7462 112.796 27.1302 113.516C27.5262 114.236 27.7242 115.136 27.7242 116.216C27.7242 117.296 27.5322 118.196 27.1482 118.916C26.7762 119.636 26.2662 120.182 25.6182 120.554C24.9702 120.914 24.2322 121.094 23.4042 121.094ZM23.5482 119.582C24.1482 119.582 24.6882 119.444 25.1682 119.168C25.6602 118.892 26.0442 118.502 26.3202 117.998C26.6082 117.482 26.7522 116.888 26.7522 116.216C26.7522 115.532 26.6082 114.944 26.3202 114.452C26.0442 113.948 25.6602 113.558 25.1682 113.282C24.6882 113.006 24.1482 112.868 23.5482 112.868C22.9362 112.868 22.3902 113.006 21.9102 113.282C21.4302 113.558 21.0462 113.948 20.7582 114.452C20.4702 114.944 20.3262 115.532 20.3262 116.216C20.3262 116.888 20.4702 117.482 20.7582 117.998C21.0462 118.502 21.4302 118.892 21.9102 119.168C22.3902 119.444 22.9362 119.582 23.5482 119.582ZM26.8062 120.986V118.412L26.9142 116.198L26.7342 113.984V107.63H28.4622V120.986H26.8062ZM31.7318 120.986V111.446H33.4598V120.986H31.7318ZM32.5958 109.61C32.2598 109.61 31.9778 109.502 31.7498 109.286C31.5338 109.07 31.4258 108.806 31.4258 108.494C31.4258 108.17 31.5338 107.9 31.7498 107.684C31.9778 107.468 32.2598 107.36 32.5958 107.36C32.9318 107.36 33.2078 107.468 33.4238 107.684C33.6518 107.888 33.7658 108.146 33.7658 108.458C33.7658 108.782 33.6578 109.058 33.4418 109.286C33.2258 109.502 32.9438 109.61 32.5958 109.61ZM39.2611 120.986L35.0851 111.446H36.8851L40.5931 120.086H39.7291L43.5091 111.446H45.2011L41.0251 120.986H39.2611ZM46.8138 120.986V111.446H48.5418V120.986H46.8138ZM47.6778 109.61C47.3418 109.61 47.0598 109.502 46.8318 109.286C46.6158 109.07 46.5078 108.806 46.5078 108.494C46.5078 108.17 46.6158 107.9 46.8318 107.684C47.0598 107.468 47.3418 107.36 47.6778 107.36C48.0138 107.36 48.2898 107.468 48.5058 107.684C48.7338 107.888 48.8478 108.146 48.8478 108.458C48.8478 108.782 48.7398 109.058 48.5238 109.286C48.3078 109.502 48.0258 109.61 47.6778 109.61ZM55.7831 121.094C54.8591 121.094 54.0311 120.89 53.2991 120.482C52.5791 120.074 52.0091 119.504 51.5891 118.772C51.1691 118.04 50.9591 117.188 50.9591 116.216C50.9591 115.244 51.1691 114.398 51.5891 113.678C52.0091 112.946 52.5791 112.376 53.2991 111.968C54.0311 111.56 54.8591 111.356 55.7831 111.356C56.5871 111.356 57.3131 111.536 57.9611 111.896C58.6091 112.256 59.1251 112.796 59.5091 113.516C59.9051 114.236 60.1031 115.136 60.1031 116.216C60.1031 117.296 59.9111 118.196 59.5271 118.916C59.1551 119.636 58.6451 120.182 57.9971 120.554C57.3491 120.914 56.6111 121.094 55.7831 121.094ZM55.9271 119.582C56.5271 119.582 57.0671 119.444 57.5471 119.168C58.0391 118.892 58.4231 118.502 58.6991 117.998C58.9871 117.482 59.1311 116.888 59.1311 116.216C59.1311 115.532 58.9871 114.944 58.6991 114.452C58.4231 113.948 58.0391 113.558 57.5471 113.282C57.0671 113.006 56.5271 112.868 55.9271 112.868C55.3151 112.868 54.7691 113.006 54.2891 113.282C53.8091 113.558 53.4251 113.948 53.1371 114.452C52.8491 114.944 52.7051 115.532 52.7051 116.216C52.7051 116.888 52.8491 117.482 53.1371 117.998C53.4251 118.502 53.8091 118.892 54.2891 119.168C54.7691 119.444 55.3151 119.582 55.9271 119.582ZM59.1851 120.986V118.412L59.2931 116.198L59.1131 113.984V107.63H60.8411V120.986H59.1851ZM68.1247 121.094C67.3087 121.094 66.5887 120.944 65.9647 120.644C65.3527 120.344 64.8727 119.888 64.5247 119.276C64.1887 118.652 64.0207 117.872 64.0207 116.936V111.446H65.7487V116.738C65.7487 117.674 65.9707 118.376 66.4147 118.844C66.8707 119.312 67.5067 119.546 68.3227 119.546C68.9227 119.546 69.4447 119.426 69.8887 119.186C70.3327 118.934 70.6747 118.574 70.9147 118.106C71.1547 117.626 71.2747 117.05 71.2747 116.378V111.446H73.0027V120.986H71.3647V118.412L71.6347 119.096C71.3227 119.732 70.8547 120.224 70.2307 120.572C69.6067 120.92 68.9047 121.094 68.1247 121.094ZM82.2143 120.986V118.97L82.1243 118.592V115.154C82.1243 114.422 81.9083 113.858 81.4763 113.462C81.0563 113.054 80.4203 112.85 79.5683 112.85C79.0043 112.85 78.4523 112.946 77.9123 113.138C77.3723 113.318 76.9163 113.564 76.5443 113.876L75.8243 112.58C76.3163 112.184 76.9043 111.884 77.5883 111.68C78.2843 111.464 79.0103 111.356 79.7663 111.356C81.0743 111.356 82.0823 111.674 82.7903 112.31C83.4983 112.946 83.8523 113.918 83.8523 115.226V120.986H82.2143ZM79.0823 121.094C78.3743 121.094 77.7503 120.974 77.2103 120.734C76.6823 120.494 76.2743 120.164 75.9863 119.744C75.6983 119.312 75.5543 118.826 75.5543 118.286C75.5543 117.77 75.6743 117.302 75.9143 116.882C76.1663 116.462 76.5683 116.126 77.1203 115.874C77.6843 115.622 78.4403 115.496 79.3883 115.496H82.4123V116.738H79.4603C78.5963 116.738 78.0143 116.882 77.7143 117.17C77.4143 117.458 77.2643 117.806 77.2643 118.214C77.2643 118.682 77.4503 119.06 77.8223 119.348C78.1943 119.624 78.7103 119.762 79.3703 119.762C80.0183 119.762 80.5823 119.618 81.0623 119.33C81.5543 119.042 81.9083 118.622 82.1243 118.07L82.4663 119.258C82.2383 119.822 81.8363 120.272 81.2603 120.608C80.6843 120.932 79.9583 121.094 79.0823 121.094ZM87.0501 120.986V107.63H88.7781V120.986H87.0501ZM99.6474 121.094C98.8554 121.094 98.0994 120.986 97.3794 120.77C96.6714 120.554 96.1134 120.29 95.7054 119.978L96.4254 118.61C96.8334 118.886 97.3374 119.12 97.9374 119.312C98.5374 119.504 99.1494 119.6 99.7734 119.6C100.577 119.6 101.153 119.486 101.501 119.258C101.861 119.03 102.041 118.712 102.041 118.304C102.041 118.004 101.933 117.77 101.717 117.602C101.501 117.434 101.213 117.308 100.853 117.224C100.505 117.14 100.115 117.068 99.6834 117.008C99.2514 116.936 98.8194 116.852 98.3874 116.756C97.9554 116.648 97.5594 116.504 97.1994 116.324C96.8394 116.132 96.5514 115.874 96.3354 115.55C96.1194 115.214 96.0114 114.77 96.0114 114.218C96.0114 113.642 96.1734 113.138 96.4974 112.706C96.8214 112.274 97.2774 111.944 97.8654 111.716C98.4654 111.476 99.1734 111.356 99.9894 111.356C100.613 111.356 101.243 111.434 101.879 111.59C102.527 111.734 103.055 111.944 103.463 112.22L102.725 113.588C102.293 113.3 101.843 113.102 101.375 112.994C100.907 112.886 100.439 112.832 99.9714 112.832C99.2154 112.832 98.6514 112.958 98.2794 113.21C97.9074 113.45 97.7214 113.762 97.7214 114.146C97.7214 114.47 97.8294 114.722 98.0454 114.902C98.2734 115.07 98.5614 115.202 98.9094 115.298C99.2694 115.394 99.6654 115.478 100.097 115.55C100.529 115.61 100.961 115.694 101.393 115.802C101.825 115.898 102.215 116.036 102.563 116.216C102.923 116.396 103.211 116.648 103.427 116.972C103.655 117.296 103.769 117.728 103.769 118.268C103.769 118.844 103.601 119.342 103.265 119.762C102.929 120.182 102.455 120.512 101.843 120.752C101.231 120.98 100.499 121.094 99.6474 121.094ZM110.177 121.094C109.157 121.094 108.257 120.884 107.477 120.464C106.709 120.044 106.109 119.468 105.677 118.736C105.257 118.004 105.047 117.164 105.047 116.216C105.047 115.268 105.251 114.428 105.659 113.696C106.079 112.964 106.649 112.394 107.369 111.986C108.101 111.566 108.923 111.356 109.835 111.356C110.759 111.356 111.575 111.56 112.283 111.968C112.991 112.376 113.543 112.952 113.939 113.696C114.347 114.428 114.551 115.286 114.551 116.27C114.551 116.342 114.545 116.426 114.533 116.522C114.533 116.618 114.527 116.708 114.515 116.792H106.397V115.55H113.615L112.913 115.982C112.925 115.37 112.799 114.824 112.535 114.344C112.271 113.864 111.905 113.492 111.437 113.228C110.981 112.952 110.447 112.814 109.835 112.814C109.235 112.814 108.701 112.952 108.233 113.228C107.765 113.492 107.399 113.87 107.135 114.362C106.871 114.842 106.739 115.394 106.739 116.018V116.306C106.739 116.942 106.883 117.512 107.171 118.016C107.471 118.508 107.885 118.892 108.413 119.168C108.941 119.444 109.547 119.582 110.231 119.582C110.795 119.582 111.305 119.486 111.761 119.294C112.229 119.102 112.637 118.814 112.985 118.43L113.939 119.546C113.507 120.05 112.967 120.434 112.319 120.698C111.683 120.962 110.969 121.094 110.177 121.094ZM116.951 120.986V107.63H118.679V120.986H116.951ZM126.226 121.094C125.206 121.094 124.306 120.884 123.526 120.464C122.758 120.044 122.158 119.468 121.726 118.736C121.306 118.004 121.096 117.164 121.096 116.216C121.096 115.268 121.3 114.428 121.708 113.696C122.128 112.964 122.698 112.394 123.418 111.986C124.15 111.566 124.972 111.356 125.884 111.356C126.808 111.356 127.624 111.56 128.332 111.968C129.04 112.376 129.592 112.952 129.988 113.696C130.396 114.428 130.6 115.286 130.6 116.27C130.6 116.342 130.594 116.426 130.582 116.522C130.582 116.618 130.576 116.708 130.564 116.792H122.446V115.55H129.664L128.962 115.982C128.974 115.37 128.848 114.824 128.584 114.344C128.32 113.864 127.954 113.492 127.486 113.228C127.03 112.952 126.496 112.814 125.884 112.814C125.284 112.814 124.75 112.952 124.282 113.228C123.814 113.492 123.448 113.87 123.184 114.362C122.92 114.842 122.788 115.394 122.788 116.018V116.306C122.788 116.942 122.932 117.512 123.22 118.016C123.52 118.508 123.934 118.892 124.462 119.168C124.99 119.444 125.596 119.582 126.28 119.582C126.844 119.582 127.354 119.486 127.81 119.294C128.278 119.102 128.686 118.814 129.034 118.43L129.988 119.546C129.556 120.05 129.016 120.434 128.368 120.698C127.732 120.962 127.018 121.094 126.226 121.094ZM137.157 121.094C136.185 121.094 135.315 120.884 134.547 120.464C133.791 120.044 133.197 119.468 132.765 118.736C132.333 118.004 132.117 117.164 132.117 116.216C132.117 115.268 132.333 114.428 132.765 113.696C133.197 112.964 133.791 112.394 134.547 111.986C135.315 111.566 136.185 111.356 137.157 111.356C138.021 111.356 138.789 111.53 139.461 111.878C140.145 112.214 140.673 112.718 141.045 113.39L139.731 114.236C139.419 113.768 139.035 113.426 138.579 113.21C138.135 112.982 137.655 112.868 137.139 112.868C136.515 112.868 135.957 113.006 135.465 113.282C134.973 113.558 134.583 113.948 134.295 114.452C134.007 114.944 133.863 115.532 133.863 116.216C133.863 116.9 134.007 117.494 134.295 117.998C134.583 118.502 134.973 118.892 135.465 119.168C135.957 119.444 136.515 119.582 137.139 119.582C137.655 119.582 138.135 119.474 138.579 119.258C139.035 119.03 139.419 118.682 139.731 118.214L141.045 119.042C140.673 119.702 140.145 120.212 139.461 120.572C138.789 120.92 138.021 121.094 137.157 121.094ZM146.682 121.094C145.722 121.094 144.978 120.836 144.45 120.32C143.922 119.804 143.658 119.066 143.658 118.106V109.358H145.386V118.034C145.386 118.55 145.512 118.946 145.764 119.222C146.028 119.498 146.4 119.636 146.88 119.636C147.42 119.636 147.87 119.486 148.23 119.186L148.77 120.428C148.506 120.656 148.188 120.824 147.816 120.932C147.456 121.04 147.078 121.094 146.682 121.094ZM142.038 112.868V111.446H148.122V112.868H142.038ZM150.859 120.986V111.446H152.587V120.986H150.859ZM151.723 109.61C151.387 109.61 151.105 109.502 150.877 109.286C150.661 109.07 150.553 108.806 150.553 108.494C150.553 108.17 150.661 107.9 150.877 107.684C151.105 107.468 151.387 107.36 151.723 107.36C152.059 107.36 152.335 107.468 152.551 107.684C152.779 107.888 152.893 108.146 152.893 108.458C152.893 108.782 152.785 109.058 152.569 109.286C152.353 109.502 152.071 109.61 151.723 109.61ZM159.972 121.094C159.012 121.094 158.16 120.884 157.416 120.464C156.672 120.044 156.084 119.468 155.652 118.736C155.22 117.992 155.004 117.152 155.004 116.216C155.004 115.268 155.22 114.428 155.652 113.696C156.084 112.964 156.672 112.394 157.416 111.986C158.16 111.566 159.012 111.356 159.972 111.356C160.92 111.356 161.766 111.566 162.51 111.986C163.266 112.394 163.854 112.964 164.274 113.696C164.706 114.416 164.922 115.256 164.922 116.216C164.922 117.164 164.706 118.004 164.274 118.736C163.854 119.468 163.266 120.044 162.51 120.464C161.766 120.884 160.92 121.094 159.972 121.094ZM159.972 119.582C160.584 119.582 161.13 119.444 161.61 119.168C162.102 118.892 162.486 118.502 162.762 117.998C163.038 117.482 163.176 116.888 163.176 116.216C163.176 115.532 163.038 114.944 162.762 114.452C162.486 113.948 162.102 113.558 161.61 113.282C161.13 113.006 160.584 112.868 159.972 112.868C159.36 112.868 158.814 113.006 158.334 113.282C157.854 113.558 157.47 113.948 157.182 114.452C156.894 114.944 156.75 115.532 156.75 116.216C156.75 116.888 156.894 117.482 157.182 117.998C157.47 118.502 157.854 118.892 158.334 119.168C158.814 119.444 159.36 119.582 159.972 119.582ZM172.406 111.356C173.186 111.356 173.87 111.506 174.458 111.806C175.058 112.106 175.526 112.562 175.862 113.174C176.198 113.786 176.366 114.56 176.366 115.496V120.986H174.638V115.694C174.638 114.77 174.41 114.074 173.954 113.606C173.51 113.138 172.88 112.904 172.064 112.904C171.452 112.904 170.918 113.024 170.462 113.264C170.006 113.504 169.652 113.858 169.4 114.326C169.16 114.794 169.04 115.376 169.04 116.072V120.986H167.312V111.446H168.968V114.02L168.698 113.336C169.01 112.712 169.49 112.226 170.138 111.878C170.786 111.53 171.542 111.356 172.406 111.356Z" fill="#161616"/>
</svg>
