<svg width="116" height="126" viewBox="0 0 116 126" fill="none" xmlns="http://www.w3.org/2000/svg">
<path d="M95.9959 58.6588C95.5175 58.3069 94.9564 58.0812 94.3654 58.0029C93.7744 57.9247 93.173 57.9964 92.6178 58.2113C92.8084 57.5004 92.7647 56.748 92.4931 56.0633C92.2215 55.3786 91.7361 54.7973 91.1074 54.404C89.4661 53.1593 86.9687 54.2222 82.8301 55.9807C79.6819 57.3769 76.4427 58.5636 73.1344 59.5328C72.5915 58.7658 71.8687 58.14 71.0279 57.7089C70.1871 57.2779 69.2532 57.0544 68.306 57.0576C65.1057 57.1714 61.9011 57.0616 58.7164 56.7289V50.3624H76.8981C81.504 50.3513 85.9175 48.536 89.1718 45.3144C92.4259 42.0928 94.2553 37.7275 94.2591 33.1752C94.2591 32.8572 94.1312 32.5521 93.9037 32.3272C93.6762 32.1024 93.3676 31.976 93.0458 31.976H73.665C70.6429 31.9799 67.6741 32.7635 65.0523 34.2492C62.4306 35.7349 60.2466 37.8714 58.7164 40.4472V18.3864H76.8981C81.504 18.3753 85.9175 16.56 89.1718 13.3384C92.4259 10.1168 94.2553 5.75154 94.2591 1.19919C94.2582 0.883828 94.132 0.581432 93.9077 0.357133C93.6834 0.132835 93.379 0.0045825 93.0599 0L73.665 0C69.0567 0.00740463 64.6395 1.82102 61.3822 5.04304C58.1249 8.26506 56.2936 12.6324 56.2899 17.1872V24.4732C54.7615 21.8948 52.5783 19.7555 49.9564 18.2673C47.3345 16.779 44.3648 15.9933 41.3413 15.988H21.9464C21.6249 15.9889 21.3168 16.1156 21.0895 16.3403C20.8621 16.5649 20.734 16.8694 20.7331 17.1872C20.7359 21.7422 22.5669 26.1101 25.8244 29.3324C29.0818 32.5546 33.4996 34.3679 38.1082 34.3744H56.2899V56.2884C48.1152 53.0789 51.1042 51.7014 29.0103 51.4637L18.9149 49.8764C18.7411 49.8499 18.5635 49.8605 18.3943 49.9077C18.225 49.9549 18.0679 50.0374 17.9338 50.1498C17.7996 50.2622 17.6914 50.4018 17.6166 50.5591C17.5418 50.7164 17.502 50.8878 17.5 51.0616V72.6295C17.4999 72.9146 17.6028 73.1903 17.7903 73.407C17.9777 73.6237 18.2373 73.767 18.5223 73.8112L28.6248 75.3985C43.729 80.6847 75.9006 81.9888 94.5456 66.1126C95.8296 65.3784 99.565 61.4453 95.9959 58.6588ZM80.1099 7.99575C73.711 7.71606 64.0436 8.1321 59.8342 11.5618C60.9595 8.85757 62.8707 6.5437 65.3262 4.91268C67.7816 3.28166 70.6712 2.4067 73.6296 2.39838H91.783C91.4768 6.09775 89.7751 9.54827 87.0153 12.0655C84.2555 14.5827 80.6393 15.9828 76.8839 15.988H58.9782C60.2198 13.1037 65.8087 10.3941 73.665 10.3941H80.1099C80.4317 10.3941 80.7403 10.2678 80.9679 10.0429C81.1954 9.818 81.3232 9.51298 81.3232 9.19494C81.3232 8.87689 81.1954 8.57187 80.9679 8.34698C80.7403 8.12209 80.4317 7.99575 80.1099 7.99575ZM38.1082 31.976C34.3527 31.9701 30.7365 30.5699 27.9763 28.0528C25.2161 25.5358 23.5134 22.0858 23.2056 18.3864H41.3413C44.3 18.3954 47.1897 19.2711 49.6451 20.9027C52.1005 22.5343 54.0115 24.8487 55.1367 27.5533C50.9556 24.1236 41.267 23.7006 34.8716 23.9838C34.5616 24.0003 34.2698 24.1337 34.0563 24.3564C33.8428 24.5792 33.7238 24.8744 33.7238 25.1812C33.7238 25.488 33.8428 25.7832 34.0563 26.0059C34.2698 26.2287 34.5616 26.3621 34.8716 26.3786H41.3342C49.1941 26.3786 54.7759 29.0917 56.021 31.9725L38.1082 31.976ZM27.6945 72.8218L19.9124 71.6051V52.4671L27.6945 53.6837V72.8218ZM73.9126 61.8054C79.406 60.5922 85.4159 56.7219 89.6323 56.3059C93.5764 59.6867 78.7587 63.3332 73.7711 64.8016C74.0514 63.827 74.0999 62.8015 73.9126 61.8054ZM73.665 34.3744H91.783C91.476 38.0735 89.7741 41.5235 87.0145 44.0406C84.2548 46.5577 80.6391 47.958 76.8839 47.964H58.9782C60.2198 45.0797 65.8087 42.3701 73.665 42.3701H80.1099C80.4317 42.3701 80.7403 42.2438 80.9679 42.0189C81.1954 41.794 81.3232 41.489 81.3232 41.1709C81.3232 40.8529 81.1954 40.5479 80.9679 40.323C80.7403 40.0981 80.4317 39.9718 80.1099 39.9718C73.7145 39.6921 64.0436 40.1116 59.8342 43.5414C60.9613 40.8309 62.8777 38.5125 65.3401 36.8804C67.8026 35.2483 70.7001 34.3761 73.665 34.3744ZM93.1201 64.1863C68.3308 83.625 35.6816 75.0244 30.1352 73.3497V53.8621C46.6897 53.9355 49.4417 55.5367 51.8753 56.9492C54.3762 58.3966 56.5304 59.6482 68.4157 59.4559C68.9169 59.4546 69.4118 59.5669 69.8624 59.7841C70.3129 60.0014 70.707 60.3178 71.0144 60.7091C71.3219 61.1004 71.5344 61.5562 71.6358 62.0414C71.7372 62.5266 71.7247 63.0283 71.5992 63.508C71.5992 63.8576 71.4118 65.0358 69.2965 65.8085C67.0291 66.686 62.0344 67.4342 51.0971 66.0322C50.7777 65.9914 50.4549 66.0777 50.1999 66.2721C49.9448 66.4665 49.7783 66.7531 49.737 67.0689C49.6958 67.3846 49.7831 67.7036 49.9798 67.9557C50.1765 68.2078 50.4664 68.3723 50.7858 68.4131C63.3291 71.2345 80.5698 66.0707 89.1053 62.0886C91.5814 61.0397 93.9301 60.0643 94.4572 60.4978C96.1798 61.7914 93.9053 63.536 93.1024 64.1863H93.1201ZM23.807 56.6031C24.1288 56.6031 24.4374 56.7294 24.6649 56.9543C24.8924 57.1792 25.0203 57.4842 25.0203 57.8022C25.0203 58.1203 24.8924 58.4253 24.6649 58.6502C24.4374 58.8751 24.1288 59.0014 23.807 59.0014C23.4852 59.0014 23.1766 58.8751 22.9491 58.6502C22.7215 58.4253 22.5937 58.1203 22.5937 57.8022C22.5937 57.4842 22.7215 57.1792 22.9491 56.9543C23.1766 56.7294 23.4852 56.6031 23.807 56.6031Z" fill="#161616"/>
<path d="M3.51 114.344H10.008V115.892H3.51V114.344ZM3.69 120.986H1.89V108.386H10.782V109.952H3.69V120.986ZM18.6342 120.986V118.97L18.5442 118.592V115.154C18.5442 114.422 18.3282 113.858 17.8962 113.462C17.4762 113.054 16.8402 112.85 15.9882 112.85C15.4242 112.85 14.8722 112.946 14.3322 113.138C13.7922 113.318 13.3362 113.564 12.9642 113.876L12.2442 112.58C12.7362 112.184 13.3242 111.884 14.0082 111.68C14.7042 111.464 15.4302 111.356 16.1862 111.356C17.4942 111.356 18.5022 111.674 19.2102 112.31C19.9182 112.946 20.2722 113.918 20.2722 115.226V120.986H18.6342ZM15.5022 121.094C14.7942 121.094 14.1702 120.974 13.6302 120.734C13.1022 120.494 12.6942 120.164 12.4062 119.744C12.1182 119.312 11.9742 118.826 11.9742 118.286C11.9742 117.77 12.0942 117.302 12.3342 116.882C12.5862 116.462 12.9882 116.126 13.5402 115.874C14.1042 115.622 14.8602 115.496 15.8082 115.496H18.8322V116.738H15.8802C15.0162 116.738 14.4342 116.882 14.1342 117.17C13.8342 117.458 13.6842 117.806 13.6842 118.214C13.6842 118.682 13.8702 119.06 14.2422 119.348C14.6142 119.624 15.1302 119.762 15.7902 119.762C16.4382 119.762 17.0022 119.618 17.4822 119.33C17.9742 119.042 18.3282 118.622 18.5442 118.07L18.8862 119.258C18.6582 119.822 18.2562 120.272 17.6802 120.608C17.1042 120.932 16.3782 121.094 15.5022 121.094ZM26.206 121.094C25.414 121.094 24.658 120.986 23.938 120.77C23.23 120.554 22.672 120.29 22.264 119.978L22.984 118.61C23.392 118.886 23.896 119.12 24.496 119.312C25.096 119.504 25.708 119.6 26.332 119.6C27.136 119.6 27.712 119.486 28.06 119.258C28.42 119.03 28.6 118.712 28.6 118.304C28.6 118.004 28.492 117.77 28.276 117.602C28.06 117.434 27.772 117.308 27.412 117.224C27.064 117.14 26.674 117.068 26.242 117.008C25.81 116.936 25.378 116.852 24.946 116.756C24.514 116.648 24.118 116.504 23.758 116.324C23.398 116.132 23.11 115.874 22.894 115.55C22.678 115.214 22.57 114.77 22.57 114.218C22.57 113.642 22.732 113.138 23.056 112.706C23.38 112.274 23.836 111.944 24.424 111.716C25.024 111.476 25.732 111.356 26.548 111.356C27.172 111.356 27.802 111.434 28.438 111.59C29.086 111.734 29.614 111.944 30.022 112.22L29.284 113.588C28.852 113.3 28.402 113.102 27.934 112.994C27.466 112.886 26.998 112.832 26.53 112.832C25.774 112.832 25.21 112.958 24.838 113.21C24.466 113.45 24.28 113.762 24.28 114.146C24.28 114.47 24.388 114.722 24.604 114.902C24.832 115.07 25.12 115.202 25.468 115.298C25.828 115.394 26.224 115.478 26.656 115.55C27.088 115.61 27.52 115.694 27.952 115.802C28.384 115.898 28.774 116.036 29.122 116.216C29.482 116.396 29.77 116.648 29.986 116.972C30.214 117.296 30.328 117.728 30.328 118.268C30.328 118.844 30.16 119.342 29.824 119.762C29.488 120.182 29.014 120.512 28.402 120.752C27.79 120.98 27.058 121.094 26.206 121.094ZM35.7636 121.094C34.8036 121.094 34.0596 120.836 33.5316 120.32C33.0036 119.804 32.7396 119.066 32.7396 118.106V109.358H34.4676V118.034C34.4676 118.55 34.5936 118.946 34.8456 119.222C35.1096 119.498 35.4816 119.636 35.9616 119.636C36.5016 119.636 36.9516 119.486 37.3116 119.186L37.8516 120.428C37.5876 120.656 37.2696 120.824 36.8976 120.932C36.5376 121.04 36.1596 121.094 35.7636 121.094ZM31.1196 112.868V111.446H37.2036V112.868H31.1196ZM48.7167 121.094C47.7927 121.094 46.9647 120.89 46.2327 120.482C45.5127 120.074 44.9427 119.504 44.5227 118.772C44.1027 118.04 43.8927 117.188 43.8927 116.216C43.8927 115.244 44.1027 114.398 44.5227 113.678C44.9427 112.946 45.5127 112.376 46.2327 111.968C46.9647 111.56 47.7927 111.356 48.7167 111.356C49.5207 111.356 50.2467 111.536 50.8947 111.896C51.5427 112.256 52.0587 112.796 52.4427 113.516C52.8387 114.236 53.0367 115.136 53.0367 116.216C53.0367 117.296 52.8447 118.196 52.4607 118.916C52.0887 119.636 51.5787 120.182 50.9307 120.554C50.2827 120.914 49.5447 121.094 48.7167 121.094ZM48.8607 119.582C49.4607 119.582 50.0007 119.444 50.4807 119.168C50.9727 118.892 51.3567 118.502 51.6327 117.998C51.9207 117.482 52.0647 116.888 52.0647 116.216C52.0647 115.532 51.9207 114.944 51.6327 114.452C51.3567 113.948 50.9727 113.558 50.4807 113.282C50.0007 113.006 49.4607 112.868 48.8607 112.868C48.2487 112.868 47.7027 113.006 47.2227 113.282C46.7427 113.558 46.3587 113.948 46.0707 114.452C45.7827 114.944 45.6387 115.532 45.6387 116.216C45.6387 116.888 45.7827 117.482 46.0707 117.998C46.3587 118.502 46.7427 118.892 47.2227 119.168C47.7027 119.444 48.2487 119.582 48.8607 119.582ZM52.1187 120.986V118.412L52.2267 116.198L52.0467 113.984V107.63H53.7747V120.986H52.1187ZM61.2923 121.094C60.2723 121.094 59.3723 120.884 58.5923 120.464C57.8243 120.044 57.2243 119.468 56.7923 118.736C56.3723 118.004 56.1623 117.164 56.1623 116.216C56.1623 115.268 56.3663 114.428 56.7743 113.696C57.1943 112.964 57.7643 112.394 58.4843 111.986C59.2163 111.566 60.0383 111.356 60.9503 111.356C61.8743 111.356 62.6903 111.56 63.3983 111.968C64.1063 112.376 64.6583 112.952 65.0543 113.696C65.4623 114.428 65.6663 115.286 65.6663 116.27C65.6663 116.342 65.6603 116.426 65.6483 116.522C65.6483 116.618 65.6423 116.708 65.6303 116.792H57.5123V115.55H64.7303L64.0283 115.982C64.0403 115.37 63.9143 114.824 63.6503 114.344C63.3863 113.864 63.0203 113.492 62.5523 113.228C62.0963 112.952 61.5623 112.814 60.9503 112.814C60.3503 112.814 59.8163 112.952 59.3483 113.228C58.8803 113.492 58.5143 113.87 58.2503 114.362C57.9863 114.842 57.8543 115.394 57.8543 116.018V116.306C57.8543 116.942 57.9983 117.512 58.2863 118.016C58.5863 118.508 59.0003 118.892 59.5283 119.168C60.0563 119.444 60.6623 119.582 61.3463 119.582C61.9103 119.582 62.4203 119.486 62.8763 119.294C63.3443 119.102 63.7523 118.814 64.1003 118.43L65.0543 119.546C64.6223 120.05 64.0823 120.434 63.4343 120.698C62.7983 120.962 62.0843 121.094 61.2923 121.094ZM68.0657 120.986V107.63H69.7937V120.986H68.0657ZM73.0931 120.986V111.446H74.8211V120.986H73.0931ZM73.9571 109.61C73.6211 109.61 73.3391 109.502 73.1111 109.286C72.8951 109.07 72.7871 108.806 72.7871 108.494C72.7871 108.17 72.8951 107.9 73.1111 107.684C73.3391 107.468 73.6211 107.36 73.9571 107.36C74.2931 107.36 74.5691 107.468 74.7851 107.684C75.0131 107.888 75.1271 108.146 75.1271 108.458C75.1271 108.782 75.0191 109.058 74.8031 109.286C74.5871 109.502 74.3051 109.61 73.9571 109.61ZM80.6224 120.986L76.4464 111.446H78.2464L81.9544 120.086H81.0904L84.8704 111.446H86.5624L82.3864 120.986H80.6224ZM92.1594 121.094C91.1394 121.094 90.2394 120.884 89.4594 120.464C88.6914 120.044 88.0914 119.468 87.6594 118.736C87.2394 118.004 87.0294 117.164 87.0294 116.216C87.0294 115.268 87.2334 114.428 87.6414 113.696C88.0614 112.964 88.6314 112.394 89.3514 111.986C90.0834 111.566 90.9054 111.356 91.8174 111.356C92.7414 111.356 93.5574 111.56 94.2654 111.968C94.9734 112.376 95.5254 112.952 95.9214 113.696C96.3294 114.428 96.5334 115.286 96.5334 116.27C96.5334 116.342 96.5274 116.426 96.5154 116.522C96.5154 116.618 96.5094 116.708 96.4974 116.792H88.3794V115.55H95.5974L94.8954 115.982C94.9074 115.37 94.7814 114.824 94.5174 114.344C94.2534 113.864 93.8874 113.492 93.4194 113.228C92.9634 112.952 92.4294 112.814 91.8174 112.814C91.2174 112.814 90.6834 112.952 90.2154 113.228C89.7474 113.492 89.3814 113.87 89.1174 114.362C88.8534 114.842 88.7214 115.394 88.7214 116.018V116.306C88.7214 116.942 88.8654 117.512 89.1534 118.016C89.4534 118.508 89.8674 118.892 90.3954 119.168C90.9234 119.444 91.5294 119.582 92.2134 119.582C92.7774 119.582 93.2874 119.486 93.7434 119.294C94.2114 119.102 94.6194 118.814 94.9674 118.43L95.9214 119.546C95.4894 120.05 94.9494 120.434 94.3014 120.698C93.6654 120.962 92.9514 121.094 92.1594 121.094ZM98.9329 120.986V111.446H100.589V114.038L100.427 113.39C100.691 112.73 101.135 112.226 101.759 111.878C102.383 111.53 103.151 111.356 104.063 111.356V113.03C103.991 113.018 103.919 113.012 103.847 113.012C103.787 113.012 103.727 113.012 103.667 113.012C102.743 113.012 102.011 113.288 101.471 113.84C100.931 114.392 100.661 115.19 100.661 116.234V120.986H98.9329ZM106.993 124.586C106.537 124.586 106.093 124.508 105.661 124.352C105.229 124.208 104.857 123.992 104.545 123.704L105.283 122.408C105.523 122.636 105.787 122.81 106.075 122.93C106.363 123.05 106.669 123.11 106.993 123.11C107.413 123.11 107.761 123.002 108.037 122.786C108.313 122.57 108.571 122.186 108.811 121.634L109.405 120.32L109.585 120.104L113.329 111.446H115.021L110.395 121.94C110.119 122.612 109.807 123.14 109.459 123.524C109.123 123.908 108.751 124.178 108.343 124.334C107.935 124.502 107.485 124.586 106.993 124.586ZM109.261 121.292L104.905 111.446H106.705L110.413 119.942L109.261 121.292Z" fill="#161616"/>
</svg>
