<svg width="186" height="126" viewBox="0 0 186 126" fill="none" xmlns="http://www.w3.org/2000/svg">
<path d="M132.313 38.2953H125.895C124.473 32.4225 121.431 27.0536 117.106 22.7844L94.3584 0.335889C94.126 0.120126 93.819 0 93.5 0C93.181 0 92.874 0.120126 92.6416 0.335889L75.158 17.5873C74.804 17.5873 74.4501 17.5349 74.0961 17.5349H54.6868C54.5276 17.5344 54.3697 17.565 54.2225 17.6249C54.0752 17.6847 53.9413 17.7727 53.8285 17.8837C53.7157 17.9948 53.6262 18.1267 53.5651 18.2719C53.5041 18.4172 53.4727 18.5729 53.4727 18.7302C53.475 21.9539 54.254 25.1308 55.7454 27.9986C57.2368 30.8663 59.3978 33.3427 62.0498 35.2232C48.8708 77.8379 110.465 97.8469 125.403 55.648C127.927 53.7531 129.974 51.308 131.383 48.5035C132.792 45.6989 133.526 42.6108 133.527 39.4801C133.524 39.1646 133.394 38.8632 133.167 38.6414C132.939 38.4196 132.633 38.2953 132.313 38.2953ZM93.4982 2.86279L115.392 24.476C119.255 28.2978 122.013 33.0686 123.382 38.2953H112.907C109.168 38.298 105.5 39.3039 102.296 41.2055C99.0908 43.1071 96.4696 45.8329 94.7124 49.0914V37.9073C94.7092 33.2149 93.0675 28.667 90.0638 25.0304C87.0602 21.3938 82.8785 18.891 78.2236 17.9438L93.4982 2.86279ZM55.9506 19.929H74.0925C77.7042 19.9356 81.2323 21.0024 84.2283 22.9939C87.2243 24.9854 89.5527 27.8116 90.9176 31.113C85.8733 26.5485 74.7616 27.0064 67.6322 27.1147C67.322 27.1313 67.03 27.2646 66.8163 27.4873C66.6027 27.71 66.4836 28.005 66.4836 28.3118C66.4836 28.6185 66.6027 28.9136 66.8163 29.1362C67.03 29.3589 67.322 29.4922 67.6322 29.5088H77.328C84.7122 29.5088 91.0345 32.6963 92.107 36.6946H74.0925C69.4807 36.6865 65.0437 34.9516 61.6767 31.84C58.3097 28.7285 56.2633 24.4718 55.9506 19.929ZM115.421 67.7024C91.9619 90.2243 54.2691 66.916 64.1738 36.5722C67.2092 38.2245 70.6193 39.0902 74.0854 39.0886H92.2805V71.428C92.2716 71.5907 92.2964 71.7534 92.3533 71.9063C92.4102 72.0592 92.498 72.199 92.6115 72.3172C92.7249 72.4355 92.8616 72.5296 93.0132 72.594C93.1647 72.6583 93.3279 72.6915 93.4929 72.6915C93.6579 72.6915 93.8211 72.6583 93.9727 72.594C94.1242 72.5296 94.2609 72.4355 94.3743 72.3172C94.4878 72.199 94.5757 72.0592 94.6326 71.9063C94.6895 71.7534 94.7142 71.5907 94.7053 71.428V59.8491H112.9C116.097 59.848 119.25 59.107 122.104 57.6856C120.569 61.4346 118.286 64.8408 115.392 67.7024H115.421ZM112.943 57.455H94.8894C95.9514 53.4567 102.284 50.2692 109.668 50.2692H119.371C119.682 50.2527 119.974 50.1193 120.187 49.8966C120.401 49.674 120.52 49.3789 120.52 49.0722C120.52 48.7654 120.401 48.4704 120.187 48.2477C119.974 48.025 119.682 47.8917 119.371 47.8751C112.27 47.7563 101.067 47.3194 96.0717 51.8699C97.4365 48.5676 99.7654 45.7409 102.762 43.7493C105.759 41.7577 109.288 40.6913 112.9 40.6859H131.053C130.74 45.2297 128.693 49.4872 125.326 52.5994C121.958 55.7116 117.52 57.4469 112.907 57.455H112.943ZM86.2025 69.338C80.8618 67.7069 76.2428 64.3289 73.1061 59.7601C69.9694 55.1912 68.502 49.704 68.9455 44.2019C68.9858 43.8974 69.1429 43.6198 69.3844 43.4264C69.6259 43.2329 69.9334 43.1383 70.2434 43.162C70.5535 43.1858 70.8425 43.3261 71.0508 43.554C71.2592 43.782 71.371 44.0802 71.3633 44.3871C70.9631 49.3504 72.288 54.3002 75.1194 58.4204C77.9508 62.5406 82.1197 65.5852 86.9388 67.0523C87.0913 67.1023 87.2323 67.1815 87.3538 67.2853C87.4752 67.3892 87.5748 67.5156 87.6468 67.6574C87.7188 67.7992 87.7618 67.9537 87.7733 68.1119C87.7848 68.2701 87.7647 68.4291 87.714 68.5796C87.6634 68.7301 87.5832 68.8694 87.478 68.9893C87.3728 69.1092 87.2448 69.2076 87.1011 69.2786C86.9575 69.3497 86.8011 69.3922 86.6408 69.4035C86.4805 69.4149 86.3196 69.395 86.1671 69.345L86.2025 69.338Z" fill="#161616"/>
<path d="M0.982 120.986L6.688 108.386H8.47L14.194 120.986H12.304L7.21 109.394H7.93L2.836 120.986H0.982ZM3.412 117.836L3.898 116.396H10.99L11.512 117.836H3.412ZM15.8216 120.986V107.63H17.5496V120.986H15.8216ZM22.8649 120.986L19.3189 111.446H20.9569L24.1069 120.086H23.3329L26.6089 111.446H28.0669L31.2709 120.086H30.5149L33.7369 111.446H35.2849L31.7209 120.986H30.0649L27.0589 113.102H27.5629L24.5209 120.986H22.8649ZM42.6616 120.986V118.97L42.5716 118.592V115.154C42.5716 114.422 42.3556 113.858 41.9236 113.462C41.5036 113.054 40.8676 112.85 40.0156 112.85C39.4516 112.85 38.8996 112.946 38.3596 113.138C37.8196 113.318 37.3636 113.564 36.9916 113.876L36.2716 112.58C36.7636 112.184 37.3516 111.884 38.0356 111.68C38.7316 111.464 39.4576 111.356 40.2136 111.356C41.5216 111.356 42.5296 111.674 43.2376 112.31C43.9456 112.946 44.2996 113.918 44.2996 115.226V120.986H42.6616ZM39.5296 121.094C38.8216 121.094 38.1976 120.974 37.6576 120.734C37.1296 120.494 36.7216 120.164 36.4336 119.744C36.1456 119.312 36.0016 118.826 36.0016 118.286C36.0016 117.77 36.1216 117.302 36.3616 116.882C36.6136 116.462 37.0156 116.126 37.5676 115.874C38.1316 115.622 38.8876 115.496 39.8356 115.496H42.8596V116.738H39.9076C39.0436 116.738 38.4616 116.882 38.1616 117.17C37.8616 117.458 37.7116 117.806 37.7116 118.214C37.7116 118.682 37.8976 119.06 38.2696 119.348C38.6416 119.624 39.1576 119.762 39.8176 119.762C40.4656 119.762 41.0296 119.618 41.5096 119.33C42.0016 119.042 42.3556 118.622 42.5716 118.07L42.9136 119.258C42.6856 119.822 42.2836 120.272 41.7076 120.608C41.1316 120.932 40.4056 121.094 39.5296 121.094ZM47.7356 124.586C47.2796 124.586 46.8356 124.508 46.4036 124.352C45.9716 124.208 45.5996 123.992 45.2876 123.704L46.0256 122.408C46.2656 122.636 46.5296 122.81 46.8176 122.93C47.1056 123.05 47.4116 123.11 47.7356 123.11C48.1556 123.11 48.5036 123.002 48.7796 122.786C49.0556 122.57 49.3136 122.186 49.5536 121.634L50.1476 120.32L50.3276 120.104L54.0716 111.446H55.7636L51.1376 121.94C50.8616 122.612 50.5496 123.14 50.2016 123.524C49.8656 123.908 49.4936 124.178 49.0856 124.334C48.6776 124.502 48.2276 124.586 47.7356 124.586ZM50.0036 121.292L45.6476 111.446H47.4476L51.1556 119.942L50.0036 121.292ZM59.9892 121.094C59.1972 121.094 58.4412 120.986 57.7212 120.77C57.0132 120.554 56.4552 120.29 56.0472 119.978L56.7672 118.61C57.1752 118.886 57.6792 119.12 58.2792 119.312C58.8792 119.504 59.4912 119.6 60.1152 119.6C60.9192 119.6 61.4952 119.486 61.8432 119.258C62.2032 119.03 62.3832 118.712 62.3832 118.304C62.3832 118.004 62.2752 117.77 62.0592 117.602C61.8432 117.434 61.5552 117.308 61.1952 117.224C60.8472 117.14 60.4572 117.068 60.0252 117.008C59.5932 116.936 59.1612 116.852 58.7292 116.756C58.2972 116.648 57.9012 116.504 57.5412 116.324C57.1812 116.132 56.8932 115.874 56.6772 115.55C56.4612 115.214 56.3532 114.77 56.3532 114.218C56.3532 113.642 56.5152 113.138 56.8392 112.706C57.1632 112.274 57.6192 111.944 58.2072 111.716C58.8072 111.476 59.5152 111.356 60.3312 111.356C60.9552 111.356 61.5852 111.434 62.2212 111.59C62.8692 111.734 63.3972 111.944 63.8052 112.22L63.0672 113.588C62.6352 113.3 62.1852 113.102 61.7172 112.994C61.2492 112.886 60.7812 112.832 60.3132 112.832C59.5572 112.832 58.9932 112.958 58.6212 113.21C58.2492 113.45 58.0632 113.762 58.0632 114.146C58.0632 114.47 58.1712 114.722 58.3872 114.902C58.6152 115.07 58.9032 115.202 59.2512 115.298C59.6112 115.394 60.0072 115.478 60.4392 115.55C60.8712 115.61 61.3032 115.694 61.7352 115.802C62.1672 115.898 62.5572 116.036 62.9052 116.216C63.2652 116.396 63.5532 116.648 63.7692 116.972C63.9972 117.296 64.1112 117.728 64.1112 118.268C64.1112 118.844 63.9432 119.342 63.6072 119.762C63.2712 120.182 62.7972 120.512 62.1852 120.752C61.5732 120.98 60.8412 121.094 59.9892 121.094ZM71.3568 120.986V110.6C71.3568 109.664 71.6268 108.92 72.1668 108.368C72.7188 107.804 73.4988 107.522 74.5068 107.522C74.8788 107.522 75.2328 107.57 75.5688 107.666C75.9168 107.75 76.2108 107.888 76.4508 108.08L75.9288 109.394C75.7488 109.25 75.5448 109.142 75.3168 109.07C75.0888 108.986 74.8488 108.944 74.5968 108.944C74.0928 108.944 73.7088 109.088 73.4448 109.376C73.1808 109.652 73.0488 110.066 73.0488 110.618V111.896L73.0848 112.688V120.986H71.3568ZM69.7368 112.868V111.446H75.8208V112.868H69.7368ZM77.4505 120.986V111.446H79.1065V114.038L78.9445 113.39C79.2085 112.73 79.6525 112.226 80.2765 111.878C80.9005 111.53 81.6685 111.356 82.5805 111.356V113.03C82.5085 113.018 82.4365 113.012 82.3645 113.012C82.3045 113.012 82.2445 113.012 82.1845 113.012C81.2605 113.012 80.5285 113.288 79.9885 113.84C79.4485 114.392 79.1785 115.19 79.1785 116.234V120.986H77.4505ZM88.8704 121.094C87.8504 121.094 86.9504 120.884 86.1704 120.464C85.4024 120.044 84.8024 119.468 84.3704 118.736C83.9504 118.004 83.7404 117.164 83.7404 116.216C83.7404 115.268 83.9444 114.428 84.3524 113.696C84.7724 112.964 85.3424 112.394 86.0624 111.986C86.7944 111.566 87.6164 111.356 88.5284 111.356C89.4524 111.356 90.2684 111.56 90.9764 111.968C91.6844 112.376 92.2364 112.952 92.6324 113.696C93.0404 114.428 93.2444 115.286 93.2444 116.27C93.2444 116.342 93.2384 116.426 93.2264 116.522C93.2264 116.618 93.2204 116.708 93.2084 116.792H85.0904V115.55H92.3084L91.6064 115.982C91.6184 115.37 91.4924 114.824 91.2284 114.344C90.9644 113.864 90.5984 113.492 90.1304 113.228C89.6744 112.952 89.1404 112.814 88.5284 112.814C87.9284 112.814 87.3944 112.952 86.9264 113.228C86.4584 113.492 86.0924 113.87 85.8284 114.362C85.5644 114.842 85.4324 115.394 85.4324 116.018V116.306C85.4324 116.942 85.5764 117.512 85.8644 118.016C86.1644 118.508 86.5784 118.892 87.1064 119.168C87.6344 119.444 88.2404 119.582 88.9244 119.582C89.4884 119.582 89.9984 119.486 90.4544 119.294C90.9224 119.102 91.3304 118.814 91.6784 118.43L92.6324 119.546C92.2004 120.05 91.6604 120.434 91.0124 120.698C90.3764 120.962 89.6624 121.094 88.8704 121.094ZM98.3799 121.094C97.5879 121.094 96.8319 120.986 96.1119 120.77C95.4039 120.554 94.8459 120.29 94.4379 119.978L95.1579 118.61C95.5659 118.886 96.0699 119.12 96.6699 119.312C97.2699 119.504 97.8819 119.6 98.5059 119.6C99.3099 119.6 99.8859 119.486 100.234 119.258C100.594 119.03 100.774 118.712 100.774 118.304C100.774 118.004 100.666 117.77 100.45 117.602C100.234 117.434 99.9459 117.308 99.5859 117.224C99.2379 117.14 98.8479 117.068 98.4159 117.008C97.9839 116.936 97.5519 116.852 97.1199 116.756C96.6879 116.648 96.2919 116.504 95.9319 116.324C95.5719 116.132 95.2839 115.874 95.0679 115.55C94.8519 115.214 94.7439 114.77 94.7439 114.218C94.7439 113.642 94.9059 113.138 95.2299 112.706C95.5539 112.274 96.0099 111.944 96.5979 111.716C97.1979 111.476 97.9059 111.356 98.7219 111.356C99.3459 111.356 99.9759 111.434 100.612 111.59C101.26 111.734 101.788 111.944 102.196 112.22L101.458 113.588C101.026 113.3 100.576 113.102 100.108 112.994C99.6399 112.886 99.1719 112.832 98.7039 112.832C97.9479 112.832 97.3839 112.958 97.0119 113.21C96.6399 113.45 96.4539 113.762 96.4539 114.146C96.4539 114.47 96.5619 114.722 96.7779 114.902C97.0059 115.07 97.2939 115.202 97.6419 115.298C98.0019 115.394 98.3979 115.478 98.8299 115.55C99.2619 115.61 99.6939 115.694 100.126 115.802C100.558 115.898 100.948 116.036 101.296 116.216C101.656 116.396 101.944 116.648 102.16 116.972C102.388 117.296 102.502 117.728 102.502 118.268C102.502 118.844 102.334 119.342 101.998 119.762C101.662 120.182 101.188 120.512 100.576 120.752C99.9639 120.98 99.2319 121.094 98.3799 121.094ZM109.755 111.356C110.535 111.356 111.219 111.506 111.807 111.806C112.407 112.106 112.875 112.562 113.211 113.174C113.547 113.786 113.715 114.56 113.715 115.496V120.986H111.987V115.694C111.987 114.77 111.759 114.074 111.303 113.606C110.859 113.138 110.229 112.904 109.413 112.904C108.801 112.904 108.267 113.024 107.811 113.264C107.355 113.504 107.001 113.858 106.749 114.326C106.509 114.794 106.389 115.376 106.389 116.072V120.986H104.661V107.63H106.389V114.02L106.047 113.336C106.359 112.712 106.839 112.226 107.487 111.878C108.135 111.53 108.891 111.356 109.755 111.356ZM121.999 120.986V110.6C121.999 109.664 122.269 108.92 122.809 108.368C123.361 107.804 124.141 107.522 125.149 107.522C125.521 107.522 125.875 107.57 126.211 107.666C126.559 107.75 126.853 107.888 127.093 108.08L126.571 109.394C126.391 109.25 126.187 109.142 125.959 109.07C125.731 108.986 125.491 108.944 125.239 108.944C124.735 108.944 124.351 109.088 124.087 109.376C123.823 109.652 123.691 110.066 123.691 110.618V111.896L123.727 112.688V120.986H121.999ZM120.379 112.868V111.446H126.463V112.868H120.379ZM128.101 120.986V107.63H129.829V120.986H128.101ZM137.206 121.094C136.246 121.094 135.394 120.884 134.65 120.464C133.906 120.044 133.318 119.468 132.886 118.736C132.454 117.992 132.238 117.152 132.238 116.216C132.238 115.268 132.454 114.428 132.886 113.696C133.318 112.964 133.906 112.394 134.65 111.986C135.394 111.566 136.246 111.356 137.206 111.356C138.154 111.356 139 111.566 139.744 111.986C140.5 112.394 141.088 112.964 141.508 113.696C141.94 114.416 142.156 115.256 142.156 116.216C142.156 117.164 141.94 118.004 141.508 118.736C141.088 119.468 140.5 120.044 139.744 120.464C139 120.884 138.154 121.094 137.206 121.094ZM137.206 119.582C137.818 119.582 138.364 119.444 138.844 119.168C139.336 118.892 139.72 118.502 139.996 117.998C140.272 117.482 140.41 116.888 140.41 116.216C140.41 115.532 140.272 114.944 139.996 114.452C139.72 113.948 139.336 113.558 138.844 113.282C138.364 113.006 137.818 112.868 137.206 112.868C136.594 112.868 136.048 113.006 135.568 113.282C135.088 113.558 134.704 113.948 134.416 114.452C134.128 114.944 133.984 115.532 133.984 116.216C133.984 116.888 134.128 117.482 134.416 117.998C134.704 118.502 135.088 118.892 135.568 119.168C136.048 119.444 136.594 119.582 137.206 119.582ZM146.299 120.986L142.753 111.446H144.391L147.541 120.086H146.767L150.043 111.446H151.501L154.705 120.086H153.949L157.171 111.446H158.719L155.155 120.986H153.499L150.493 113.102H150.997L147.955 120.986H146.299ZM164.456 121.094C163.436 121.094 162.536 120.884 161.756 120.464C160.988 120.044 160.388 119.468 159.956 118.736C159.536 118.004 159.326 117.164 159.326 116.216C159.326 115.268 159.53 114.428 159.938 113.696C160.358 112.964 160.928 112.394 161.648 111.986C162.38 111.566 163.202 111.356 164.114 111.356C165.038 111.356 165.854 111.56 166.562 111.968C167.27 112.376 167.822 112.952 168.218 113.696C168.626 114.428 168.83 115.286 168.83 116.27C168.83 116.342 168.824 116.426 168.812 116.522C168.812 116.618 168.806 116.708 168.794 116.792H160.676V115.55H167.894L167.192 115.982C167.204 115.37 167.078 114.824 166.814 114.344C166.55 113.864 166.184 113.492 165.716 113.228C165.26 112.952 164.726 112.814 164.114 112.814C163.514 112.814 162.98 112.952 162.512 113.228C162.044 113.492 161.678 113.87 161.414 114.362C161.15 114.842 161.018 115.394 161.018 116.018V116.306C161.018 116.942 161.162 117.512 161.45 118.016C161.75 118.508 162.164 118.892 162.692 119.168C163.22 119.444 163.826 119.582 164.51 119.582C165.074 119.582 165.584 119.486 166.04 119.294C166.508 119.102 166.916 118.814 167.264 118.43L168.218 119.546C167.786 120.05 167.246 120.434 166.598 120.698C165.962 120.962 165.248 121.094 164.456 121.094ZM171.23 120.986V111.446H172.886V114.038L172.724 113.39C172.988 112.73 173.432 112.226 174.056 111.878C174.68 111.53 175.448 111.356 176.36 111.356V113.03C176.288 113.018 176.216 113.012 176.144 113.012C176.084 113.012 176.024 113.012 175.964 113.012C175.04 113.012 174.308 113.288 173.768 113.84C173.228 114.392 172.958 115.19 172.958 116.234V120.986H171.23ZM181.331 121.094C180.539 121.094 179.783 120.986 179.063 120.77C178.355 120.554 177.797 120.29 177.389 119.978L178.109 118.61C178.517 118.886 179.021 119.12 179.621 119.312C180.221 119.504 180.833 119.6 181.457 119.6C182.261 119.6 182.837 119.486 183.185 119.258C183.545 119.03 183.725 118.712 183.725 118.304C183.725 118.004 183.617 117.77 183.401 117.602C183.185 117.434 182.897 117.308 182.537 117.224C182.189 117.14 181.799 117.068 181.367 117.008C180.935 116.936 180.503 116.852 180.071 116.756C179.639 116.648 179.243 116.504 178.883 116.324C178.523 116.132 178.235 115.874 178.019 115.55C177.803 115.214 177.695 114.77 177.695 114.218C177.695 113.642 177.857 113.138 178.181 112.706C178.505 112.274 178.961 111.944 179.549 111.716C180.149 111.476 180.857 111.356 181.673 111.356C182.297 111.356 182.927 111.434 183.563 111.59C184.211 111.734 184.739 111.944 185.147 112.22L184.409 113.588C183.977 113.3 183.527 113.102 183.059 112.994C182.591 112.886 182.123 112.832 181.655 112.832C180.899 112.832 180.335 112.958 179.963 113.21C179.591 113.45 179.405 113.762 179.405 114.146C179.405 114.47 179.513 114.722 179.729 114.902C179.957 115.07 180.245 115.202 180.593 115.298C180.953 115.394 181.349 115.478 181.781 115.55C182.213 115.61 182.645 115.694 183.077 115.802C183.509 115.898 183.899 116.036 184.247 116.216C184.607 116.396 184.895 116.648 185.111 116.972C185.339 117.296 185.453 117.728 185.453 118.268C185.453 118.844 185.285 119.342 184.949 119.762C184.613 120.182 184.139 120.512 183.527 120.752C182.915 120.98 182.183 121.094 181.331 121.094Z" fill="#161616"/>
</svg>
