<svg width="129" height="126" viewBox="0 0 129 126" fill="none" xmlns="http://www.w3.org/2000/svg">
<path d="M46.3188 15.5581V10.7729C46.3142 10.0336 46.0149 9.32581 45.4857 8.80271C44.9566 8.2796 44.2401 7.98322 43.4913 7.97769H35.4112C34.6587 7.98234 33.9387 8.28073 33.4082 8.80772C32.8778 9.33471 32.5801 10.0475 32.5801 10.7905V15.5581C32.5801 16.3041 32.8803 17.0195 33.4145 17.547C33.9488 18.0745 34.6734 18.3708 35.429 18.3708H43.4913C44.2432 18.3653 44.9623 18.0665 45.492 17.5396C46.0216 17.0127 46.3188 16.3004 46.3188 15.5581ZM35.0052 15.5581V10.7729C35.0052 10.6666 35.048 10.5646 35.1241 10.4895C35.2003 10.4143 35.3035 10.3721 35.4112 10.3721H43.4913C43.5984 10.373 43.7007 10.4156 43.7761 10.4907C43.8514 10.5658 43.8937 10.6672 43.8937 10.7729V15.5581C43.8937 15.6638 43.8514 15.7652 43.7761 15.8403C43.7007 15.9153 43.5984 15.958 43.4913 15.9589H35.4112C35.3038 15.958 35.2011 15.9155 35.1252 15.8405C35.0492 15.7655 35.0062 15.6641 35.0052 15.5581ZM40.7528 24.2882C40.9176 24.2794 41.0825 24.3038 41.2373 24.36C41.3922 24.4162 41.5339 24.5029 41.6537 24.615C41.7735 24.727 41.8689 24.8619 41.9341 25.0116C41.9993 25.1613 42.0329 25.3225 42.0329 25.4854C42.0329 25.6483 41.9993 25.8095 41.9341 25.9591C41.8689 26.1088 41.7735 26.2438 41.6537 26.3558C41.5339 26.4678 41.3922 26.5546 41.2373 26.6108C41.0825 26.6669 40.9176 26.6914 40.7528 26.6826H33.7945C33.4842 26.666 33.1923 26.5326 32.9786 26.3099C32.7649 26.0872 32.6459 25.7921 32.6459 25.4854C32.6459 25.1786 32.7649 24.8836 32.9786 24.6609C33.1923 24.4382 33.4842 24.3048 33.7945 24.2882H40.7528ZM46.5574 24.2882H53.5158C53.826 24.3048 54.118 24.4382 54.3317 24.6609C54.5453 24.8836 54.6644 25.1786 54.6644 25.4854C54.6644 25.7921 54.5453 26.0872 54.3317 26.3099C54.118 26.5326 53.826 26.666 53.5158 26.6826H46.5574C46.2472 26.666 45.9552 26.5326 45.7416 26.3099C45.5279 26.0872 45.4088 25.7921 45.4088 25.4854C45.4088 25.1786 45.5279 24.8836 45.7416 24.6609C45.9552 24.4382 46.2472 24.3048 46.5574 24.2882ZM59.3204 26.6826C59.0102 26.666 58.7182 26.5326 58.5045 26.3099C58.2909 26.0872 58.1718 25.7921 58.1718 25.4854C58.1718 25.1786 58.2909 24.8836 58.5045 24.6609C58.7182 24.4382 59.0102 24.3048 59.3204 24.2882H66.2823C66.5926 24.3048 66.8845 24.4382 67.0982 24.6609C67.3118 24.8836 67.4309 25.1786 67.4309 25.4854C67.4309 25.7921 67.3118 26.0872 67.0982 26.3099C66.8845 26.5326 66.5926 26.666 66.2823 26.6826H59.3204ZM79.0453 26.6826H72.0834C71.7731 26.666 71.4811 26.5326 71.2675 26.3099C71.0538 26.0872 70.9348 25.7921 70.9348 25.4854C70.9348 25.1786 71.0538 24.8836 71.2675 24.6609C71.4811 24.4382 71.7731 24.3048 72.0834 24.2882H79.0453C79.2101 24.2794 79.3749 24.3038 79.5298 24.36C79.6847 24.4162 79.8263 24.5029 79.9461 24.615C80.0659 24.727 80.1613 24.8619 80.2265 25.0116C80.2917 25.1613 80.3254 25.3225 80.3254 25.4854C80.3254 25.6483 80.2917 25.8095 80.2265 25.9591C80.1613 26.1088 80.0659 26.2438 79.9461 26.3558C79.8263 26.4678 79.6847 26.5546 79.5298 26.6108C79.3749 26.6669 79.2101 26.6914 79.0453 26.6826ZM46.9064 33.5633H33.7945C33.6297 33.5721 33.4648 33.5477 33.31 33.4915C33.1551 33.4353 33.0134 33.3485 32.8936 33.2365C32.7738 33.1245 32.6784 32.9895 32.6132 32.8399C32.548 32.6902 32.5144 32.529 32.5144 32.3661C32.5144 32.2032 32.548 32.042 32.6132 31.8923C32.6784 31.7427 32.7738 31.6077 32.8936 31.4957C33.0134 31.3836 33.1551 31.2969 33.31 31.2407C33.4648 31.1845 33.6297 31.1601 33.7945 31.1689H46.9064C47.2166 31.1855 47.5086 31.3189 47.7223 31.5416C47.9359 31.7643 48.055 32.0593 48.055 32.3661C48.055 32.6728 47.9359 32.9679 47.7223 33.1906C47.5086 33.4133 47.2166 33.5467 46.9064 33.5633ZM53.9716 31.1689H72.3682C72.6785 31.1855 72.9704 31.3189 73.1841 31.5416C73.3978 31.7643 73.5168 32.0593 73.5168 32.3661C73.5168 32.6728 73.3978 32.9679 73.1841 33.1906C72.9704 33.4133 72.6785 33.5467 72.3682 33.5633H53.9716C53.6614 33.5467 53.3694 33.4133 53.1558 33.1906C52.9421 32.9679 52.823 32.6728 52.823 32.3661C52.823 32.0593 52.9421 31.7643 53.1558 31.5416C53.3694 31.3189 53.6614 31.1855 53.9716 31.1689ZM75.007 7.96363C73.7684 7.96656 72.5715 8.40536 71.6311 9.20125C70.8686 8.56601 69.9381 8.15915 68.9492 8.02858C67.9603 7.898 66.9542 8.04916 66.0494 8.46423C65.1446 8.87931 64.3788 9.54102 63.8422 10.3714C63.3056 11.2018 63.0205 12.1664 63.0205 13.1514C63.0205 14.1365 63.3056 15.101 63.8422 15.9314C64.3788 16.7618 65.1446 17.4235 66.0494 17.8386C66.9542 18.2537 67.9603 18.4048 68.9492 18.2743C69.9381 18.1437 70.8686 17.7368 71.6311 17.1016C72.2766 17.6379 73.0436 18.0127 73.867 18.194C74.6905 18.3752 75.546 18.3578 76.3612 18.143C77.1763 17.9282 77.927 17.5225 78.5494 16.9602C79.1719 16.398 79.6478 15.6958 79.9368 14.9132C80.2258 14.1306 80.3194 13.2908 80.2095 12.4649C80.0997 11.639 79.7897 10.8515 79.3059 10.1691C78.8221 9.4867 78.1787 8.9296 77.4303 8.54505C76.682 8.1605 75.8507 7.95985 75.007 7.96011V7.96363ZM68.2694 15.9448C67.5764 15.8642 66.9375 15.5352 66.4738 15.0203C66.0101 14.5054 65.754 13.8404 65.754 13.1514C65.754 12.4624 66.0101 11.7974 66.4738 11.2825C66.9375 10.7676 67.5764 10.4386 68.2694 10.358C69.0217 10.358 69.7431 10.653 70.2751 11.1782C70.807 11.7034 71.1058 12.4157 71.1058 13.1584C71.1058 13.9012 70.807 14.6135 70.2751 15.1387C69.7431 15.6639 69.0217 15.9589 68.2694 15.9589V15.9448ZM75.007 15.9448C74.2954 15.9452 73.6099 15.6802 73.0876 15.203C73.3713 14.5553 73.5176 13.8571 73.5176 13.1514C73.5176 12.4457 73.3713 11.7476 73.0876 11.0999C73.427 10.8039 73.8338 10.5932 74.2734 10.4857C74.7129 10.3783 75.1723 10.3771 75.6124 10.4824C76.0525 10.5877 76.4603 10.7964 76.8013 11.0906C77.1422 11.3849 77.4062 11.7561 77.5707 12.1726C77.7353 12.5892 77.7955 13.0388 77.7464 13.4832C77.6973 13.9277 77.5402 14.3539 77.2885 14.7256C77.0368 15.0973 76.698 15.4035 76.3008 15.6182C75.9036 15.8329 75.4598 15.9498 75.007 15.9589V15.9448ZM30.5539 47.8697C27.5091 48.2213 24.5534 46.8149 24.5 43.4818V4.38791C24.5009 3.22445 24.9695 2.10891 25.8027 1.28622C26.636 0.463526 27.7658 0.000931141 28.9442 0L83.8955 0C85.0739 0.000931141 86.2038 0.463526 87.037 1.28622C87.8703 2.10891 88.3388 3.22445 88.3397 4.38791V34.7024C88.3229 35.0087 88.1879 35.297 87.9623 35.508C87.7367 35.7189 87.4379 35.8365 87.1272 35.8365C86.8165 35.8365 86.5177 35.7189 86.2921 35.508C86.0665 35.297 85.9315 35.0087 85.9146 34.7024V4.38791C85.9146 3.85919 85.7019 3.35212 85.3232 2.97826C84.9446 2.6044 84.431 2.39436 83.8955 2.39436H28.9442C28.4087 2.39436 27.8952 2.6044 27.5165 2.97826C27.1378 3.35212 26.9251 3.85919 26.9251 4.38791V43.4818C26.9928 45.5527 28.9905 45.5597 30.561 45.4753C30.8712 45.4928 31.1628 45.627 31.3758 45.8503C31.5888 46.0736 31.707 46.3691 31.7061 46.6758C31.7052 46.9826 31.5852 47.2773 31.3709 47.4994C31.1566 47.7215 30.8642 47.854 30.5539 47.8697ZM103.282 38.2957H35.4112C35.0891 38.2957 34.7803 38.4221 34.5525 38.6469C34.3248 38.8717 34.1969 39.1767 34.1969 39.4947V77.7869C34.1969 77.9444 34.2283 78.1003 34.2893 78.2457C34.3503 78.3912 34.4398 78.5234 34.5525 78.6347C34.6653 78.746 34.7992 78.8343 34.9465 78.8946C35.0938 78.9548 35.2517 78.9858 35.4112 78.9858H103.289C103.611 78.9849 103.919 78.8582 104.146 78.6334C104.373 78.4087 104.5 78.1043 104.5 77.7869V39.4947C104.5 39.3374 104.469 39.1816 104.409 39.0361C104.348 38.8907 104.259 38.7585 104.147 38.6471C104.034 38.5357 103.901 38.4474 103.753 38.3871C103.606 38.3268 103.449 38.2957 103.289 38.2957H103.282ZM102.068 76.5915H36.6077V40.6901H102.061L102.068 76.5915ZM42.683 67.0176C43.647 67.0185 44.5712 67.397 45.2529 68.07C45.9345 68.743 46.3179 69.6556 46.3188 70.6073C46.3188 70.9244 46.4464 71.2284 46.6735 71.4526C46.9005 71.6768 47.2085 71.8028 47.5296 71.8028H91.1673C91.4884 71.8028 91.7963 71.6768 92.0234 71.4526C92.2505 71.2284 92.378 70.9244 92.378 70.6073C92.3799 69.6558 92.7636 68.7438 93.445 68.071C94.1265 67.3982 95.0502 67.0194 96.0139 67.0176C96.3354 67.0176 96.6437 66.8917 96.8713 66.6676C97.0989 66.4436 97.2273 66.1395 97.2282 65.8221V51.4595C97.2273 51.1421 97.0989 50.838 96.8713 50.614C96.6437 50.3899 96.3354 50.264 96.0139 50.264C95.0502 50.2622 94.1265 49.8834 93.445 49.2106C92.7636 48.5378 92.3799 47.6258 92.378 46.6743C92.3785 46.517 92.3475 46.3611 92.2869 46.2157C92.2262 46.0703 92.1371 45.9381 92.0247 45.8267C91.9122 45.7153 91.7786 45.6269 91.6314 45.5666C91.4843 45.5064 91.3266 45.4753 91.1673 45.4753H47.5296C47.3703 45.4753 47.2126 45.5064 47.0654 45.5666C46.9183 45.6269 46.7847 45.7153 46.6722 45.8267C46.5597 45.9381 46.4706 46.0703 46.41 46.2157C46.3493 46.3611 46.3184 46.517 46.3188 46.6743C46.3202 47.1467 46.2273 47.6148 46.0452 48.0518C45.8632 48.4887 45.5956 48.8859 45.2579 49.2207C44.9202 49.5554 44.5189 49.8211 44.0771 50.0026C43.6352 50.184 43.1615 50.2776 42.683 50.2781C42.3615 50.2781 42.0532 50.4039 41.8255 50.628C41.5979 50.8521 41.4696 51.1562 41.4686 51.4735V65.8362C41.4733 66.1511 41.6033 66.4516 41.8305 66.6726C42.0577 66.8937 42.364 67.0176 42.683 67.0176ZM43.8937 52.5353C45.0576 52.2991 46.1258 51.7313 46.9663 50.902C47.8068 50.0728 48.3827 49.0186 48.6229 47.8697H90.0776C90.3145 49.0195 90.8889 50.075 91.7292 50.9047C92.5695 51.7343 93.6386 52.3015 94.8031 52.5353V64.7462C93.6386 64.9801 92.5695 65.5473 91.7292 66.3769C90.8889 67.2066 90.3145 68.2621 90.0776 69.4119H48.6229C48.3827 68.263 47.8068 67.2088 46.9663 66.3795C46.1258 65.5503 45.0576 64.9825 43.8937 64.7462V52.5353ZM55.3569 63.4348C56.62 63.401 57.8199 62.8818 58.7012 61.9878C59.5826 61.0937 60.0757 59.8954 60.0757 58.6478C60.0757 57.4002 59.5826 56.2019 58.7012 55.3079C57.8199 54.4138 56.62 53.8947 55.3569 53.8609C54.1113 53.9186 52.9361 54.4478 52.0753 55.3386C51.2145 56.2293 50.7342 57.4132 50.7342 58.6443C50.7342 59.8755 51.2145 61.0593 52.0753 61.9501C52.9361 62.8408 54.1113 63.37 55.3569 63.4278V63.4348ZM55.3569 56.2552C55.9835 56.2789 56.5765 56.5414 57.0113 56.9875C57.4462 57.4336 57.6891 58.0287 57.6891 58.6478C57.6891 59.267 57.4462 59.862 57.0113 60.3081C56.5765 60.7543 55.9835 61.0167 55.3569 61.0404C54.7303 61.0167 54.1373 60.7543 53.7025 60.3081C53.2676 59.862 53.0247 59.267 53.0247 58.6478C53.0247 58.0287 53.2676 57.4336 53.7025 56.9875C54.1373 56.5414 54.7303 56.2789 55.3569 56.2552ZM83.6391 63.4348C84.9022 63.401 86.1021 62.8818 86.9835 61.9878C87.8648 61.0937 88.3579 59.8954 88.3579 58.6478C88.3579 57.4002 87.8648 56.2019 86.9835 55.3079C86.1021 54.4138 84.9022 53.8947 83.6391 53.8609C82.3935 53.9186 81.2183 54.4478 80.3575 55.3386C79.4967 56.2293 79.0165 57.4132 79.0165 58.6443C79.0165 59.8755 79.4967 61.0593 80.3575 61.9501C81.2183 62.8408 82.3935 63.37 83.6391 63.4278V63.4348ZM83.6391 56.2552C84.2657 56.2789 84.8587 56.5414 85.2935 56.9875C85.7284 57.4336 85.9713 58.0287 85.9713 58.6478C85.9713 59.267 85.7284 59.862 85.2935 60.3081C84.8587 60.7543 84.2657 61.0167 83.6391 61.0404C83.0125 61.0167 82.4195 60.7543 81.9847 60.3081C81.5498 59.862 81.3069 59.267 81.3069 58.6478C81.3069 58.0287 81.5498 57.4336 81.9847 56.9875C82.4195 56.5414 83.0125 56.2789 83.6391 56.2552ZM68.1305 50.7176C68.0415 49.8316 68.1946 48.6748 69.3413 48.6748C70.488 48.6748 70.6411 49.8281 70.5521 50.7141C71.3196 50.8734 72.0372 51.212 72.645 51.7013C73.2528 52.1907 73.733 52.8167 74.0455 53.5268C74.1527 53.8162 74.1429 54.1353 74.0182 54.4178C73.8934 54.7002 73.6633 54.9244 73.3756 55.0438C73.0879 55.1633 72.7647 55.1687 72.473 55.0591C72.1813 54.9494 71.9436 54.7331 71.8091 54.4551C70.9474 52.1732 66.6562 52.7287 66.7203 55.2215C66.7203 56.7299 67.575 57.4647 69.3413 57.4647C70.5691 57.3062 71.8104 57.6357 72.7921 58.3808C73.7738 59.1259 74.4156 60.2255 74.5761 61.4377C74.7367 62.65 74.4029 63.8755 73.6483 64.8448C72.8936 65.8141 71.7799 66.4477 70.5521 66.6062C70.6411 67.4922 70.4844 68.6419 69.3413 68.6454C68.1982 68.6489 68.0415 67.4887 68.1305 66.6027C67.3662 66.441 66.652 66.1015 66.0474 65.6122C65.4429 65.1229 64.9655 64.4982 64.6549 63.7899C64.5298 63.4976 64.5274 63.1681 64.6483 62.874C64.7691 62.58 65.0034 62.3453 65.2995 62.2218C65.5956 62.0982 65.9292 62.0959 66.2271 62.2152C66.5249 62.3346 66.7626 62.5658 66.8877 62.8582C67.7495 65.1435 72.0442 64.5845 71.9801 62.0952C71.9801 60.608 71.0934 59.852 69.3413 59.852C68.1135 60.0106 66.8722 59.681 65.8905 58.936C64.9088 58.1909 64.2671 57.0912 64.1065 55.879C63.9459 54.6668 64.2797 53.4412 65.0344 52.472C65.789 51.5027 66.9027 50.8691 68.1305 50.7106V50.7176Z" fill="#161616"/>
<path d="M1.89 120.986V108.386H7.542C8.994 108.386 10.11 108.68 10.89 109.268C11.67 109.844 12.06 110.636 12.06 111.644C12.06 112.328 11.904 112.904 11.592 113.372C11.292 113.84 10.884 114.2 10.368 114.452C9.852 114.704 9.294 114.83 8.694 114.83L9.018 114.29C9.738 114.29 10.374 114.416 10.926 114.668C11.478 114.92 11.916 115.292 12.24 115.784C12.564 116.264 12.726 116.864 12.726 117.584C12.726 118.664 12.318 119.504 11.502 120.104C10.698 120.692 9.498 120.986 7.902 120.986H1.89ZM3.69 119.528H7.83C8.826 119.528 9.588 119.36 10.116 119.024C10.644 118.688 10.908 118.16 10.908 117.44C10.908 116.708 10.644 116.174 10.116 115.838C9.588 115.502 8.826 115.334 7.83 115.334H3.528V113.876H7.38C8.292 113.876 9 113.708 9.504 113.372C10.008 113.036 10.26 112.532 10.26 111.86C10.26 111.188 10.008 110.684 9.504 110.348C9 110.012 8.292 109.844 7.38 109.844H3.69V119.528ZM19.347 121.094C18.387 121.094 17.535 120.884 16.791 120.464C16.047 120.044 15.459 119.468 15.027 118.736C14.595 117.992 14.379 117.152 14.379 116.216C14.379 115.268 14.595 114.428 15.027 113.696C15.459 112.964 16.047 112.394 16.791 111.986C17.535 111.566 18.387 111.356 19.347 111.356C20.295 111.356 21.141 111.566 21.885 111.986C22.641 112.394 23.229 112.964 23.649 113.696C24.081 114.416 24.297 115.256 24.297 116.216C24.297 117.164 24.081 118.004 23.649 118.736C23.229 119.468 22.641 120.044 21.885 120.464C21.141 120.884 20.295 121.094 19.347 121.094ZM19.347 119.582C19.959 119.582 20.505 119.444 20.985 119.168C21.477 118.892 21.861 118.502 22.137 117.998C22.413 117.482 22.551 116.888 22.551 116.216C22.551 115.532 22.413 114.944 22.137 114.452C21.861 113.948 21.477 113.558 20.985 113.282C20.505 113.006 19.959 112.868 19.347 112.868C18.735 112.868 18.189 113.006 17.709 113.282C17.229 113.558 16.845 113.948 16.557 114.452C16.269 114.944 16.125 115.532 16.125 116.216C16.125 116.888 16.269 117.482 16.557 117.998C16.845 118.502 17.229 118.892 17.709 119.168C18.189 119.444 18.735 119.582 19.347 119.582ZM31.7808 111.356C32.5608 111.356 33.2448 111.506 33.8328 111.806C34.4328 112.106 34.9008 112.562 35.2368 113.174C35.5728 113.786 35.7408 114.56 35.7408 115.496V120.986H34.0128V115.694C34.0128 114.77 33.7848 114.074 33.3288 113.606C32.8848 113.138 32.2548 112.904 31.4388 112.904C30.8268 112.904 30.2928 113.024 29.8368 113.264C29.3808 113.504 29.0268 113.858 28.7748 114.326C28.5348 114.794 28.4148 115.376 28.4148 116.072V120.986H26.6868V111.446H28.3428V114.02L28.0728 113.336C28.3848 112.712 28.8648 112.226 29.5128 111.878C30.1608 111.53 30.9168 111.356 31.7808 111.356ZM42.9528 121.094C42.1368 121.094 41.4168 120.944 40.7928 120.644C40.1808 120.344 39.7008 119.888 39.3528 119.276C39.0168 118.652 38.8488 117.872 38.8488 116.936V111.446H40.5768V116.738C40.5768 117.674 40.7988 118.376 41.2428 118.844C41.6988 119.312 42.3348 119.546 43.1508 119.546C43.7508 119.546 44.2728 119.426 44.7168 119.186C45.1608 118.934 45.5028 118.574 45.7428 118.106C45.9828 117.626 46.1028 117.05 46.1028 116.378V111.446H47.8308V120.986H46.1928V118.412L46.4628 119.096C46.1508 119.732 45.6828 120.224 45.0588 120.572C44.4348 120.92 43.7328 121.094 42.9528 121.094ZM53.8564 121.094C53.0644 121.094 52.3084 120.986 51.5884 120.77C50.8804 120.554 50.3224 120.29 49.9144 119.978L50.6344 118.61C51.0424 118.886 51.5464 119.12 52.1464 119.312C52.7464 119.504 53.3584 119.6 53.9824 119.6C54.7864 119.6 55.3624 119.486 55.7104 119.258C56.0704 119.03 56.2504 118.712 56.2504 118.304C56.2504 118.004 56.1424 117.77 55.9264 117.602C55.7104 117.434 55.4224 117.308 55.0624 117.224C54.7144 117.14 54.3244 117.068 53.8924 117.008C53.4604 116.936 53.0284 116.852 52.5964 116.756C52.1644 116.648 51.7684 116.504 51.4084 116.324C51.0484 116.132 50.7604 115.874 50.5444 115.55C50.3284 115.214 50.2204 114.77 50.2204 114.218C50.2204 113.642 50.3824 113.138 50.7064 112.706C51.0304 112.274 51.4864 111.944 52.0744 111.716C52.6744 111.476 53.3824 111.356 54.1984 111.356C54.8224 111.356 55.4524 111.434 56.0884 111.59C56.7364 111.734 57.2644 111.944 57.6724 112.22L56.9344 113.588C56.5024 113.3 56.0524 113.102 55.5844 112.994C55.1164 112.886 54.6484 112.832 54.1804 112.832C53.4244 112.832 52.8604 112.958 52.4884 113.21C52.1164 113.45 51.9304 113.762 51.9304 114.146C51.9304 114.47 52.0384 114.722 52.2544 114.902C52.4824 115.07 52.7704 115.202 53.1184 115.298C53.4784 115.394 53.8744 115.478 54.3064 115.55C54.7384 115.61 55.1704 115.694 55.6024 115.802C56.0344 115.898 56.4244 116.036 56.7724 116.216C57.1324 116.396 57.4204 116.648 57.6364 116.972C57.8644 117.296 57.9784 117.728 57.9784 118.268C57.9784 118.844 57.8104 119.342 57.4744 119.762C57.1384 120.182 56.6644 120.512 56.0524 120.752C55.4404 120.98 54.7084 121.094 53.8564 121.094ZM67.708 121.094C66.916 121.094 66.16 120.986 65.44 120.77C64.732 120.554 64.174 120.29 63.766 119.978L64.486 118.61C64.894 118.886 65.398 119.12 65.998 119.312C66.598 119.504 67.21 119.6 67.834 119.6C68.638 119.6 69.214 119.486 69.562 119.258C69.922 119.03 70.102 118.712 70.102 118.304C70.102 118.004 69.994 117.77 69.778 117.602C69.562 117.434 69.274 117.308 68.914 117.224C68.566 117.14 68.176 117.068 67.744 117.008C67.312 116.936 66.88 116.852 66.448 116.756C66.016 116.648 65.62 116.504 65.26 116.324C64.9 116.132 64.612 115.874 64.396 115.55C64.18 115.214 64.072 114.77 64.072 114.218C64.072 113.642 64.234 113.138 64.558 112.706C64.882 112.274 65.338 111.944 65.926 111.716C66.526 111.476 67.234 111.356 68.05 111.356C68.674 111.356 69.304 111.434 69.94 111.59C70.588 111.734 71.116 111.944 71.524 112.22L70.786 113.588C70.354 113.3 69.904 113.102 69.436 112.994C68.968 112.886 68.5 112.832 68.032 112.832C67.276 112.832 66.712 112.958 66.34 113.21C65.968 113.45 65.782 113.762 65.782 114.146C65.782 114.47 65.89 114.722 66.106 114.902C66.334 115.07 66.622 115.202 66.97 115.298C67.33 115.394 67.726 115.478 68.158 115.55C68.59 115.61 69.022 115.694 69.454 115.802C69.886 115.898 70.276 116.036 70.624 116.216C70.984 116.396 71.272 116.648 71.488 116.972C71.716 117.296 71.83 117.728 71.83 118.268C71.83 118.844 71.662 119.342 71.326 119.762C70.99 120.182 70.516 120.512 69.904 120.752C69.292 120.98 68.56 121.094 67.708 121.094ZM74.2278 124.586C73.7718 124.586 73.3278 124.508 72.8958 124.352C72.4638 124.208 72.0918 123.992 71.7798 123.704L72.5178 122.408C72.7578 122.636 73.0218 122.81 73.3098 122.93C73.5978 123.05 73.9038 123.11 74.2278 123.11C74.6478 123.11 74.9958 123.002 75.2718 122.786C75.5478 122.57 75.8058 122.186 76.0458 121.634L76.6398 120.32L76.8198 120.104L80.5638 111.446H82.2558L77.6298 121.94C77.3538 122.612 77.0418 123.14 76.6938 123.524C76.3578 123.908 75.9858 124.178 75.5778 124.334C75.1698 124.502 74.7198 124.586 74.2278 124.586ZM76.4958 121.292L72.1398 111.446H73.9398L77.6478 119.942L76.4958 121.292ZM86.4814 121.094C85.6894 121.094 84.9334 120.986 84.2134 120.77C83.5054 120.554 82.9474 120.29 82.5394 119.978L83.2594 118.61C83.6674 118.886 84.1714 119.12 84.7714 119.312C85.3714 119.504 85.9834 119.6 86.6074 119.6C87.4114 119.6 87.9874 119.486 88.3354 119.258C88.6954 119.03 88.8754 118.712 88.8754 118.304C88.8754 118.004 88.7674 117.77 88.5514 117.602C88.3354 117.434 88.0474 117.308 87.6874 117.224C87.3394 117.14 86.9494 117.068 86.5174 117.008C86.0854 116.936 85.6534 116.852 85.2214 116.756C84.7894 116.648 84.3934 116.504 84.0334 116.324C83.6734 116.132 83.3854 115.874 83.1694 115.55C82.9534 115.214 82.8454 114.77 82.8454 114.218C82.8454 113.642 83.0074 113.138 83.3314 112.706C83.6554 112.274 84.1114 111.944 84.6994 111.716C85.2994 111.476 86.0074 111.356 86.8234 111.356C87.4474 111.356 88.0774 111.434 88.7134 111.59C89.3614 111.734 89.8894 111.944 90.2974 112.22L89.5594 113.588C89.1274 113.3 88.6774 113.102 88.2094 112.994C87.7414 112.886 87.2734 112.832 86.8054 112.832C86.0494 112.832 85.4854 112.958 85.1134 113.21C84.7414 113.45 84.5554 113.762 84.5554 114.146C84.5554 114.47 84.6634 114.722 84.8794 114.902C85.1074 115.07 85.3954 115.202 85.7434 115.298C86.1034 115.394 86.4994 115.478 86.9314 115.55C87.3634 115.61 87.7954 115.694 88.2274 115.802C88.6594 115.898 89.0494 116.036 89.3974 116.216C89.7574 116.396 90.0454 116.648 90.2614 116.972C90.4894 117.296 90.6034 117.728 90.6034 118.268C90.6034 118.844 90.4354 119.342 90.0994 119.762C89.7634 120.182 89.2894 120.512 88.6774 120.752C88.0654 120.98 87.3334 121.094 86.4814 121.094ZM96.039 121.094C95.079 121.094 94.335 120.836 93.807 120.32C93.279 119.804 93.015 119.066 93.015 118.106V109.358H94.743V118.034C94.743 118.55 94.869 118.946 95.121 119.222C95.385 119.498 95.757 119.636 96.237 119.636C96.777 119.636 97.227 119.486 97.587 119.186L98.127 120.428C97.863 120.656 97.545 120.824 97.173 120.932C96.813 121.04 96.435 121.094 96.039 121.094ZM91.395 112.868V111.446H97.479V112.868H91.395ZM104.148 121.094C103.128 121.094 102.228 120.884 101.448 120.464C100.68 120.044 100.08 119.468 99.6477 118.736C99.2277 118.004 99.0177 117.164 99.0177 116.216C99.0177 115.268 99.2217 114.428 99.6297 113.696C100.05 112.964 100.62 112.394 101.34 111.986C102.072 111.566 102.894 111.356 103.806 111.356C104.73 111.356 105.546 111.56 106.254 111.968C106.962 112.376 107.514 112.952 107.91 113.696C108.318 114.428 108.522 115.286 108.522 116.27C108.522 116.342 108.516 116.426 108.504 116.522C108.504 116.618 108.498 116.708 108.486 116.792H100.368V115.55H107.586L106.884 115.982C106.896 115.37 106.77 114.824 106.506 114.344C106.242 113.864 105.876 113.492 105.408 113.228C104.952 112.952 104.418 112.814 103.806 112.814C103.206 112.814 102.672 112.952 102.204 113.228C101.736 113.492 101.37 113.87 101.106 114.362C100.842 114.842 100.71 115.394 100.71 116.018V116.306C100.71 116.942 100.854 117.512 101.142 118.016C101.442 118.508 101.856 118.892 102.384 119.168C102.912 119.444 103.518 119.582 104.202 119.582C104.766 119.582 105.276 119.486 105.732 119.294C106.2 119.102 106.608 118.814 106.956 118.43L107.91 119.546C107.478 120.05 106.938 120.434 106.29 120.698C105.654 120.962 104.94 121.094 104.148 121.094ZM122.855 111.356C123.623 111.356 124.301 111.506 124.889 111.806C125.477 112.106 125.933 112.562 126.257 113.174C126.593 113.786 126.761 114.56 126.761 115.496V120.986H125.033V115.694C125.033 114.77 124.817 114.074 124.385 113.606C123.953 113.138 123.347 112.904 122.567 112.904C121.991 112.904 121.487 113.024 121.055 113.264C120.623 113.504 120.287 113.858 120.047 114.326C119.819 114.794 119.705 115.376 119.705 116.072V120.986H117.977V115.694C117.977 114.77 117.761 114.074 117.329 113.606C116.909 113.138 116.303 112.904 115.511 112.904C114.947 112.904 114.449 113.024 114.017 113.264C113.585 113.504 113.249 113.858 113.009 114.326C112.769 114.794 112.649 115.376 112.649 116.072V120.986H110.921V111.446H112.577V113.984L112.307 113.336C112.607 112.712 113.069 112.226 113.693 111.878C114.317 111.53 115.043 111.356 115.871 111.356C116.783 111.356 117.569 111.584 118.229 112.04C118.889 112.484 119.321 113.162 119.525 114.074L118.823 113.786C119.111 113.054 119.615 112.466 120.335 112.022C121.055 111.578 121.895 111.356 122.855 111.356Z" fill="#161616"/>
</svg>
