<svg width="1110" height="126" viewBox="0 0 1110 126" fill="none" xmlns="http://www.w3.org/2000/svg">
<path d="M111.477 64.224C111.476 63.2724 111.093 62.3601 110.412 61.6872C109.731 61.0143 108.807 60.6359 107.844 60.635C107.001 60.7714 91.9062 60.2852 91.7008 61.0163C92.3454 60.0578 92.0089 57.3433 92.0904 56.2449C92.0885 55.2927 91.7047 54.38 91.023 53.7066C90.3413 53.0333 89.4172 52.6542 88.4531 52.6524C88.1733 52.7188 72.2926 52.4565 72.6999 52.8762V47.0694H81.1751C84.0666 47.0657 86.8386 45.9293 88.883 43.9095C90.9273 41.8897 92.077 39.1514 92.0798 36.2954C92.0798 35.9787 91.9526 35.6749 91.7263 35.4507C91.4999 35.2264 91.1927 35.1 90.8721 35.099H81.1751C79.5493 35.0995 77.9442 35.4595 76.4777 36.1526C75.0111 36.8456 73.7203 37.8542 72.6999 39.1043V31.0588C76.759 30.7494 80.5391 28.8993 83.2469 25.8966C85.9548 22.8939 87.3798 18.9719 87.2231 14.9538C87.0664 10.9357 85.3401 7.13366 82.4065 4.34556C79.4728 1.55746 75.5599 0 71.4887 0C67.4175 0 63.5045 1.55746 60.5708 4.34556C57.6372 7.13366 55.9109 10.9357 55.7542 14.9538C55.5975 18.9719 57.0226 22.8939 59.7304 25.8966C62.4382 28.8993 66.2183 30.7494 70.2774 31.0588V47.1079C69.256 45.8518 67.9618 44.8385 66.4906 44.1428C65.0193 43.4471 63.4086 43.0869 61.7775 43.0886H52.0982C51.7769 43.0886 51.4689 43.2147 51.2417 43.439C51.0146 43.6634 50.8869 43.9677 50.8869 44.285C50.8907 47.1404 52.0408 49.8778 54.085 51.8968C56.1292 53.9159 58.9007 55.0518 61.7917 55.0555H70.2916V60.8588C70.8158 60.4356 54.7367 60.7119 54.5384 60.6385C53.5749 60.6394 52.6512 61.0178 51.97 61.6907C51.2887 62.3636 50.9056 63.2759 50.9046 64.2275C50.9932 65.3329 50.6461 68.0299 51.2907 68.9988C51.1384 68.2538 35.9341 68.7505 35.1479 68.6176C34.6699 68.6162 34.1964 68.7079 33.7543 68.8873C33.3123 69.0668 32.9104 69.3306 32.5716 69.6636C32.2328 69.9966 31.9638 70.3923 31.7799 70.828C31.596 71.2637 31.5009 71.731 31.5 72.2031V75.3968C31.5019 76.3481 31.8853 77.2599 32.5664 77.9326C33.2474 78.6053 34.1706 78.984 35.1337 78.9858H49.6757C50.5728 78.9837 51.4368 78.6506 52.0982 78.0519C52.7617 78.6494 53.6263 78.9822 54.5242 78.9858H69.0662C69.9632 78.983 70.8269 78.65 71.4887 78.0519C72.1508 78.6494 73.0143 78.9823 73.9111 78.9858H88.4531C89.3501 78.983 90.2139 78.65 90.8756 78.0519C91.5392 78.6494 92.4037 78.9822 93.3016 78.9858H107.844C108.807 78.984 109.73 78.6053 110.411 77.9326C111.092 77.2599 111.475 76.3481 111.477 75.3968C111.392 73.8332 111.881 70.9788 110.532 69.7999C111.87 68.6455 111.407 65.7876 111.477 64.224ZM81.1751 37.4952H89.5829C89.2881 39.4881 88.2778 41.3098 86.7363 42.6282C85.1947 43.9465 83.2248 44.6736 81.1857 44.6768H72.7778C73.0726 42.6839 74.083 40.8622 75.6245 39.5438C77.166 38.2255 79.136 37.4984 81.1751 37.4952ZM61.7917 52.6559C59.7521 52.6516 57.7821 51.9232 56.2412 50.6035C54.7003 49.2838 53.6911 47.4608 53.398 45.4673H61.7917C63.8307 45.4705 65.8007 46.1976 67.3422 47.5159C68.8838 48.8343 69.8941 50.656 70.1889 52.6489L61.7917 52.6559ZM50.8905 75.3933C50.8895 75.7109 50.7611 76.0152 50.5334 76.2395C50.3057 76.4637 49.9973 76.5897 49.6757 76.5897H35.1337C33.2814 76.5652 34.0712 73.7667 33.926 72.1996C33.926 71.8829 34.0531 71.5791 34.2795 71.3549C34.5059 71.1306 34.8131 71.0042 35.1337 71.0032H49.6757C51.5315 71.0312 50.7276 73.8297 50.8905 75.3933ZM70.2774 75.3933C70.2765 75.7103 70.1486 76.0141 69.9216 76.2382C69.6947 76.4624 69.3871 76.5887 69.0662 76.5897H54.5207C52.6648 76.5652 53.4582 73.7702 53.3094 72.1996C53.3104 71.8826 53.4383 71.5788 53.6652 71.3547C53.8922 71.1305 54.1997 71.0042 54.5207 71.0032H69.0626C70.9185 71.0312 70.1039 73.8297 70.2774 75.3933ZM70.2774 67.4142C70.2765 67.7312 70.1486 68.035 69.9216 68.2591C69.6947 68.4833 69.3871 68.6096 69.0662 68.6106H54.5207C52.6648 68.5861 53.4582 65.7841 53.3094 64.2205C53.3113 63.9041 53.4396 63.6012 53.6665 63.3778C53.8933 63.1544 54.2003 63.0286 54.5207 63.0276H69.0626C70.9185 63.0521 70.1039 65.8506 70.2774 67.4142ZM58.1579 15.5518C58.1579 12.0598 59.5624 8.71077 62.0624 6.24153C64.5624 3.77228 67.9531 2.38508 71.4887 2.38508C75.0242 2.38508 78.4149 3.77228 80.9149 6.24153C83.4149 8.71077 84.8194 12.0598 84.8194 15.5518C84.8194 19.0439 83.4149 22.3929 80.9149 24.8621C78.4149 27.3314 75.0242 28.7186 71.4887 28.7186C67.9531 28.7186 64.5624 27.3314 62.0624 24.8621C59.5624 22.3929 58.1579 19.0439 58.1579 15.5518ZM89.6785 75.3968C89.6776 75.7144 89.5492 76.0187 89.3215 76.243C89.0938 76.4672 88.7853 76.5932 88.4637 76.5932H73.9111C72.0589 76.5687 72.8664 73.7702 72.6999 72.2031C72.7008 71.8861 72.8288 71.5823 73.0557 71.3582C73.2827 71.134 73.5902 71.0077 73.9111 71.0067H88.4531C90.3089 71.0312 89.5014 73.8332 89.6679 75.3968H89.6785ZM89.6785 67.4177C89.6776 67.7353 89.5492 68.0396 89.3215 68.2639C89.0938 68.4881 88.7853 68.6141 88.4637 68.6141H73.9111C72.0589 68.5896 72.8664 65.7876 72.6999 64.224C72.7008 63.907 72.8288 63.6032 73.0557 63.3791C73.2827 63.1549 73.5902 63.0286 73.9111 63.0276H88.4531C90.3089 63.0521 89.5014 65.8541 89.6679 67.4177H89.6785ZM89.6785 59.4386C89.6776 59.7562 89.5492 60.0605 89.3215 60.2848C89.0938 60.509 88.7853 60.635 88.4637 60.635H73.9111C72.0589 60.6105 72.8664 57.8085 72.6999 56.2449C72.6999 55.9276 72.8275 55.6233 73.0547 55.3989C73.2818 55.1746 73.5899 55.0485 73.9111 55.0485H88.4531C90.3089 55.073 89.5014 57.8715 89.6679 59.4386H89.6785ZM109.062 75.3968C109.061 75.7138 108.933 76.0176 108.706 76.2417C108.479 76.4659 108.172 76.5922 107.851 76.5932H93.3016C91.4458 76.5687 92.2391 73.7737 92.0904 72.2031C92.0904 71.8858 92.218 71.5815 92.4452 71.3571C92.6723 71.1328 92.9804 71.0067 93.3016 71.0067H107.844C109.696 71.0312 108.892 73.8367 109.062 75.3968ZM109.062 67.4177C109.061 67.7347 108.933 68.0385 108.706 68.2626C108.479 68.4868 108.172 68.6131 107.851 68.6141H93.3016C91.4458 68.5896 92.2391 65.7876 92.0904 64.224C92.0904 63.9067 92.218 63.6024 92.4452 63.378C92.6723 63.1537 92.9804 63.0276 93.3016 63.0276H107.844C109.696 63.0521 108.892 65.8541 109.062 67.4177ZM76.5426 18.9939C76.5118 20.0623 76.1144 21.0886 75.4155 21.9047C74.7167 22.7208 73.7579 23.2781 72.6964 23.4854C72.7814 24.3705 72.6291 25.5213 71.4816 25.5248C70.3341 25.5283 70.1818 24.3705 70.2703 23.4854C69.5076 23.3255 68.7945 22.9882 68.1903 22.5015C67.586 22.0148 67.108 21.3928 66.796 20.687C66.6861 20.3976 66.694 20.0774 66.8179 19.7935C66.9418 19.5097 67.1721 19.2842 67.4605 19.1643C67.749 19.0445 68.0732 19.0396 68.3653 19.1506C68.6574 19.2617 68.8946 19.48 69.0272 19.76C69.8914 22.0372 74.1839 21.481 74.1201 18.9939C74.1201 17.5037 73.2312 16.7482 71.4816 16.7482C70.2853 16.8491 69.0957 16.4905 68.1603 15.7471C67.2249 15.0036 66.6158 13.9325 66.4598 12.7567C66.3037 11.5809 66.6127 10.3909 67.3225 9.43446C68.0323 8.47799 69.0881 7.82869 70.2703 7.62169C70.1818 6.73318 70.3341 5.57882 71.4816 5.57882C72.6291 5.57882 72.7849 6.72968 72.6964 7.61819C74.3786 7.85256 77.7503 10.5601 75.5297 11.9838C75.383 12.0452 75.2255 12.0774 75.0662 12.0784C74.9069 12.0795 74.7489 12.0494 74.6015 11.9899C74.454 11.9304 74.3199 11.8427 74.2069 11.7317C74.0939 11.6208 74.0042 11.4889 73.943 11.3436C73.0824 9.0629 68.7864 9.62259 68.8501 12.1097C68.8501 13.6209 69.7108 14.3555 71.4745 14.3555C72.1256 14.2861 72.7842 14.3555 73.4058 14.5589C74.0274 14.7624 74.5976 15.0951 75.078 15.5348C75.5583 15.9744 75.9376 16.5107 76.1903 17.1074C76.4429 17.7041 76.5631 18.3474 76.5426 18.9939ZM63.7927 15.5518C63.7927 15.8691 63.6651 16.1734 63.4379 16.3978C63.2108 16.6221 62.9027 16.7482 62.5814 16.7482C62.2602 16.7482 61.9521 16.6221 61.725 16.3978C61.4978 16.1734 61.3702 15.8691 61.3702 15.5518C61.3702 15.2327 61.4986 14.9266 61.727 14.7009C61.9555 14.4753 62.2654 14.3485 62.5885 14.3485C62.9116 14.3485 63.2215 14.4753 63.45 14.7009C63.6785 14.9266 63.8068 15.2327 63.8068 15.5518H63.7927ZM80.3746 16.7482C80.0534 16.7482 79.7453 16.6221 79.5182 16.3978C79.291 16.1734 79.1634 15.8691 79.1634 15.5518C79.1634 15.2345 79.291 14.9302 79.5182 14.7059C79.7453 14.4815 80.0534 14.3555 80.3746 14.3555C80.6959 14.3555 81.004 14.4815 81.2311 14.7059C81.4583 14.9302 81.5859 15.2345 81.5859 15.5518C81.5859 15.8691 81.4583 16.1734 81.2311 16.3978C81.004 16.6221 80.6959 16.7482 80.3746 16.7482Z" fill="#161616"/>
<path d="M6.392 120.986V109.952H2.072V108.386H12.494V109.952H8.174V120.986H6.392ZM19.2965 111.356C20.0765 111.356 20.7605 111.506 21.3485 111.806C21.9485 112.106 22.4165 112.562 22.7525 113.174C23.0885 113.786 23.2565 114.56 23.2565 115.496V120.986H21.5285V115.694C21.5285 114.77 21.3005 114.074 20.8445 113.606C20.4005 113.138 19.7705 112.904 18.9545 112.904C18.3425 112.904 17.8085 113.024 17.3525 113.264C16.8965 113.504 16.5425 113.858 16.2905 114.326C16.0505 114.794 15.9305 115.376 15.9305 116.072V120.986H14.2025V107.63H15.9305V114.02L15.5885 113.336C15.9005 112.712 16.3805 112.226 17.0285 111.878C17.6765 111.53 18.4325 111.356 19.2965 111.356ZM30.7024 121.094C29.6824 121.094 28.7824 120.884 28.0024 120.464C27.2344 120.044 26.6344 119.468 26.2024 118.736C25.7824 118.004 25.5724 117.164 25.5724 116.216C25.5724 115.268 25.7764 114.428 26.1844 113.696C26.6044 112.964 27.1744 112.394 27.8944 111.986C28.6264 111.566 29.4484 111.356 30.3604 111.356C31.2844 111.356 32.1004 111.56 32.8084 111.968C33.5164 112.376 34.0684 112.952 34.4644 113.696C34.8724 114.428 35.0764 115.286 35.0764 116.27C35.0764 116.342 35.0704 116.426 35.0584 116.522C35.0584 116.618 35.0524 116.708 35.0404 116.792H26.9224V115.55H34.1404L33.4384 115.982C33.4504 115.37 33.3244 114.824 33.0604 114.344C32.7964 113.864 32.4304 113.492 31.9624 113.228C31.5064 112.952 30.9724 112.814 30.3604 112.814C29.7604 112.814 29.2264 112.952 28.7584 113.228C28.2904 113.492 27.9244 113.87 27.6604 114.362C27.3964 114.842 27.2644 115.394 27.2644 116.018V116.306C27.2644 116.942 27.4084 117.512 27.6964 118.016C27.9964 118.508 28.4104 118.892 28.9384 119.168C29.4664 119.444 30.0724 119.582 30.7564 119.582C31.3204 119.582 31.8304 119.486 32.2864 119.294C32.7544 119.102 33.1624 118.814 33.5104 118.43L34.4644 119.546C34.0324 120.05 33.4924 120.434 32.8444 120.698C32.2084 120.962 31.4944 121.094 30.7024 121.094ZM47.3679 121.094C46.5519 121.094 45.8139 120.914 45.1539 120.554C44.5059 120.182 43.9899 119.636 43.6059 118.916C43.2339 118.196 43.0479 117.296 43.0479 116.216C43.0479 115.136 43.2399 114.236 43.6239 113.516C44.0199 112.796 44.5419 112.256 45.1899 111.896C45.8499 111.536 46.5759 111.356 47.3679 111.356C48.3039 111.356 49.1319 111.56 49.8519 111.968C50.5719 112.376 51.1419 112.946 51.5619 113.678C51.9819 114.398 52.1919 115.244 52.1919 116.216C52.1919 117.188 51.9819 118.04 51.5619 118.772C51.1419 119.504 50.5719 120.074 49.8519 120.482C49.1319 120.89 48.3039 121.094 47.3679 121.094ZM42.3099 120.986V107.63H44.0379V113.984L43.8579 116.198L43.9659 118.412V120.986H42.3099ZM47.2239 119.582C47.8359 119.582 48.3819 119.444 48.8619 119.168C49.3539 118.892 49.7379 118.502 50.0139 117.998C50.3019 117.482 50.4459 116.888 50.4459 116.216C50.4459 115.532 50.3019 114.944 50.0139 114.452C49.7379 113.948 49.3539 113.558 48.8619 113.282C48.3819 113.006 47.8359 112.868 47.2239 112.868C46.6239 112.868 46.0779 113.006 45.5859 113.282C45.1059 113.558 44.7219 113.948 44.4339 114.452C44.1579 114.944 44.0199 115.532 44.0199 116.216C44.0199 116.888 44.1579 117.482 44.4339 117.998C44.7219 118.502 45.1059 118.892 45.5859 119.168C46.0779 119.444 46.6239 119.582 47.2239 119.582ZM58.8274 121.094C57.8074 121.094 56.9074 120.884 56.1274 120.464C55.3594 120.044 54.7594 119.468 54.3274 118.736C53.9074 118.004 53.6974 117.164 53.6974 116.216C53.6974 115.268 53.9014 114.428 54.3094 113.696C54.7294 112.964 55.2994 112.394 56.0194 111.986C56.7514 111.566 57.5734 111.356 58.4854 111.356C59.4094 111.356 60.2254 111.56 60.9334 111.968C61.6414 112.376 62.1934 112.952 62.5894 113.696C62.9974 114.428 63.2014 115.286 63.2014 116.27C63.2014 116.342 63.1954 116.426 63.1834 116.522C63.1834 116.618 63.1774 116.708 63.1654 116.792H55.0474V115.55H62.2654L61.5634 115.982C61.5754 115.37 61.4494 114.824 61.1854 114.344C60.9214 113.864 60.5554 113.492 60.0874 113.228C59.6314 112.952 59.0974 112.814 58.4854 112.814C57.8854 112.814 57.3514 112.952 56.8834 113.228C56.4154 113.492 56.0494 113.87 55.7854 114.362C55.5214 114.842 55.3894 115.394 55.3894 116.018V116.306C55.3894 116.942 55.5334 117.512 55.8214 118.016C56.1214 118.508 56.5354 118.892 57.0634 119.168C57.5914 119.444 58.1974 119.582 58.8814 119.582C59.4454 119.582 59.9554 119.486 60.4114 119.294C60.8794 119.102 61.2874 118.814 61.6354 118.43L62.5894 119.546C62.1574 120.05 61.6174 120.434 60.9694 120.698C60.3334 120.962 59.6194 121.094 58.8274 121.094ZM68.3369 121.094C67.5449 121.094 66.7889 120.986 66.0689 120.77C65.3609 120.554 64.8029 120.29 64.3949 119.978L65.1149 118.61C65.5229 118.886 66.0269 119.12 66.6269 119.312C67.2269 119.504 67.8389 119.6 68.4629 119.6C69.2669 119.6 69.8429 119.486 70.1909 119.258C70.5509 119.03 70.7309 118.712 70.7309 118.304C70.7309 118.004 70.6229 117.77 70.4069 117.602C70.1909 117.434 69.9029 117.308 69.5429 117.224C69.1949 117.14 68.8049 117.068 68.3729 117.008C67.9409 116.936 67.5089 116.852 67.0769 116.756C66.6449 116.648 66.2489 116.504 65.8889 116.324C65.5289 116.132 65.2409 115.874 65.0249 115.55C64.8089 115.214 64.7009 114.77 64.7009 114.218C64.7009 113.642 64.8629 113.138 65.1869 112.706C65.5109 112.274 65.9669 111.944 66.5549 111.716C67.1549 111.476 67.8629 111.356 68.6789 111.356C69.3029 111.356 69.9329 111.434 70.5689 111.59C71.2169 111.734 71.7449 111.944 72.1529 112.22L71.4149 113.588C70.9829 113.3 70.5329 113.102 70.0649 112.994C69.5969 112.886 69.1289 112.832 68.6609 112.832C67.9049 112.832 67.3409 112.958 66.9689 113.21C66.5969 113.45 66.4109 113.762 66.4109 114.146C66.4109 114.47 66.5189 114.722 66.7349 114.902C66.9629 115.07 67.2509 115.202 67.5989 115.298C67.9589 115.394 68.3549 115.478 68.7869 115.55C69.2189 115.61 69.6509 115.694 70.0829 115.802C70.5149 115.898 70.9049 116.036 71.2529 116.216C71.6129 116.396 71.9009 116.648 72.1169 116.972C72.3449 117.296 72.4589 117.728 72.4589 118.268C72.4589 118.844 72.2909 119.342 71.9549 119.762C71.6189 120.182 71.1449 120.512 70.5329 120.752C69.9209 120.98 69.1889 121.094 68.3369 121.094ZM77.8945 121.094C76.9345 121.094 76.1905 120.836 75.6625 120.32C75.1345 119.804 74.8705 119.066 74.8705 118.106V109.358H76.5985V118.034C76.5985 118.55 76.7245 118.946 76.9765 119.222C77.2405 119.498 77.6125 119.636 78.0925 119.636C78.6325 119.636 79.0825 119.486 79.4425 119.186L79.9825 120.428C79.7185 120.656 79.4005 120.824 79.0285 120.932C78.6685 121.04 78.2905 121.094 77.8945 121.094ZM73.2505 112.868V111.446H79.3345V112.868H73.2505ZM91.9636 121.094C91.1716 121.094 90.4456 120.914 89.7856 120.554C89.1376 120.182 88.6156 119.636 88.2196 118.916C87.8356 118.196 87.6436 117.296 87.6436 116.216C87.6436 115.136 87.8296 114.236 88.2016 113.516C88.5856 112.796 89.1016 112.256 89.7496 111.896C90.4096 111.536 91.1476 111.356 91.9636 111.356C92.8996 111.356 93.7276 111.56 94.4476 111.968C95.1676 112.376 95.7376 112.946 96.1576 113.678C96.5776 114.398 96.7876 115.244 96.7876 116.216C96.7876 117.188 96.5776 118.04 96.1576 118.772C95.7376 119.504 95.1676 120.074 94.4476 120.482C93.7276 120.89 92.8996 121.094 91.9636 121.094ZM86.9056 124.478V111.446H88.5616V114.02L88.4536 116.234L88.6336 118.448V124.478H86.9056ZM91.8196 119.582C92.4316 119.582 92.9776 119.444 93.4576 119.168C93.9496 118.892 94.3336 118.502 94.6096 117.998C94.8976 117.482 95.0416 116.888 95.0416 116.216C95.0416 115.532 94.8976 114.944 94.6096 114.452C94.3336 113.948 93.9496 113.558 93.4576 113.282C92.9776 113.006 92.4316 112.868 91.8196 112.868C91.2196 112.868 90.6736 113.006 90.1816 113.282C89.7016 113.558 89.3176 113.948 89.0296 114.452C88.7536 114.944 88.6156 115.532 88.6156 116.216C88.6156 116.888 88.7536 117.482 89.0296 117.998C89.3176 118.502 89.7016 118.892 90.1816 119.168C90.6736 119.444 91.2196 119.582 91.8196 119.582ZM99.1751 120.986V111.446H100.831V114.038L100.669 113.39C100.933 112.73 101.377 112.226 102.001 111.878C102.625 111.53 103.393 111.356 104.305 111.356V113.03C104.233 113.018 104.161 113.012 104.089 113.012C104.029 113.012 103.969 113.012 103.909 113.012C102.985 113.012 102.253 113.288 101.713 113.84C101.173 114.392 100.903 115.19 100.903 116.234V120.986H99.1751ZM106.435 120.986V111.446H108.163V120.986H106.435ZM107.299 109.61C106.963 109.61 106.681 109.502 106.453 109.286C106.237 109.07 106.129 108.806 106.129 108.494C106.129 108.17 106.237 107.9 106.453 107.684C106.681 107.468 106.963 107.36 107.299 107.36C107.635 107.36 107.911 107.468 108.127 107.684C108.355 107.888 108.469 108.146 108.469 108.458C108.469 108.782 108.361 109.058 108.145 109.286C107.929 109.502 107.647 109.61 107.299 109.61ZM115.62 121.094C114.648 121.094 113.778 120.884 113.01 120.464C112.254 120.044 111.66 119.468 111.228 118.736C110.796 118.004 110.58 117.164 110.58 116.216C110.58 115.268 110.796 114.428 111.228 113.696C111.66 112.964 112.254 112.394 113.01 111.986C113.778 111.566 114.648 111.356 115.62 111.356C116.484 111.356 117.252 111.53 117.924 111.878C118.608 112.214 119.136 112.718 119.508 113.39L118.194 114.236C117.882 113.768 117.498 113.426 117.042 113.21C116.598 112.982 116.118 112.868 115.602 112.868C114.978 112.868 114.42 113.006 113.928 113.282C113.436 113.558 113.046 113.948 112.758 114.452C112.47 114.944 112.326 115.532 112.326 116.216C112.326 116.9 112.47 117.494 112.758 117.998C113.046 118.502 113.436 118.892 113.928 119.168C114.42 119.444 114.978 119.582 115.602 119.582C116.118 119.582 116.598 119.474 117.042 119.258C117.498 119.03 117.882 118.682 118.194 118.214L119.508 119.042C119.136 119.702 118.608 120.212 117.924 120.572C117.252 120.92 116.484 121.094 115.62 121.094ZM125.853 121.094C124.833 121.094 123.933 120.884 123.153 120.464C122.385 120.044 121.785 119.468 121.353 118.736C120.933 118.004 120.723 117.164 120.723 116.216C120.723 115.268 120.927 114.428 121.335 113.696C121.755 112.964 122.325 112.394 123.045 111.986C123.777 111.566 124.599 111.356 125.511 111.356C126.435 111.356 127.251 111.56 127.959 111.968C128.667 112.376 129.219 112.952 129.615 113.696C130.023 114.428 130.227 115.286 130.227 116.27C130.227 116.342 130.221 116.426 130.209 116.522C130.209 116.618 130.203 116.708 130.191 116.792H122.073V115.55H129.291L128.589 115.982C128.601 115.37 128.475 114.824 128.211 114.344C127.947 113.864 127.581 113.492 127.113 113.228C126.657 112.952 126.123 112.814 125.511 112.814C124.911 112.814 124.377 112.952 123.909 113.228C123.441 113.492 123.075 113.87 122.811 114.362C122.547 114.842 122.415 115.394 122.415 116.018V116.306C122.415 116.942 122.559 117.512 122.847 118.016C123.147 118.508 123.561 118.892 124.089 119.168C124.617 119.444 125.223 119.582 125.907 119.582C126.471 119.582 126.981 119.486 127.437 119.294C127.905 119.102 128.313 118.814 128.661 118.43L129.615 119.546C129.183 120.05 128.643 120.434 127.995 120.698C127.359 120.962 126.645 121.094 125.853 121.094ZM135.362 121.094C134.57 121.094 133.814 120.986 133.094 120.77C132.386 120.554 131.828 120.29 131.42 119.978L132.14 118.61C132.548 118.886 133.052 119.12 133.652 119.312C134.252 119.504 134.864 119.6 135.488 119.6C136.292 119.6 136.868 119.486 137.216 119.258C137.576 119.03 137.756 118.712 137.756 118.304C137.756 118.004 137.648 117.77 137.432 117.602C137.216 117.434 136.928 117.308 136.568 117.224C136.22 117.14 135.83 117.068 135.398 117.008C134.966 116.936 134.534 116.852 134.102 116.756C133.67 116.648 133.274 116.504 132.914 116.324C132.554 116.132 132.266 115.874 132.05 115.55C131.834 115.214 131.726 114.77 131.726 114.218C131.726 113.642 131.888 113.138 132.212 112.706C132.536 112.274 132.992 111.944 133.58 111.716C134.18 111.476 134.888 111.356 135.704 111.356C136.328 111.356 136.958 111.434 137.594 111.59C138.242 111.734 138.77 111.944 139.178 112.22L138.44 113.588C138.008 113.3 137.558 113.102 137.09 112.994C136.622 112.886 136.154 112.832 135.686 112.832C134.93 112.832 134.366 112.958 133.994 113.21C133.622 113.45 133.436 113.762 133.436 114.146C133.436 114.47 133.544 114.722 133.76 114.902C133.988 115.07 134.276 115.202 134.624 115.298C134.984 115.394 135.38 115.478 135.812 115.55C136.244 115.61 136.676 115.694 137.108 115.802C137.54 115.898 137.93 116.036 138.278 116.216C138.638 116.396 138.926 116.648 139.142 116.972C139.37 117.296 139.484 117.728 139.484 118.268C139.484 118.844 139.316 119.342 138.98 119.762C138.644 120.182 138.17 120.512 137.558 120.752C136.946 120.98 136.214 121.094 135.362 121.094Z" fill="#161616"/>
<path d="M331.173 23.1356H310.273C309.963 23.1191 309.672 22.9858 309.46 22.7633C309.247 22.5409 309.128 22.246 309.128 21.9395C309.128 21.6331 309.247 21.3382 309.46 21.1157C309.672 20.8932 309.963 20.76 310.273 20.7435H331.173C331.337 20.7347 331.501 20.7591 331.655 20.8153C331.81 20.8714 331.951 20.9581 332.07 21.07C332.189 21.1819 332.285 21.3168 332.349 21.4663C332.414 21.6158 332.448 21.7768 332.448 21.9395C332.448 22.1023 332.414 22.2633 332.349 22.4128C332.285 22.5623 332.189 22.6972 332.07 22.8091C331.951 22.921 331.81 23.0077 331.655 23.0638C331.501 23.12 331.337 23.1444 331.173 23.1356ZM297.027 23.1356H303.828C304.137 23.1191 304.428 22.9858 304.641 22.7633C304.854 22.5409 304.973 22.246 304.973 21.9395C304.973 21.6331 304.854 21.3382 304.641 21.1157C304.428 20.8932 304.137 20.76 303.828 20.7435H297.027C296.718 20.76 296.427 20.8932 296.214 21.1157C296.001 21.3382 295.882 21.6331 295.882 21.9395C295.882 22.246 296.001 22.5409 296.214 22.7633C296.427 22.9858 296.718 23.1191 297.027 23.1356ZM290.582 20.7435H289.27C288.961 20.76 288.67 20.8932 288.457 21.1157C288.244 21.3382 288.126 21.6331 288.126 21.9395C288.126 22.246 288.244 22.5409 288.457 22.7633C288.67 22.9858 288.961 23.1191 289.27 23.1356H290.582C290.891 23.1191 291.182 22.9858 291.395 22.7633C291.608 22.5409 291.727 22.246 291.727 21.9395C291.727 21.6331 291.608 21.3382 291.395 21.1157C291.182 20.8932 290.891 20.76 290.582 20.7435ZM313.864 31.9184H297.027C296.718 31.935 296.427 32.0682 296.214 32.2907C296.001 32.5132 295.882 32.808 295.882 33.1145C295.882 33.421 296.001 33.7158 296.214 33.9383C296.427 34.1608 296.718 34.294 297.027 34.3105H313.864C314.184 34.3105 314.492 34.1843 314.719 33.9597C314.946 33.7351 315.073 33.4304 315.073 33.1127C315.073 32.7951 314.946 32.4904 314.719 32.2658C314.492 32.0411 314.184 31.9149 313.864 31.9149V31.9184ZM290.582 31.9184H289.27C288.961 31.935 288.67 32.0682 288.457 32.2907C288.244 32.5132 288.126 32.808 288.126 33.1145C288.126 33.421 288.244 33.7158 288.457 33.9383C288.67 34.1608 288.961 34.294 289.27 34.3105H290.582C290.903 34.3105 291.211 34.1843 291.438 33.9597C291.665 33.7351 291.792 33.4304 291.792 33.1127C291.792 32.7951 291.665 32.4904 291.438 32.2658C291.211 32.0411 290.903 31.9149 290.582 31.9149V31.9184ZM297.031 45.4785H313.864C314.173 45.462 314.464 45.3287 314.677 45.1062C314.889 44.8837 315.008 44.5889 315.008 44.2824C315.008 43.9759 314.889 43.6811 314.677 43.4586C314.464 43.2361 314.173 43.1029 313.864 43.0864H297.027C296.723 43.1094 296.439 43.2452 296.232 43.4667C296.025 43.6881 295.909 43.9788 295.909 44.2807C295.909 44.5825 296.025 44.8733 296.232 45.0947C296.439 45.3162 296.723 45.452 297.027 45.475L297.031 45.4785ZM290.582 43.0829H289.27C288.961 43.0994 288.67 43.2326 288.457 43.4551C288.244 43.6776 288.126 43.9725 288.126 44.2789C288.126 44.5854 288.244 44.8803 288.457 45.1027C288.67 45.3252 288.961 45.4585 289.27 45.475H290.582C290.891 45.4585 291.182 45.3252 291.395 45.1027C291.608 44.8803 291.727 44.5854 291.727 44.2789C291.727 43.9725 291.608 43.6776 291.395 43.4551C291.182 43.2326 290.891 43.0994 290.582 43.0829ZM323.522 54.2578H308.664C308.355 54.2744 308.064 54.4076 307.851 54.6301C307.638 54.8526 307.519 55.1474 307.519 55.4539C307.519 55.7604 307.638 56.0552 307.851 56.2777C308.064 56.5002 308.355 56.6334 308.664 56.6499H323.518C323.839 56.6499 324.147 56.5238 324.374 56.2991C324.601 56.0745 324.728 55.7698 324.728 55.4521C324.728 55.1344 324.601 54.8298 324.374 54.6051C324.147 54.3805 323.839 54.2543 323.518 54.2543L323.522 54.2578ZM297.031 56.6499H302.223C302.532 56.6334 302.823 56.5002 303.036 56.2777C303.249 56.0552 303.368 55.7604 303.368 55.4539C303.368 55.1474 303.249 54.8526 303.036 54.6301C302.823 54.4076 302.532 54.2744 302.223 54.2578H297.027C296.723 54.2808 296.439 54.4167 296.232 54.6381C296.025 54.8595 295.909 55.1503 295.909 55.4521C295.909 55.754 296.025 56.0447 296.232 56.2662C296.439 56.4876 296.723 56.6234 297.027 56.6465L297.031 56.6499ZM290.582 54.2543H289.27C288.961 54.2709 288.67 54.4041 288.457 54.6266C288.244 54.8491 288.126 55.1439 288.126 55.4504C288.126 55.7569 288.244 56.0517 288.457 56.2742C288.67 56.4967 288.961 56.6299 289.27 56.6465H290.582C290.891 56.6299 291.182 56.4967 291.395 56.2742C291.608 56.0517 291.727 55.7569 291.727 55.4504C291.727 55.1439 291.608 54.8491 291.395 54.6266C291.182 54.4041 290.891 54.2709 290.582 54.2543ZM313.906 66.6236C313.906 66.7804 313.937 66.9357 313.998 67.0806C314.058 67.2255 314.147 67.3572 314.259 67.4681C314.371 67.579 314.504 67.667 314.651 67.727C314.797 67.787 314.954 67.8179 315.112 67.8179H331.176C331.34 67.8267 331.505 67.8023 331.659 67.7461C331.813 67.69 331.954 67.6033 332.074 67.4914C332.193 67.3794 332.288 67.2446 332.353 67.0951C332.418 66.9456 332.451 66.7846 332.451 66.6218C332.451 66.4591 332.418 66.298 332.353 66.1485C332.288 65.999 332.193 65.8642 332.074 65.7523C331.954 65.6404 331.813 65.5537 331.659 65.4975C331.505 65.4414 331.34 65.417 331.176 65.4258H315.109C314.95 65.4258 314.793 65.4568 314.646 65.517C314.5 65.5772 314.366 65.6655 314.254 65.7768C314.142 65.8881 314.054 66.0201 313.993 66.1655C313.933 66.3108 313.902 66.4664 313.902 66.6236H313.906ZM297.031 67.8179H308.671C308.98 67.8014 309.271 67.6681 309.484 67.4456C309.697 67.2231 309.816 66.9283 309.816 66.6218C309.816 66.3153 309.697 66.0205 309.484 65.798C309.271 65.5755 308.98 65.4423 308.671 65.4258H297.031C296.721 65.4419 296.43 65.5747 296.217 65.7968C296.004 66.019 295.885 66.3137 295.884 66.6202C295.884 66.9267 296.002 67.2217 296.215 67.4445C296.427 67.6673 296.721 67.8009 297.031 67.8179ZM290.582 65.4258H289.27C288.961 65.4423 288.67 65.5755 288.457 65.798C288.244 66.0205 288.126 66.3153 288.126 66.6218C288.126 66.9283 288.244 67.2231 288.457 67.4456C288.67 67.6681 288.961 67.8014 289.27 67.8179H290.582C290.891 67.8014 291.182 67.6681 291.395 67.4456C291.608 67.2231 291.727 66.9283 291.727 66.6218C291.727 66.3153 291.608 66.0205 291.395 65.798C291.182 65.5755 290.891 65.4423 290.582 65.4258ZM340.443 37.4884V56.3287C342.316 53.334 345.026 50.9413 348.245 49.4407C351.463 47.9401 355.053 47.3959 358.577 47.8741C358.898 47.8741 359.205 47.9998 359.432 48.2237C359.659 48.4476 359.786 48.7514 359.787 49.0684C360.206 51.7314 360.005 54.4538 359.199 57.0281C358.394 59.6024 357.005 61.9606 355.139 63.923C353.273 65.8854 350.98 67.4001 348.433 68.3517C345.886 69.3032 343.153 69.6665 340.443 69.4138V74.5962C340.442 75.7595 339.975 76.875 339.144 77.6979C338.314 78.5208 337.187 78.984 336.012 78.9858H284.434C283.259 78.984 282.132 78.5209 281.301 77.6981C280.47 76.8753 280.002 75.7598 280 74.5962V4.38616C280.002 3.22284 280.47 2.10775 281.301 1.28549C282.132 0.463221 283.259 0.000923269 284.434 0L336.009 0C337.183 0.00184705 338.309 0.464552 339.14 1.28672C339.97 2.10888 340.437 3.22345 340.439 4.38616V13.9687C340.423 14.2747 340.288 14.5628 340.063 14.7736C339.839 14.9843 339.541 15.1018 339.231 15.1018C338.922 15.1018 338.624 14.9843 338.399 14.7736C338.174 14.5628 338.04 14.2747 338.023 13.9687V4.38616C338.022 3.85792 337.809 3.35163 337.432 2.97843C337.054 2.60523 336.542 2.39563 336.009 2.39563H325.934V5.98558C325.933 7.57156 325.295 9.09205 324.163 10.2135C323.03 11.335 321.494 11.9658 319.892 11.9677H300.551C298.949 11.9658 297.412 11.3351 296.279 10.2137C295.146 9.09236 294.508 7.57188 294.505 5.98558V2.39563H284.434C283.9 2.39563 283.389 2.60523 283.011 2.97843C282.633 3.35163 282.421 3.85792 282.42 4.38616V74.5962C282.42 75.125 282.632 75.6322 283.01 76.0062C283.388 76.3801 283.9 76.5902 284.434 76.5902H336.009C336.543 76.5902 337.055 76.3801 337.433 76.0062C337.811 75.6322 338.023 75.125 338.023 74.5962V53.4581C335.313 53.7102 332.581 53.3465 330.034 52.3947C327.488 51.4429 325.195 49.9281 323.329 47.9658C321.464 46.0035 320.075 43.6455 319.27 41.0714C318.465 38.4974 318.264 35.7754 318.682 33.1127C318.682 32.9556 318.712 32.7999 318.773 32.6546C318.833 32.5093 318.922 32.3772 319.034 32.266C319.146 32.1547 319.279 32.0664 319.426 32.0062C319.573 31.9459 319.73 31.9149 319.888 31.9149C323.414 31.4366 327.003 31.9811 330.222 33.4824C333.441 34.9837 336.151 37.3773 338.023 40.373V33.1092C338.065 30.5882 338.652 28.1053 339.745 25.8277C340.838 23.5502 342.411 21.5308 344.358 19.9055C346.305 18.2803 348.581 17.0868 351.034 16.4055C353.486 15.7242 356.057 15.5708 358.574 15.9557C358.895 15.9566 359.202 16.0831 359.428 16.3076C359.655 16.532 359.783 16.8361 359.784 17.1535C360.173 19.6454 360.018 22.1908 359.33 24.6184C358.641 27.0461 357.436 29.2996 355.794 31.2273C354.152 33.155 352.113 34.7121 349.812 35.7939C347.512 36.8758 345.004 37.4571 342.457 37.4989L340.443 37.4884ZM340.443 33.4026L348.052 25.87C348.162 25.7499 348.295 25.6533 348.445 25.586C348.594 25.5186 348.755 25.4819 348.919 25.4782C349.083 25.4744 349.245 25.5036 349.397 25.564C349.55 25.6244 349.688 25.7147 349.803 25.8295C349.919 25.9444 350.01 26.0812 350.071 26.2319C350.131 26.3826 350.161 26.5439 350.156 26.706C350.152 26.8682 350.115 27.0278 350.047 27.1753C349.978 27.3227 349.88 27.4548 349.759 27.5637L342.154 35.0963C344.306 35.1138 346.437 34.6783 348.407 33.8187C350.376 32.959 352.138 31.6949 353.577 30.1099C355.015 28.525 356.097 26.6555 356.751 24.6253C357.404 22.5951 357.615 20.4506 357.368 18.3339C355.255 18.0889 353.113 18.2866 351.082 18.9144C349.051 19.5421 347.177 20.5858 345.58 21.9776C343.983 23.3694 342.7 25.0782 341.814 26.993C340.927 28.9078 340.458 30.9857 340.436 33.0918L340.443 33.4026ZM321.102 34.2966C320.854 36.4134 321.064 38.5581 321.717 40.5886C322.371 42.619 323.452 44.4887 324.891 46.0738C326.33 47.6589 328.092 48.9231 330.062 49.7825C332.032 50.642 334.163 51.0771 336.316 51.059L328.711 43.5299C328.49 43.3039 328.368 43.0014 328.371 42.6874C328.374 42.3734 328.501 42.073 328.726 41.851C328.95 41.6289 329.253 41.5029 329.57 41.5002C329.888 41.4974 330.193 41.6181 330.421 41.8362L338.027 49.3653C338.044 47.2352 337.604 45.1258 336.735 43.1768C335.867 41.2278 334.59 39.4838 332.99 38.0601C331.389 36.6363 329.501 35.5655 327.451 34.9185C325.401 34.2715 323.236 34.0631 321.098 34.3071L321.102 34.2966ZM296.932 5.98558C296.933 6.9362 297.314 7.84772 297.992 8.52057C298.671 9.19342 299.591 9.57275 300.551 9.57552H319.892C320.853 9.5746 321.775 9.19608 322.455 8.52303C323.135 7.84999 323.517 6.93741 323.518 5.98558V2.39563H296.932V5.98558ZM340.439 65.328L348.048 57.7989C348.274 57.5747 348.582 57.4488 348.902 57.4488C349.222 57.4488 349.529 57.5747 349.755 57.7989C349.982 58.023 350.109 58.327 350.109 58.644C350.109 58.9609 349.982 59.2649 349.755 59.4891L342.15 67.0217C344.303 67.0426 346.436 66.6094 348.407 65.7509C350.378 64.8923 352.142 63.6282 353.581 62.0425C355.021 60.4568 356.102 58.5858 356.755 56.5542C357.407 54.5225 357.615 52.3766 357.364 50.2593H355.35C353.366 50.2626 351.404 50.657 349.576 51.4193C347.748 52.1816 346.092 53.2966 344.704 54.6992C343.316 56.1019 342.224 57.7641 341.492 59.589C340.76 61.4139 340.402 63.3648 340.439 65.328Z" fill="#161616"/>
<path d="M232.89 120.986V108.386H234.69V120.986H232.89ZM243.304 111.356C244.084 111.356 244.768 111.506 245.356 111.806C245.956 112.106 246.424 112.562 246.76 113.174C247.096 113.786 247.264 114.56 247.264 115.496V120.986H245.536V115.694C245.536 114.77 245.308 114.074 244.852 113.606C244.408 113.138 243.778 112.904 242.962 112.904C242.35 112.904 241.816 113.024 241.36 113.264C240.904 113.504 240.55 113.858 240.298 114.326C240.058 114.794 239.938 115.376 239.938 116.072V120.986H238.21V111.446H239.866V114.02L239.596 113.336C239.908 112.712 240.388 112.226 241.036 111.878C241.684 111.53 242.44 111.356 243.304 111.356ZM254.404 121.094C253.48 121.094 252.652 120.89 251.92 120.482C251.2 120.074 250.63 119.504 250.21 118.772C249.79 118.04 249.58 117.188 249.58 116.216C249.58 115.244 249.79 114.398 250.21 113.678C250.63 112.946 251.2 112.376 251.92 111.968C252.652 111.56 253.48 111.356 254.404 111.356C255.208 111.356 255.934 111.536 256.582 111.896C257.23 112.256 257.746 112.796 258.13 113.516C258.526 114.236 258.724 115.136 258.724 116.216C258.724 117.296 258.532 118.196 258.148 118.916C257.776 119.636 257.266 120.182 256.618 120.554C255.97 120.914 255.232 121.094 254.404 121.094ZM254.548 119.582C255.148 119.582 255.688 119.444 256.168 119.168C256.66 118.892 257.044 118.502 257.32 117.998C257.608 117.482 257.752 116.888 257.752 116.216C257.752 115.532 257.608 114.944 257.32 114.452C257.044 113.948 256.66 113.558 256.168 113.282C255.688 113.006 255.148 112.868 254.548 112.868C253.936 112.868 253.39 113.006 252.91 113.282C252.43 113.558 252.046 113.948 251.758 114.452C251.47 114.944 251.326 115.532 251.326 116.216C251.326 116.888 251.47 117.482 251.758 117.998C252.046 118.502 252.43 118.892 252.91 119.168C253.39 119.444 253.936 119.582 254.548 119.582ZM257.806 120.986V118.412L257.914 116.198L257.734 113.984V107.63H259.462V120.986H257.806ZM262.732 120.986V111.446H264.46V120.986H262.732ZM263.596 109.61C263.26 109.61 262.978 109.502 262.75 109.286C262.534 109.07 262.426 108.806 262.426 108.494C262.426 108.17 262.534 107.9 262.75 107.684C262.978 107.468 263.26 107.36 263.596 107.36C263.932 107.36 264.208 107.468 264.424 107.684C264.652 107.888 264.766 108.146 264.766 108.458C264.766 108.782 264.658 109.058 264.442 109.286C264.226 109.502 263.944 109.61 263.596 109.61ZM270.261 120.986L266.085 111.446H267.885L271.593 120.086H270.729L274.509 111.446H276.201L272.025 120.986H270.261ZM277.814 120.986V111.446H279.542V120.986H277.814ZM278.678 109.61C278.342 109.61 278.06 109.502 277.832 109.286C277.616 109.07 277.508 108.806 277.508 108.494C277.508 108.17 277.616 107.9 277.832 107.684C278.06 107.468 278.342 107.36 278.678 107.36C279.014 107.36 279.29 107.468 279.506 107.684C279.734 107.888 279.848 108.146 279.848 108.458C279.848 108.782 279.74 109.058 279.524 109.286C279.308 109.502 279.026 109.61 278.678 109.61ZM286.783 121.094C285.859 121.094 285.031 120.89 284.299 120.482C283.579 120.074 283.009 119.504 282.589 118.772C282.169 118.04 281.959 117.188 281.959 116.216C281.959 115.244 282.169 114.398 282.589 113.678C283.009 112.946 283.579 112.376 284.299 111.968C285.031 111.56 285.859 111.356 286.783 111.356C287.587 111.356 288.313 111.536 288.961 111.896C289.609 112.256 290.125 112.796 290.509 113.516C290.905 114.236 291.103 115.136 291.103 116.216C291.103 117.296 290.911 118.196 290.527 118.916C290.155 119.636 289.645 120.182 288.997 120.554C288.349 120.914 287.611 121.094 286.783 121.094ZM286.927 119.582C287.527 119.582 288.067 119.444 288.547 119.168C289.039 118.892 289.423 118.502 289.699 117.998C289.987 117.482 290.131 116.888 290.131 116.216C290.131 115.532 289.987 114.944 289.699 114.452C289.423 113.948 289.039 113.558 288.547 113.282C288.067 113.006 287.527 112.868 286.927 112.868C286.315 112.868 285.769 113.006 285.289 113.282C284.809 113.558 284.425 113.948 284.137 114.452C283.849 114.944 283.705 115.532 283.705 116.216C283.705 116.888 283.849 117.482 284.137 117.998C284.425 118.502 284.809 118.892 285.289 119.168C285.769 119.444 286.315 119.582 286.927 119.582ZM290.185 120.986V118.412L290.293 116.198L290.113 113.984V107.63H291.841V120.986H290.185ZM299.125 121.094C298.309 121.094 297.589 120.944 296.965 120.644C296.353 120.344 295.873 119.888 295.525 119.276C295.189 118.652 295.021 117.872 295.021 116.936V111.446H296.749V116.738C296.749 117.674 296.971 118.376 297.415 118.844C297.871 119.312 298.507 119.546 299.323 119.546C299.923 119.546 300.445 119.426 300.889 119.186C301.333 118.934 301.675 118.574 301.915 118.106C302.155 117.626 302.275 117.05 302.275 116.378V111.446H304.003V120.986H302.365V118.412L302.635 119.096C302.323 119.732 301.855 120.224 301.231 120.572C300.607 120.92 299.905 121.094 299.125 121.094ZM313.214 120.986V118.97L313.124 118.592V115.154C313.124 114.422 312.908 113.858 312.476 113.462C312.056 113.054 311.42 112.85 310.568 112.85C310.004 112.85 309.452 112.946 308.912 113.138C308.372 113.318 307.916 113.564 307.544 113.876L306.824 112.58C307.316 112.184 307.904 111.884 308.588 111.68C309.284 111.464 310.01 111.356 310.766 111.356C312.074 111.356 313.082 111.674 313.79 112.31C314.498 112.946 314.852 113.918 314.852 115.226V120.986H313.214ZM310.082 121.094C309.374 121.094 308.75 120.974 308.21 120.734C307.682 120.494 307.274 120.164 306.986 119.744C306.698 119.312 306.554 118.826 306.554 118.286C306.554 117.77 306.674 117.302 306.914 116.882C307.166 116.462 307.568 116.126 308.12 115.874C308.684 115.622 309.44 115.496 310.388 115.496H313.412V116.738H310.46C309.596 116.738 309.014 116.882 308.714 117.17C308.414 117.458 308.264 117.806 308.264 118.214C308.264 118.682 308.45 119.06 308.822 119.348C309.194 119.624 309.71 119.762 310.37 119.762C311.018 119.762 311.582 119.618 312.062 119.33C312.554 119.042 312.908 118.622 313.124 118.07L313.466 119.258C313.238 119.822 312.836 120.272 312.26 120.608C311.684 120.932 310.958 121.094 310.082 121.094ZM318.05 120.986V107.63H319.778V120.986H318.05ZM330.647 121.094C329.855 121.094 329.099 120.986 328.379 120.77C327.671 120.554 327.113 120.29 326.705 119.978L327.425 118.61C327.833 118.886 328.337 119.12 328.937 119.312C329.537 119.504 330.149 119.6 330.773 119.6C331.577 119.6 332.153 119.486 332.501 119.258C332.861 119.03 333.041 118.712 333.041 118.304C333.041 118.004 332.933 117.77 332.717 117.602C332.501 117.434 332.213 117.308 331.853 117.224C331.505 117.14 331.115 117.068 330.683 117.008C330.251 116.936 329.819 116.852 329.387 116.756C328.955 116.648 328.559 116.504 328.199 116.324C327.839 116.132 327.551 115.874 327.335 115.55C327.119 115.214 327.011 114.77 327.011 114.218C327.011 113.642 327.173 113.138 327.497 112.706C327.821 112.274 328.277 111.944 328.865 111.716C329.465 111.476 330.173 111.356 330.989 111.356C331.613 111.356 332.243 111.434 332.879 111.59C333.527 111.734 334.055 111.944 334.463 112.22L333.725 113.588C333.293 113.3 332.843 113.102 332.375 112.994C331.907 112.886 331.439 112.832 330.971 112.832C330.215 112.832 329.651 112.958 329.279 113.21C328.907 113.45 328.721 113.762 328.721 114.146C328.721 114.47 328.829 114.722 329.045 114.902C329.273 115.07 329.561 115.202 329.909 115.298C330.269 115.394 330.665 115.478 331.097 115.55C331.529 115.61 331.961 115.694 332.393 115.802C332.825 115.898 333.215 116.036 333.563 116.216C333.923 116.396 334.211 116.648 334.427 116.972C334.655 117.296 334.769 117.728 334.769 118.268C334.769 118.844 334.601 119.342 334.265 119.762C333.929 120.182 333.455 120.512 332.843 120.752C332.231 120.98 331.499 121.094 330.647 121.094ZM341.177 121.094C340.157 121.094 339.257 120.884 338.477 120.464C337.709 120.044 337.109 119.468 336.677 118.736C336.257 118.004 336.047 117.164 336.047 116.216C336.047 115.268 336.251 114.428 336.659 113.696C337.079 112.964 337.649 112.394 338.369 111.986C339.101 111.566 339.923 111.356 340.835 111.356C341.759 111.356 342.575 111.56 343.283 111.968C343.991 112.376 344.543 112.952 344.939 113.696C345.347 114.428 345.551 115.286 345.551 116.27C345.551 116.342 345.545 116.426 345.533 116.522C345.533 116.618 345.527 116.708 345.515 116.792H337.397V115.55H344.615L343.913 115.982C343.925 115.37 343.799 114.824 343.535 114.344C343.271 113.864 342.905 113.492 342.437 113.228C341.981 112.952 341.447 112.814 340.835 112.814C340.235 112.814 339.701 112.952 339.233 113.228C338.765 113.492 338.399 113.87 338.135 114.362C337.871 114.842 337.739 115.394 337.739 116.018V116.306C337.739 116.942 337.883 117.512 338.171 118.016C338.471 118.508 338.885 118.892 339.413 119.168C339.941 119.444 340.547 119.582 341.231 119.582C341.795 119.582 342.305 119.486 342.761 119.294C343.229 119.102 343.637 118.814 343.985 118.43L344.939 119.546C344.507 120.05 343.967 120.434 343.319 120.698C342.683 120.962 341.969 121.094 341.177 121.094ZM347.951 120.986V107.63H349.679V120.986H347.951ZM357.226 121.094C356.206 121.094 355.306 120.884 354.526 120.464C353.758 120.044 353.158 119.468 352.726 118.736C352.306 118.004 352.096 117.164 352.096 116.216C352.096 115.268 352.3 114.428 352.708 113.696C353.128 112.964 353.698 112.394 354.418 111.986C355.15 111.566 355.972 111.356 356.884 111.356C357.808 111.356 358.624 111.56 359.332 111.968C360.04 112.376 360.592 112.952 360.988 113.696C361.396 114.428 361.6 115.286 361.6 116.27C361.6 116.342 361.594 116.426 361.582 116.522C361.582 116.618 361.576 116.708 361.564 116.792H353.446V115.55H360.664L359.962 115.982C359.974 115.37 359.848 114.824 359.584 114.344C359.32 113.864 358.954 113.492 358.486 113.228C358.03 112.952 357.496 112.814 356.884 112.814C356.284 112.814 355.75 112.952 355.282 113.228C354.814 113.492 354.448 113.87 354.184 114.362C353.92 114.842 353.788 115.394 353.788 116.018V116.306C353.788 116.942 353.932 117.512 354.22 118.016C354.52 118.508 354.934 118.892 355.462 119.168C355.99 119.444 356.596 119.582 357.28 119.582C357.844 119.582 358.354 119.486 358.81 119.294C359.278 119.102 359.686 118.814 360.034 118.43L360.988 119.546C360.556 120.05 360.016 120.434 359.368 120.698C358.732 120.962 358.018 121.094 357.226 121.094ZM368.157 121.094C367.185 121.094 366.315 120.884 365.547 120.464C364.791 120.044 364.197 119.468 363.765 118.736C363.333 118.004 363.117 117.164 363.117 116.216C363.117 115.268 363.333 114.428 363.765 113.696C364.197 112.964 364.791 112.394 365.547 111.986C366.315 111.566 367.185 111.356 368.157 111.356C369.021 111.356 369.789 111.53 370.461 111.878C371.145 112.214 371.673 112.718 372.045 113.39L370.731 114.236C370.419 113.768 370.035 113.426 369.579 113.21C369.135 112.982 368.655 112.868 368.139 112.868C367.515 112.868 366.957 113.006 366.465 113.282C365.973 113.558 365.583 113.948 365.295 114.452C365.007 114.944 364.863 115.532 364.863 116.216C364.863 116.9 365.007 117.494 365.295 117.998C365.583 118.502 365.973 118.892 366.465 119.168C366.957 119.444 367.515 119.582 368.139 119.582C368.655 119.582 369.135 119.474 369.579 119.258C370.035 119.03 370.419 118.682 370.731 118.214L372.045 119.042C371.673 119.702 371.145 120.212 370.461 120.572C369.789 120.92 369.021 121.094 368.157 121.094ZM377.682 121.094C376.722 121.094 375.978 120.836 375.45 120.32C374.922 119.804 374.658 119.066 374.658 118.106V109.358H376.386V118.034C376.386 118.55 376.512 118.946 376.764 119.222C377.028 119.498 377.4 119.636 377.88 119.636C378.42 119.636 378.87 119.486 379.23 119.186L379.77 120.428C379.506 120.656 379.188 120.824 378.816 120.932C378.456 121.04 378.078 121.094 377.682 121.094ZM373.038 112.868V111.446H379.122V112.868H373.038ZM381.859 120.986V111.446H383.587V120.986H381.859ZM382.723 109.61C382.387 109.61 382.105 109.502 381.877 109.286C381.661 109.07 381.553 108.806 381.553 108.494C381.553 108.17 381.661 107.9 381.877 107.684C382.105 107.468 382.387 107.36 382.723 107.36C383.059 107.36 383.335 107.468 383.551 107.684C383.779 107.888 383.893 108.146 383.893 108.458C383.893 108.782 383.785 109.058 383.569 109.286C383.353 109.502 383.071 109.61 382.723 109.61ZM390.972 121.094C390.012 121.094 389.16 120.884 388.416 120.464C387.672 120.044 387.084 119.468 386.652 118.736C386.22 117.992 386.004 117.152 386.004 116.216C386.004 115.268 386.22 114.428 386.652 113.696C387.084 112.964 387.672 112.394 388.416 111.986C389.16 111.566 390.012 111.356 390.972 111.356C391.92 111.356 392.766 111.566 393.51 111.986C394.266 112.394 394.854 112.964 395.274 113.696C395.706 114.416 395.922 115.256 395.922 116.216C395.922 117.164 395.706 118.004 395.274 118.736C394.854 119.468 394.266 120.044 393.51 120.464C392.766 120.884 391.92 121.094 390.972 121.094ZM390.972 119.582C391.584 119.582 392.13 119.444 392.61 119.168C393.102 118.892 393.486 118.502 393.762 117.998C394.038 117.482 394.176 116.888 394.176 116.216C394.176 115.532 394.038 114.944 393.762 114.452C393.486 113.948 393.102 113.558 392.61 113.282C392.13 113.006 391.584 112.868 390.972 112.868C390.36 112.868 389.814 113.006 389.334 113.282C388.854 113.558 388.47 113.948 388.182 114.452C387.894 114.944 387.75 115.532 387.75 116.216C387.75 116.888 387.894 117.482 388.182 117.998C388.47 118.502 388.854 118.892 389.334 119.168C389.814 119.444 390.36 119.582 390.972 119.582ZM403.406 111.356C404.186 111.356 404.87 111.506 405.458 111.806C406.058 112.106 406.526 112.562 406.862 113.174C407.198 113.786 407.366 114.56 407.366 115.496V120.986H405.638V115.694C405.638 114.77 405.41 114.074 404.954 113.606C404.51 113.138 403.88 112.904 403.064 112.904C402.452 112.904 401.918 113.024 401.462 113.264C401.006 113.504 400.652 113.858 400.4 114.326C400.16 114.794 400.04 115.376 400.04 116.072V120.986H398.312V111.446H399.968V114.02L399.698 113.336C400.01 112.712 400.49 112.226 401.138 111.878C401.786 111.53 402.542 111.356 403.406 111.356Z" fill="#161616"/>
<path d="M594.996 58.6588C594.518 58.3069 593.956 58.0812 593.365 58.0029C592.774 57.9247 592.173 57.9964 591.618 58.2113C591.808 57.5004 591.765 56.748 591.493 56.0633C591.221 55.3786 590.736 54.7973 590.107 54.404C588.466 53.1593 585.969 54.2222 581.83 55.9807C578.682 57.3769 575.443 58.5636 572.134 59.5328C571.591 58.7658 570.869 58.14 570.028 57.7089C569.187 57.2779 568.253 57.0544 567.306 57.0576C564.106 57.1714 560.901 57.0616 557.716 56.7289V50.3624H575.898C580.504 50.3513 584.918 48.536 588.172 45.3144C591.426 42.0928 593.255 37.7275 593.259 33.1752C593.259 32.8572 593.131 32.5521 592.904 32.3272C592.676 32.1024 592.368 31.976 592.046 31.976H572.665C569.643 31.9799 566.674 32.7635 564.052 34.2492C561.431 35.7349 559.247 37.8714 557.716 40.4472V18.3864H575.898C580.504 18.3753 584.918 16.56 588.172 13.3384C591.426 10.1168 593.255 5.75154 593.259 1.19919C593.258 0.883828 593.132 0.581432 592.908 0.357133C592.683 0.132835 592.379 0.0045825 592.06 0L572.665 0C568.057 0.00740463 563.639 1.82102 560.382 5.04304C557.125 8.26506 555.294 12.6324 555.29 17.1872V24.4732C553.761 21.8948 551.578 19.7555 548.956 18.2673C546.334 16.779 543.365 15.9933 540.341 15.988H520.946C520.625 15.9889 520.317 16.1156 520.089 16.3403C519.862 16.5649 519.734 16.8694 519.733 17.1872C519.736 21.7422 521.567 26.1101 524.824 29.3324C528.082 32.5546 532.5 34.3679 537.108 34.3744H555.29V56.2884C547.115 53.0789 550.104 51.7014 528.01 51.4637L517.915 49.8764C517.741 49.8499 517.564 49.8605 517.394 49.9077C517.225 49.9549 517.068 50.0374 516.934 50.1498C516.8 50.2622 516.691 50.4018 516.617 50.5591C516.542 50.7164 516.502 50.8878 516.5 51.0616V72.6295C516.5 72.9146 516.603 73.1903 516.79 73.407C516.978 73.6237 517.237 73.767 517.522 73.8112L527.625 75.3985C542.729 80.6847 574.901 81.9888 593.546 66.1126C594.83 65.3784 598.565 61.4453 594.996 58.6588ZM579.11 7.99575C572.711 7.71606 563.044 8.1321 558.834 11.5618C559.96 8.85757 561.871 6.5437 564.326 4.91268C566.782 3.28166 569.671 2.4067 572.63 2.39838H590.783C590.477 6.09775 588.775 9.54827 586.015 12.0655C583.256 14.5827 579.639 15.9828 575.884 15.988H557.978C559.22 13.1037 564.809 10.3941 572.665 10.3941H579.11C579.432 10.3941 579.74 10.2678 579.968 10.0429C580.195 9.818 580.323 9.51298 580.323 9.19494C580.323 8.87689 580.195 8.57187 579.968 8.34698C579.74 8.12209 579.432 7.99575 579.11 7.99575ZM537.108 31.976C533.353 31.9701 529.737 30.5699 526.976 28.0528C524.216 25.5358 522.513 22.0858 522.206 18.3864H540.341C543.3 18.3954 546.19 19.2711 548.645 20.9027C551.101 22.5343 553.012 24.8487 554.137 27.5533C549.956 24.1236 540.267 23.7006 533.872 23.9838C533.562 24.0003 533.27 24.1337 533.056 24.3564C532.843 24.5792 532.724 24.8744 532.724 25.1812C532.724 25.488 532.843 25.7832 533.056 26.0059C533.27 26.2287 533.562 26.3621 533.872 26.3786H540.334C548.194 26.3786 553.776 29.0917 555.021 31.9725L537.108 31.976ZM526.694 72.8218L518.912 71.6051V52.4671L526.694 53.6837V72.8218ZM572.913 61.8054C578.406 60.5922 584.416 56.7219 588.632 56.3059C592.576 59.6867 577.759 63.3332 572.771 64.8016C573.051 63.827 573.1 62.8015 572.913 61.8054ZM572.665 34.3744H590.783C590.476 38.0735 588.774 41.5235 586.014 44.0406C583.255 46.5577 579.639 47.958 575.884 47.964H557.978C559.22 45.0797 564.809 42.3701 572.665 42.3701H579.11C579.432 42.3701 579.74 42.2438 579.968 42.0189C580.195 41.794 580.323 41.489 580.323 41.1709C580.323 40.8529 580.195 40.5479 579.968 40.323C579.74 40.0981 579.432 39.9718 579.11 39.9718C572.715 39.6921 563.044 40.1116 558.834 43.5414C559.961 40.8309 561.878 38.5125 564.34 36.8804C566.803 35.2483 569.7 34.3761 572.665 34.3744ZM592.12 64.1863C567.331 83.625 534.682 75.0244 529.135 73.3497V53.8621C545.69 53.9355 548.442 55.5367 550.875 56.9492C553.376 58.3966 555.53 59.6482 567.416 59.4559C567.917 59.4546 568.412 59.5669 568.862 59.7841C569.313 60.0014 569.707 60.3178 570.014 60.7091C570.322 61.1004 570.534 61.5562 570.636 62.0414C570.737 62.5266 570.725 63.0283 570.599 63.508C570.599 63.8576 570.412 65.0358 568.296 65.8085C566.029 66.686 561.034 67.4342 550.097 66.0322C549.778 65.9914 549.455 66.0777 549.2 66.2721C548.945 66.4665 548.778 66.7531 548.737 67.0689C548.696 67.3846 548.783 67.7036 548.98 67.9557C549.176 68.2078 549.466 68.3723 549.786 68.4131C562.329 71.2345 579.57 66.0707 588.105 62.0886C590.581 61.0397 592.93 60.0643 593.457 60.4978C595.18 61.7914 592.905 63.536 592.102 64.1863H592.12ZM522.807 56.6031C523.129 56.6031 523.437 56.7294 523.665 56.9543C523.892 57.1792 524.02 57.4842 524.02 57.8022C524.02 58.1203 523.892 58.4253 523.665 58.6502C523.437 58.8751 523.129 59.0014 522.807 59.0014C522.485 59.0014 522.177 58.8751 521.949 58.6502C521.722 58.4253 521.594 58.1203 521.594 57.8022C521.594 57.4842 521.722 57.1792 521.949 56.9543C522.177 56.7294 522.485 56.6031 522.807 56.6031Z" fill="#161616"/>
<path d="M502.51 114.344H509.008V115.892H502.51V114.344ZM502.69 120.986H500.89V108.386H509.782V109.952H502.69V120.986ZM517.634 120.986V118.97L517.544 118.592V115.154C517.544 114.422 517.328 113.858 516.896 113.462C516.476 113.054 515.84 112.85 514.988 112.85C514.424 112.85 513.872 112.946 513.332 113.138C512.792 113.318 512.336 113.564 511.964 113.876L511.244 112.58C511.736 112.184 512.324 111.884 513.008 111.68C513.704 111.464 514.43 111.356 515.186 111.356C516.494 111.356 517.502 111.674 518.21 112.31C518.918 112.946 519.272 113.918 519.272 115.226V120.986H517.634ZM514.502 121.094C513.794 121.094 513.17 120.974 512.63 120.734C512.102 120.494 511.694 120.164 511.406 119.744C511.118 119.312 510.974 118.826 510.974 118.286C510.974 117.77 511.094 117.302 511.334 116.882C511.586 116.462 511.988 116.126 512.54 115.874C513.104 115.622 513.86 115.496 514.808 115.496H517.832V116.738H514.88C514.016 116.738 513.434 116.882 513.134 117.17C512.834 117.458 512.684 117.806 512.684 118.214C512.684 118.682 512.87 119.06 513.242 119.348C513.614 119.624 514.13 119.762 514.79 119.762C515.438 119.762 516.002 119.618 516.482 119.33C516.974 119.042 517.328 118.622 517.544 118.07L517.886 119.258C517.658 119.822 517.256 120.272 516.68 120.608C516.104 120.932 515.378 121.094 514.502 121.094ZM525.206 121.094C524.414 121.094 523.658 120.986 522.938 120.77C522.23 120.554 521.672 120.29 521.264 119.978L521.984 118.61C522.392 118.886 522.896 119.12 523.496 119.312C524.096 119.504 524.708 119.6 525.332 119.6C526.136 119.6 526.712 119.486 527.06 119.258C527.42 119.03 527.6 118.712 527.6 118.304C527.6 118.004 527.492 117.77 527.276 117.602C527.06 117.434 526.772 117.308 526.412 117.224C526.064 117.14 525.674 117.068 525.242 117.008C524.81 116.936 524.378 116.852 523.946 116.756C523.514 116.648 523.118 116.504 522.758 116.324C522.398 116.132 522.11 115.874 521.894 115.55C521.678 115.214 521.57 114.77 521.57 114.218C521.57 113.642 521.732 113.138 522.056 112.706C522.38 112.274 522.836 111.944 523.424 111.716C524.024 111.476 524.732 111.356 525.548 111.356C526.172 111.356 526.802 111.434 527.438 111.59C528.086 111.734 528.614 111.944 529.022 112.22L528.284 113.588C527.852 113.3 527.402 113.102 526.934 112.994C526.466 112.886 525.998 112.832 525.53 112.832C524.774 112.832 524.21 112.958 523.838 113.21C523.466 113.45 523.28 113.762 523.28 114.146C523.28 114.47 523.388 114.722 523.604 114.902C523.832 115.07 524.12 115.202 524.468 115.298C524.828 115.394 525.224 115.478 525.656 115.55C526.088 115.61 526.52 115.694 526.952 115.802C527.384 115.898 527.774 116.036 528.122 116.216C528.482 116.396 528.77 116.648 528.986 116.972C529.214 117.296 529.328 117.728 529.328 118.268C529.328 118.844 529.16 119.342 528.824 119.762C528.488 120.182 528.014 120.512 527.402 120.752C526.79 120.98 526.058 121.094 525.206 121.094ZM534.764 121.094C533.804 121.094 533.06 120.836 532.532 120.32C532.004 119.804 531.74 119.066 531.74 118.106V109.358H533.468V118.034C533.468 118.55 533.594 118.946 533.846 119.222C534.11 119.498 534.482 119.636 534.962 119.636C535.502 119.636 535.952 119.486 536.312 119.186L536.852 120.428C536.588 120.656 536.27 120.824 535.898 120.932C535.538 121.04 535.16 121.094 534.764 121.094ZM530.12 112.868V111.446H536.204V112.868H530.12ZM547.717 121.094C546.793 121.094 545.965 120.89 545.233 120.482C544.513 120.074 543.943 119.504 543.523 118.772C543.103 118.04 542.893 117.188 542.893 116.216C542.893 115.244 543.103 114.398 543.523 113.678C543.943 112.946 544.513 112.376 545.233 111.968C545.965 111.56 546.793 111.356 547.717 111.356C548.521 111.356 549.247 111.536 549.895 111.896C550.543 112.256 551.059 112.796 551.443 113.516C551.839 114.236 552.037 115.136 552.037 116.216C552.037 117.296 551.845 118.196 551.461 118.916C551.089 119.636 550.579 120.182 549.931 120.554C549.283 120.914 548.545 121.094 547.717 121.094ZM547.861 119.582C548.461 119.582 549.001 119.444 549.481 119.168C549.973 118.892 550.357 118.502 550.633 117.998C550.921 117.482 551.065 116.888 551.065 116.216C551.065 115.532 550.921 114.944 550.633 114.452C550.357 113.948 549.973 113.558 549.481 113.282C549.001 113.006 548.461 112.868 547.861 112.868C547.249 112.868 546.703 113.006 546.223 113.282C545.743 113.558 545.359 113.948 545.071 114.452C544.783 114.944 544.639 115.532 544.639 116.216C544.639 116.888 544.783 117.482 545.071 117.998C545.359 118.502 545.743 118.892 546.223 119.168C546.703 119.444 547.249 119.582 547.861 119.582ZM551.119 120.986V118.412L551.227 116.198L551.047 113.984V107.63H552.775V120.986H551.119ZM560.292 121.094C559.272 121.094 558.372 120.884 557.592 120.464C556.824 120.044 556.224 119.468 555.792 118.736C555.372 118.004 555.162 117.164 555.162 116.216C555.162 115.268 555.366 114.428 555.774 113.696C556.194 112.964 556.764 112.394 557.484 111.986C558.216 111.566 559.038 111.356 559.95 111.356C560.874 111.356 561.69 111.56 562.398 111.968C563.106 112.376 563.658 112.952 564.054 113.696C564.462 114.428 564.666 115.286 564.666 116.27C564.666 116.342 564.66 116.426 564.648 116.522C564.648 116.618 564.642 116.708 564.63 116.792H556.512V115.55H563.73L563.028 115.982C563.04 115.37 562.914 114.824 562.65 114.344C562.386 113.864 562.02 113.492 561.552 113.228C561.096 112.952 560.562 112.814 559.95 112.814C559.35 112.814 558.816 112.952 558.348 113.228C557.88 113.492 557.514 113.87 557.25 114.362C556.986 114.842 556.854 115.394 556.854 116.018V116.306C556.854 116.942 556.998 117.512 557.286 118.016C557.586 118.508 558 118.892 558.528 119.168C559.056 119.444 559.662 119.582 560.346 119.582C560.91 119.582 561.42 119.486 561.876 119.294C562.344 119.102 562.752 118.814 563.1 118.43L564.054 119.546C563.622 120.05 563.082 120.434 562.434 120.698C561.798 120.962 561.084 121.094 560.292 121.094ZM567.066 120.986V107.63H568.794V120.986H567.066ZM572.093 120.986V111.446H573.821V120.986H572.093ZM572.957 109.61C572.621 109.61 572.339 109.502 572.111 109.286C571.895 109.07 571.787 108.806 571.787 108.494C571.787 108.17 571.895 107.9 572.111 107.684C572.339 107.468 572.621 107.36 572.957 107.36C573.293 107.36 573.569 107.468 573.785 107.684C574.013 107.888 574.127 108.146 574.127 108.458C574.127 108.782 574.019 109.058 573.803 109.286C573.587 109.502 573.305 109.61 572.957 109.61ZM579.622 120.986L575.446 111.446H577.246L580.954 120.086H580.09L583.87 111.446H585.562L581.386 120.986H579.622ZM591.159 121.094C590.139 121.094 589.239 120.884 588.459 120.464C587.691 120.044 587.091 119.468 586.659 118.736C586.239 118.004 586.029 117.164 586.029 116.216C586.029 115.268 586.233 114.428 586.641 113.696C587.061 112.964 587.631 112.394 588.351 111.986C589.083 111.566 589.905 111.356 590.817 111.356C591.741 111.356 592.557 111.56 593.265 111.968C593.973 112.376 594.525 112.952 594.921 113.696C595.329 114.428 595.533 115.286 595.533 116.27C595.533 116.342 595.527 116.426 595.515 116.522C595.515 116.618 595.509 116.708 595.497 116.792H587.379V115.55H594.597L593.895 115.982C593.907 115.37 593.781 114.824 593.517 114.344C593.253 113.864 592.887 113.492 592.419 113.228C591.963 112.952 591.429 112.814 590.817 112.814C590.217 112.814 589.683 112.952 589.215 113.228C588.747 113.492 588.381 113.87 588.117 114.362C587.853 114.842 587.721 115.394 587.721 116.018V116.306C587.721 116.942 587.865 117.512 588.153 118.016C588.453 118.508 588.867 118.892 589.395 119.168C589.923 119.444 590.529 119.582 591.213 119.582C591.777 119.582 592.287 119.486 592.743 119.294C593.211 119.102 593.619 118.814 593.967 118.43L594.921 119.546C594.489 120.05 593.949 120.434 593.301 120.698C592.665 120.962 591.951 121.094 591.159 121.094ZM597.933 120.986V111.446H599.589V114.038L599.427 113.39C599.691 112.73 600.135 112.226 600.759 111.878C601.383 111.53 602.151 111.356 603.063 111.356V113.03C602.991 113.018 602.919 113.012 602.847 113.012C602.787 113.012 602.727 113.012 602.667 113.012C601.743 113.012 601.011 113.288 600.471 113.84C599.931 114.392 599.661 115.19 599.661 116.234V120.986H597.933ZM605.993 124.586C605.537 124.586 605.093 124.508 604.661 124.352C604.229 124.208 603.857 123.992 603.545 123.704L604.283 122.408C604.523 122.636 604.787 122.81 605.075 122.93C605.363 123.05 605.669 123.11 605.993 123.11C606.413 123.11 606.761 123.002 607.037 122.786C607.313 122.57 607.571 122.186 607.811 121.634L608.405 120.32L608.585 120.104L612.329 111.446H614.021L609.395 121.94C609.119 122.612 608.807 123.14 608.459 123.524C608.123 123.908 607.751 124.178 607.343 124.334C606.935 124.502 606.485 124.586 605.993 124.586ZM608.261 121.292L603.905 111.446H605.705L609.413 119.942L608.261 121.292Z" fill="#161616"/>
<path d="M835.313 38.2953H828.895C827.473 32.4225 824.431 27.0536 820.106 22.7844L797.358 0.335889C797.126 0.120126 796.819 0 796.5 0C796.181 0 795.874 0.120126 795.642 0.335889L778.158 17.5873C777.804 17.5873 777.45 17.5349 777.096 17.5349H757.687C757.528 17.5344 757.37 17.565 757.222 17.6249C757.075 17.6847 756.941 17.7727 756.828 17.8837C756.716 17.9948 756.626 18.1267 756.565 18.2719C756.504 18.4172 756.473 18.5729 756.473 18.7302C756.475 21.9539 757.254 25.1308 758.745 27.9986C760.237 30.8663 762.398 33.3427 765.05 35.2232C751.871 77.8379 813.465 97.8469 828.403 55.648C830.927 53.7531 832.974 51.308 834.383 48.5035C835.792 45.6989 836.526 42.6108 836.527 39.4801C836.524 39.1646 836.394 38.8632 836.167 38.6414C835.939 38.4196 835.633 38.2953 835.313 38.2953ZM796.498 2.86279L818.392 24.476C822.255 28.2978 825.013 33.0686 826.382 38.2953H815.907C812.168 38.298 808.5 39.3039 805.296 41.2055C802.091 43.1071 799.47 45.8329 797.712 49.0914V37.9073C797.709 33.2149 796.067 28.667 793.064 25.0304C790.06 21.3938 785.878 18.891 781.224 17.9438L796.498 2.86279ZM758.951 19.929H777.093C780.704 19.9356 784.232 21.0024 787.228 22.9939C790.224 24.9854 792.553 27.8116 793.918 31.113C788.873 26.5485 777.762 27.0064 770.632 27.1147C770.322 27.1313 770.03 27.2646 769.816 27.4873C769.603 27.71 769.484 28.005 769.484 28.3118C769.484 28.6185 769.603 28.9136 769.816 29.1362C770.03 29.3589 770.322 29.4922 770.632 29.5088H780.328C787.712 29.5088 794.034 32.6963 795.107 36.6946H777.093C772.481 36.6865 768.044 34.9516 764.677 31.84C761.31 28.7285 759.263 24.4718 758.951 19.929ZM818.421 67.7024C794.962 90.2243 757.269 66.916 767.174 36.5722C770.209 38.2245 773.619 39.0902 777.085 39.0886H795.28V71.428C795.272 71.5907 795.296 71.7534 795.353 71.9063C795.41 72.0592 795.498 72.199 795.611 72.3172C795.725 72.4355 795.862 72.5296 796.013 72.594C796.165 72.6583 796.328 72.6915 796.493 72.6915C796.658 72.6915 796.821 72.6583 796.973 72.594C797.124 72.5296 797.261 72.4355 797.374 72.3172C797.488 72.199 797.576 72.0592 797.633 71.9063C797.689 71.7534 797.714 71.5907 797.705 71.428V59.8491H815.9C819.097 59.848 822.25 59.107 825.104 57.6856C823.569 61.4346 821.286 64.8408 818.392 67.7024H818.421ZM815.943 57.455H797.889C798.951 53.4567 805.284 50.2692 812.668 50.2692H822.371C822.682 50.2527 822.974 50.1193 823.187 49.8966C823.401 49.674 823.52 49.3789 823.52 49.0722C823.52 48.7654 823.401 48.4704 823.187 48.2477C822.974 48.025 822.682 47.8917 822.371 47.8751C815.27 47.7563 804.067 47.3194 799.072 51.8699C800.436 48.5676 802.765 45.7409 805.762 43.7493C808.759 41.7577 812.288 40.6913 815.9 40.6859H834.053C833.74 45.2297 831.693 49.4872 828.326 52.5994C824.958 55.7116 820.52 57.4469 815.907 57.455H815.943ZM789.203 69.338C783.862 67.7069 779.243 64.3289 776.106 59.7601C772.969 55.1912 771.502 49.704 771.946 44.2019C771.986 43.8974 772.143 43.6198 772.384 43.4264C772.626 43.2329 772.933 43.1383 773.243 43.162C773.553 43.1858 773.842 43.3261 774.051 43.554C774.259 43.782 774.371 44.0802 774.363 44.3871C773.963 49.3504 775.288 54.3002 778.119 58.4204C780.951 62.5406 785.12 65.5852 789.939 67.0523C790.091 67.1023 790.232 67.1815 790.354 67.2853C790.475 67.3892 790.575 67.5156 790.647 67.6574C790.719 67.7992 790.762 67.9537 790.773 68.1119C790.785 68.2701 790.765 68.4291 790.714 68.5796C790.663 68.7301 790.583 68.8694 790.478 68.9893C790.373 69.1092 790.245 69.2076 790.101 69.2786C789.957 69.3497 789.801 69.3922 789.641 69.4035C789.481 69.4149 789.32 69.395 789.167 69.345L789.203 69.338Z" fill="#161616"/>
<path d="M703.982 120.986L709.688 108.386H711.47L717.194 120.986H715.304L710.21 109.394H710.93L705.836 120.986H703.982ZM706.412 117.836L706.898 116.396H713.99L714.512 117.836H706.412ZM718.822 120.986V107.63H720.55V120.986H718.822ZM725.865 120.986L722.319 111.446H723.957L727.107 120.086H726.333L729.609 111.446H731.067L734.271 120.086H733.515L736.737 111.446H738.285L734.721 120.986H733.065L730.059 113.102H730.563L727.521 120.986H725.865ZM745.662 120.986V118.97L745.572 118.592V115.154C745.572 114.422 745.356 113.858 744.924 113.462C744.504 113.054 743.868 112.85 743.016 112.85C742.452 112.85 741.9 112.946 741.36 113.138C740.82 113.318 740.364 113.564 739.992 113.876L739.272 112.58C739.764 112.184 740.352 111.884 741.036 111.68C741.732 111.464 742.458 111.356 743.214 111.356C744.522 111.356 745.53 111.674 746.238 112.31C746.946 112.946 747.3 113.918 747.3 115.226V120.986H745.662ZM742.53 121.094C741.822 121.094 741.198 120.974 740.658 120.734C740.13 120.494 739.722 120.164 739.434 119.744C739.146 119.312 739.002 118.826 739.002 118.286C739.002 117.77 739.122 117.302 739.362 116.882C739.614 116.462 740.016 116.126 740.568 115.874C741.132 115.622 741.888 115.496 742.836 115.496H745.86V116.738H742.908C742.044 116.738 741.462 116.882 741.162 117.17C740.862 117.458 740.712 117.806 740.712 118.214C740.712 118.682 740.898 119.06 741.27 119.348C741.642 119.624 742.158 119.762 742.818 119.762C743.466 119.762 744.03 119.618 744.51 119.33C745.002 119.042 745.356 118.622 745.572 118.07L745.914 119.258C745.686 119.822 745.284 120.272 744.708 120.608C744.132 120.932 743.406 121.094 742.53 121.094ZM750.736 124.586C750.28 124.586 749.836 124.508 749.404 124.352C748.972 124.208 748.6 123.992 748.288 123.704L749.026 122.408C749.266 122.636 749.53 122.81 749.818 122.93C750.106 123.05 750.412 123.11 750.736 123.11C751.156 123.11 751.504 123.002 751.78 122.786C752.056 122.57 752.314 122.186 752.554 121.634L753.148 120.32L753.328 120.104L757.072 111.446H758.764L754.138 121.94C753.862 122.612 753.55 123.14 753.202 123.524C752.866 123.908 752.494 124.178 752.086 124.334C751.678 124.502 751.228 124.586 750.736 124.586ZM753.004 121.292L748.648 111.446H750.448L754.156 119.942L753.004 121.292ZM762.989 121.094C762.197 121.094 761.441 120.986 760.721 120.77C760.013 120.554 759.455 120.29 759.047 119.978L759.767 118.61C760.175 118.886 760.679 119.12 761.279 119.312C761.879 119.504 762.491 119.6 763.115 119.6C763.919 119.6 764.495 119.486 764.843 119.258C765.203 119.03 765.383 118.712 765.383 118.304C765.383 118.004 765.275 117.77 765.059 117.602C764.843 117.434 764.555 117.308 764.195 117.224C763.847 117.14 763.457 117.068 763.025 117.008C762.593 116.936 762.161 116.852 761.729 116.756C761.297 116.648 760.901 116.504 760.541 116.324C760.181 116.132 759.893 115.874 759.677 115.55C759.461 115.214 759.353 114.77 759.353 114.218C759.353 113.642 759.515 113.138 759.839 112.706C760.163 112.274 760.619 111.944 761.207 111.716C761.807 111.476 762.515 111.356 763.331 111.356C763.955 111.356 764.585 111.434 765.221 111.59C765.869 111.734 766.397 111.944 766.805 112.22L766.067 113.588C765.635 113.3 765.185 113.102 764.717 112.994C764.249 112.886 763.781 112.832 763.313 112.832C762.557 112.832 761.993 112.958 761.621 113.21C761.249 113.45 761.063 113.762 761.063 114.146C761.063 114.47 761.171 114.722 761.387 114.902C761.615 115.07 761.903 115.202 762.251 115.298C762.611 115.394 763.007 115.478 763.439 115.55C763.871 115.61 764.303 115.694 764.735 115.802C765.167 115.898 765.557 116.036 765.905 116.216C766.265 116.396 766.553 116.648 766.769 116.972C766.997 117.296 767.111 117.728 767.111 118.268C767.111 118.844 766.943 119.342 766.607 119.762C766.271 120.182 765.797 120.512 765.185 120.752C764.573 120.98 763.841 121.094 762.989 121.094ZM774.357 120.986V110.6C774.357 109.664 774.627 108.92 775.167 108.368C775.719 107.804 776.499 107.522 777.507 107.522C777.879 107.522 778.233 107.57 778.569 107.666C778.917 107.75 779.211 107.888 779.451 108.08L778.929 109.394C778.749 109.25 778.545 109.142 778.317 109.07C778.089 108.986 777.849 108.944 777.597 108.944C777.093 108.944 776.709 109.088 776.445 109.376C776.181 109.652 776.049 110.066 776.049 110.618V111.896L776.085 112.688V120.986H774.357ZM772.737 112.868V111.446H778.821V112.868H772.737ZM780.451 120.986V111.446H782.107V114.038L781.945 113.39C782.209 112.73 782.653 112.226 783.277 111.878C783.901 111.53 784.669 111.356 785.581 111.356V113.03C785.509 113.018 785.437 113.012 785.365 113.012C785.305 113.012 785.245 113.012 785.185 113.012C784.261 113.012 783.529 113.288 782.989 113.84C782.449 114.392 782.179 115.19 782.179 116.234V120.986H780.451ZM791.87 121.094C790.85 121.094 789.95 120.884 789.17 120.464C788.402 120.044 787.802 119.468 787.37 118.736C786.95 118.004 786.74 117.164 786.74 116.216C786.74 115.268 786.944 114.428 787.352 113.696C787.772 112.964 788.342 112.394 789.062 111.986C789.794 111.566 790.616 111.356 791.528 111.356C792.452 111.356 793.268 111.56 793.976 111.968C794.684 112.376 795.236 112.952 795.632 113.696C796.04 114.428 796.244 115.286 796.244 116.27C796.244 116.342 796.238 116.426 796.226 116.522C796.226 116.618 796.22 116.708 796.208 116.792H788.09V115.55H795.308L794.606 115.982C794.618 115.37 794.492 114.824 794.228 114.344C793.964 113.864 793.598 113.492 793.13 113.228C792.674 112.952 792.14 112.814 791.528 112.814C790.928 112.814 790.394 112.952 789.926 113.228C789.458 113.492 789.092 113.87 788.828 114.362C788.564 114.842 788.432 115.394 788.432 116.018V116.306C788.432 116.942 788.576 117.512 788.864 118.016C789.164 118.508 789.578 118.892 790.106 119.168C790.634 119.444 791.24 119.582 791.924 119.582C792.488 119.582 792.998 119.486 793.454 119.294C793.922 119.102 794.33 118.814 794.678 118.43L795.632 119.546C795.2 120.05 794.66 120.434 794.012 120.698C793.376 120.962 792.662 121.094 791.87 121.094ZM801.38 121.094C800.588 121.094 799.832 120.986 799.112 120.77C798.404 120.554 797.846 120.29 797.438 119.978L798.158 118.61C798.566 118.886 799.07 119.12 799.67 119.312C800.27 119.504 800.882 119.6 801.506 119.6C802.31 119.6 802.886 119.486 803.234 119.258C803.594 119.03 803.774 118.712 803.774 118.304C803.774 118.004 803.666 117.77 803.45 117.602C803.234 117.434 802.946 117.308 802.586 117.224C802.238 117.14 801.848 117.068 801.416 117.008C800.984 116.936 800.552 116.852 800.12 116.756C799.688 116.648 799.292 116.504 798.932 116.324C798.572 116.132 798.284 115.874 798.068 115.55C797.852 115.214 797.744 114.77 797.744 114.218C797.744 113.642 797.906 113.138 798.23 112.706C798.554 112.274 799.01 111.944 799.598 111.716C800.198 111.476 800.906 111.356 801.722 111.356C802.346 111.356 802.976 111.434 803.612 111.59C804.26 111.734 804.788 111.944 805.196 112.22L804.458 113.588C804.026 113.3 803.576 113.102 803.108 112.994C802.64 112.886 802.172 112.832 801.704 112.832C800.948 112.832 800.384 112.958 800.012 113.21C799.64 113.45 799.454 113.762 799.454 114.146C799.454 114.47 799.562 114.722 799.778 114.902C800.006 115.07 800.294 115.202 800.642 115.298C801.002 115.394 801.398 115.478 801.83 115.55C802.262 115.61 802.694 115.694 803.126 115.802C803.558 115.898 803.948 116.036 804.296 116.216C804.656 116.396 804.944 116.648 805.16 116.972C805.388 117.296 805.502 117.728 805.502 118.268C805.502 118.844 805.334 119.342 804.998 119.762C804.662 120.182 804.188 120.512 803.576 120.752C802.964 120.98 802.232 121.094 801.38 121.094ZM812.755 111.356C813.535 111.356 814.219 111.506 814.807 111.806C815.407 112.106 815.875 112.562 816.211 113.174C816.547 113.786 816.715 114.56 816.715 115.496V120.986H814.987V115.694C814.987 114.77 814.759 114.074 814.303 113.606C813.859 113.138 813.229 112.904 812.413 112.904C811.801 112.904 811.267 113.024 810.811 113.264C810.355 113.504 810.001 113.858 809.749 114.326C809.509 114.794 809.389 115.376 809.389 116.072V120.986H807.661V107.63H809.389V114.02L809.047 113.336C809.359 112.712 809.839 112.226 810.487 111.878C811.135 111.53 811.891 111.356 812.755 111.356ZM824.999 120.986V110.6C824.999 109.664 825.269 108.92 825.809 108.368C826.361 107.804 827.141 107.522 828.149 107.522C828.521 107.522 828.875 107.57 829.211 107.666C829.559 107.75 829.853 107.888 830.093 108.08L829.571 109.394C829.391 109.25 829.187 109.142 828.959 109.07C828.731 108.986 828.491 108.944 828.239 108.944C827.735 108.944 827.351 109.088 827.087 109.376C826.823 109.652 826.691 110.066 826.691 110.618V111.896L826.727 112.688V120.986H824.999ZM823.379 112.868V111.446H829.463V112.868H823.379ZM831.101 120.986V107.63H832.829V120.986H831.101ZM840.206 121.094C839.246 121.094 838.394 120.884 837.65 120.464C836.906 120.044 836.318 119.468 835.886 118.736C835.454 117.992 835.238 117.152 835.238 116.216C835.238 115.268 835.454 114.428 835.886 113.696C836.318 112.964 836.906 112.394 837.65 111.986C838.394 111.566 839.246 111.356 840.206 111.356C841.154 111.356 842 111.566 842.744 111.986C843.5 112.394 844.088 112.964 844.508 113.696C844.94 114.416 845.156 115.256 845.156 116.216C845.156 117.164 844.94 118.004 844.508 118.736C844.088 119.468 843.5 120.044 842.744 120.464C842 120.884 841.154 121.094 840.206 121.094ZM840.206 119.582C840.818 119.582 841.364 119.444 841.844 119.168C842.336 118.892 842.72 118.502 842.996 117.998C843.272 117.482 843.41 116.888 843.41 116.216C843.41 115.532 843.272 114.944 842.996 114.452C842.72 113.948 842.336 113.558 841.844 113.282C841.364 113.006 840.818 112.868 840.206 112.868C839.594 112.868 839.048 113.006 838.568 113.282C838.088 113.558 837.704 113.948 837.416 114.452C837.128 114.944 836.984 115.532 836.984 116.216C836.984 116.888 837.128 117.482 837.416 117.998C837.704 118.502 838.088 118.892 838.568 119.168C839.048 119.444 839.594 119.582 840.206 119.582ZM849.299 120.986L845.753 111.446H847.391L850.541 120.086H849.767L853.043 111.446H854.501L857.705 120.086H856.949L860.171 111.446H861.719L858.155 120.986H856.499L853.493 113.102H853.997L850.955 120.986H849.299ZM867.456 121.094C866.436 121.094 865.536 120.884 864.756 120.464C863.988 120.044 863.388 119.468 862.956 118.736C862.536 118.004 862.326 117.164 862.326 116.216C862.326 115.268 862.53 114.428 862.938 113.696C863.358 112.964 863.928 112.394 864.648 111.986C865.38 111.566 866.202 111.356 867.114 111.356C868.038 111.356 868.854 111.56 869.562 111.968C870.27 112.376 870.822 112.952 871.218 113.696C871.626 114.428 871.83 115.286 871.83 116.27C871.83 116.342 871.824 116.426 871.812 116.522C871.812 116.618 871.806 116.708 871.794 116.792H863.676V115.55H870.894L870.192 115.982C870.204 115.37 870.078 114.824 869.814 114.344C869.55 113.864 869.184 113.492 868.716 113.228C868.26 112.952 867.726 112.814 867.114 112.814C866.514 112.814 865.98 112.952 865.512 113.228C865.044 113.492 864.678 113.87 864.414 114.362C864.15 114.842 864.018 115.394 864.018 116.018V116.306C864.018 116.942 864.162 117.512 864.45 118.016C864.75 118.508 865.164 118.892 865.692 119.168C866.22 119.444 866.826 119.582 867.51 119.582C868.074 119.582 868.584 119.486 869.04 119.294C869.508 119.102 869.916 118.814 870.264 118.43L871.218 119.546C870.786 120.05 870.246 120.434 869.598 120.698C868.962 120.962 868.248 121.094 867.456 121.094ZM874.23 120.986V111.446H875.886V114.038L875.724 113.39C875.988 112.73 876.432 112.226 877.056 111.878C877.68 111.53 878.448 111.356 879.36 111.356V113.03C879.288 113.018 879.216 113.012 879.144 113.012C879.084 113.012 879.024 113.012 878.964 113.012C878.04 113.012 877.308 113.288 876.768 113.84C876.228 114.392 875.958 115.19 875.958 116.234V120.986H874.23ZM884.331 121.094C883.539 121.094 882.783 120.986 882.063 120.77C881.355 120.554 880.797 120.29 880.389 119.978L881.109 118.61C881.517 118.886 882.021 119.12 882.621 119.312C883.221 119.504 883.833 119.6 884.457 119.6C885.261 119.6 885.837 119.486 886.185 119.258C886.545 119.03 886.725 118.712 886.725 118.304C886.725 118.004 886.617 117.77 886.401 117.602C886.185 117.434 885.897 117.308 885.537 117.224C885.189 117.14 884.799 117.068 884.367 117.008C883.935 116.936 883.503 116.852 883.071 116.756C882.639 116.648 882.243 116.504 881.883 116.324C881.523 116.132 881.235 115.874 881.019 115.55C880.803 115.214 880.695 114.77 880.695 114.218C880.695 113.642 880.857 113.138 881.181 112.706C881.505 112.274 881.961 111.944 882.549 111.716C883.149 111.476 883.857 111.356 884.673 111.356C885.297 111.356 885.927 111.434 886.563 111.59C887.211 111.734 887.739 111.944 888.147 112.22L887.409 113.588C886.977 113.3 886.527 113.102 886.059 112.994C885.591 112.886 885.123 112.832 884.655 112.832C883.899 112.832 883.335 112.958 882.963 113.21C882.591 113.45 882.405 113.762 882.405 114.146C882.405 114.47 882.513 114.722 882.729 114.902C882.957 115.07 883.245 115.202 883.593 115.298C883.953 115.394 884.349 115.478 884.781 115.55C885.213 115.61 885.645 115.694 886.077 115.802C886.509 115.898 886.899 116.036 887.247 116.216C887.607 116.396 887.895 116.648 888.111 116.972C888.339 117.296 888.453 117.728 888.453 118.268C888.453 118.844 888.285 119.342 887.949 119.762C887.613 120.182 887.139 120.512 886.527 120.752C885.915 120.98 885.183 121.094 884.331 121.094Z" fill="#161616"/>
<path d="M1025.32 15.5581V10.7729C1025.31 10.0336 1025.01 9.32581 1024.49 8.80271C1023.96 8.2796 1023.24 7.98322 1022.49 7.97769H1014.41C1013.66 7.98234 1012.94 8.28073 1012.41 8.80772C1011.88 9.33471 1011.58 10.0475 1011.58 10.7905V15.5581C1011.58 16.3041 1011.88 17.0195 1012.41 17.547C1012.95 18.0745 1013.67 18.3708 1014.43 18.3708H1022.49C1023.24 18.3653 1023.96 18.0665 1024.49 17.5396C1025.02 17.0127 1025.32 16.3004 1025.32 15.5581ZM1014.01 15.5581V10.7729C1014.01 10.6666 1014.05 10.5646 1014.12 10.4895C1014.2 10.4143 1014.3 10.3721 1014.41 10.3721H1022.49C1022.6 10.373 1022.7 10.4156 1022.78 10.4907C1022.85 10.5658 1022.89 10.6672 1022.89 10.7729V15.5581C1022.89 15.6638 1022.85 15.7652 1022.78 15.8403C1022.7 15.9153 1022.6 15.958 1022.49 15.9589H1014.41C1014.3 15.958 1014.2 15.9155 1014.13 15.8405C1014.05 15.7655 1014.01 15.6641 1014.01 15.5581ZM1019.75 24.2882C1019.92 24.2794 1020.08 24.3038 1020.24 24.36C1020.39 24.4162 1020.53 24.5029 1020.65 24.615C1020.77 24.727 1020.87 24.8619 1020.93 25.0116C1021 25.1613 1021.03 25.3225 1021.03 25.4854C1021.03 25.6483 1021 25.8095 1020.93 25.9591C1020.87 26.1088 1020.77 26.2438 1020.65 26.3558C1020.53 26.4678 1020.39 26.5546 1020.24 26.6108C1020.08 26.6669 1019.92 26.6914 1019.75 26.6826H1012.79C1012.48 26.666 1012.19 26.5326 1011.98 26.3099C1011.76 26.0872 1011.65 25.7921 1011.65 25.4854C1011.65 25.1786 1011.76 24.8836 1011.98 24.6609C1012.19 24.4382 1012.48 24.3048 1012.79 24.2882H1019.75ZM1025.56 24.2882H1032.52C1032.83 24.3048 1033.12 24.4382 1033.33 24.6609C1033.55 24.8836 1033.66 25.1786 1033.66 25.4854C1033.66 25.7921 1033.55 26.0872 1033.33 26.3099C1033.12 26.5326 1032.83 26.666 1032.52 26.6826H1025.56C1025.25 26.666 1024.96 26.5326 1024.74 26.3099C1024.53 26.0872 1024.41 25.7921 1024.41 25.4854C1024.41 25.1786 1024.53 24.8836 1024.74 24.6609C1024.96 24.4382 1025.25 24.3048 1025.56 24.2882ZM1038.32 26.6826C1038.01 26.666 1037.72 26.5326 1037.5 26.3099C1037.29 26.0872 1037.17 25.7921 1037.17 25.4854C1037.17 25.1786 1037.29 24.8836 1037.5 24.6609C1037.72 24.4382 1038.01 24.3048 1038.32 24.2882H1045.28C1045.59 24.3048 1045.88 24.4382 1046.1 24.6609C1046.31 24.8836 1046.43 25.1786 1046.43 25.4854C1046.43 25.7921 1046.31 26.0872 1046.1 26.3099C1045.88 26.5326 1045.59 26.666 1045.28 26.6826H1038.32ZM1058.05 26.6826H1051.08C1050.77 26.666 1050.48 26.5326 1050.27 26.3099C1050.05 26.0872 1049.93 25.7921 1049.93 25.4854C1049.93 25.1786 1050.05 24.8836 1050.27 24.6609C1050.48 24.4382 1050.77 24.3048 1051.08 24.2882H1058.05C1058.21 24.2794 1058.37 24.3038 1058.53 24.36C1058.68 24.4162 1058.83 24.5029 1058.95 24.615C1059.07 24.727 1059.16 24.8619 1059.23 25.0116C1059.29 25.1613 1059.33 25.3225 1059.33 25.4854C1059.33 25.6483 1059.29 25.8095 1059.23 25.9591C1059.16 26.1088 1059.07 26.2438 1058.95 26.3558C1058.83 26.4678 1058.68 26.5546 1058.53 26.6108C1058.37 26.6669 1058.21 26.6914 1058.05 26.6826ZM1025.91 33.5633H1012.79C1012.63 33.5721 1012.46 33.5477 1012.31 33.4915C1012.16 33.4353 1012.01 33.3485 1011.89 33.2365C1011.77 33.1245 1011.68 32.9895 1011.61 32.8399C1011.55 32.6902 1011.51 32.529 1011.51 32.3661C1011.51 32.2032 1011.55 32.042 1011.61 31.8923C1011.68 31.7427 1011.77 31.6077 1011.89 31.4957C1012.01 31.3836 1012.16 31.2969 1012.31 31.2407C1012.46 31.1845 1012.63 31.1601 1012.79 31.1689H1025.91C1026.22 31.1855 1026.51 31.3189 1026.72 31.5416C1026.94 31.7643 1027.06 32.0593 1027.06 32.3661C1027.06 32.6728 1026.94 32.9679 1026.72 33.1906C1026.51 33.4133 1026.22 33.5467 1025.91 33.5633ZM1032.97 31.1689H1051.37C1051.68 31.1855 1051.97 31.3189 1052.18 31.5416C1052.4 31.7643 1052.52 32.0593 1052.52 32.3661C1052.52 32.6728 1052.4 32.9679 1052.18 33.1906C1051.97 33.4133 1051.68 33.5467 1051.37 33.5633H1032.97C1032.66 33.5467 1032.37 33.4133 1032.16 33.1906C1031.94 32.9679 1031.82 32.6728 1031.82 32.3661C1031.82 32.0593 1031.94 31.7643 1032.16 31.5416C1032.37 31.3189 1032.66 31.1855 1032.97 31.1689ZM1054.01 7.96363C1052.77 7.96656 1051.57 8.40536 1050.63 9.20125C1049.87 8.56601 1048.94 8.15915 1047.95 8.02858C1046.96 7.898 1045.95 8.04916 1045.05 8.46423C1044.14 8.87931 1043.38 9.54102 1042.84 10.3714C1042.31 11.2018 1042.02 12.1664 1042.02 13.1514C1042.02 14.1365 1042.31 15.101 1042.84 15.9314C1043.38 16.7618 1044.14 17.4235 1045.05 17.8386C1045.95 18.2537 1046.96 18.4048 1047.95 18.2743C1048.94 18.1437 1049.87 17.7368 1050.63 17.1016C1051.28 17.6379 1052.04 18.0127 1052.87 18.194C1053.69 18.3752 1054.55 18.3578 1055.36 18.143C1056.18 17.9282 1056.93 17.5225 1057.55 16.9602C1058.17 16.398 1058.65 15.6958 1058.94 14.9132C1059.23 14.1306 1059.32 13.2908 1059.21 12.4649C1059.1 11.639 1058.79 10.8515 1058.31 10.1691C1057.82 9.4867 1057.18 8.9296 1056.43 8.54505C1055.68 8.1605 1054.85 7.95985 1054.01 7.96011V7.96363ZM1047.27 15.9448C1046.58 15.8642 1045.94 15.5352 1045.47 15.0203C1045.01 14.5054 1044.75 13.8404 1044.75 13.1514C1044.75 12.4624 1045.01 11.7974 1045.47 11.2825C1045.94 10.7676 1046.58 10.4386 1047.27 10.358C1048.02 10.358 1048.74 10.653 1049.28 11.1782C1049.81 11.7034 1050.11 12.4157 1050.11 13.1584C1050.11 13.9012 1049.81 14.6135 1049.28 15.1387C1048.74 15.6639 1048.02 15.9589 1047.27 15.9589V15.9448ZM1054.01 15.9448C1053.3 15.9452 1052.61 15.6802 1052.09 15.203C1052.37 14.5553 1052.52 13.8571 1052.52 13.1514C1052.52 12.4457 1052.37 11.7476 1052.09 11.0999C1052.43 10.8039 1052.83 10.5932 1053.27 10.4857C1053.71 10.3783 1054.17 10.3771 1054.61 10.4824C1055.05 10.5877 1055.46 10.7964 1055.8 11.0906C1056.14 11.3849 1056.41 11.7561 1056.57 12.1726C1056.74 12.5892 1056.8 13.0388 1056.75 13.4832C1056.7 13.9277 1056.54 14.3539 1056.29 14.7256C1056.04 15.0973 1055.7 15.4035 1055.3 15.6182C1054.9 15.8329 1054.46 15.9498 1054.01 15.9589V15.9448ZM1009.55 47.8697C1006.51 48.2213 1003.55 46.8149 1003.5 43.4818V4.38791C1003.5 3.22445 1003.97 2.10891 1004.8 1.28622C1005.64 0.463526 1006.77 0.000931141 1007.94 0L1062.9 0C1064.07 0.000931141 1065.2 0.463526 1066.04 1.28622C1066.87 2.10891 1067.34 3.22445 1067.34 4.38791V34.7024C1067.32 35.0087 1067.19 35.297 1066.96 35.508C1066.74 35.7189 1066.44 35.8365 1066.13 35.8365C1065.82 35.8365 1065.52 35.7189 1065.29 35.508C1065.07 35.297 1064.93 35.0087 1064.91 34.7024V4.38791C1064.91 3.85919 1064.7 3.35212 1064.32 2.97826C1063.94 2.6044 1063.43 2.39436 1062.9 2.39436H1007.94C1007.41 2.39436 1006.9 2.6044 1006.52 2.97826C1006.14 3.35212 1005.93 3.85919 1005.93 4.38791V43.4818C1005.99 45.5527 1007.99 45.5597 1009.56 45.4753C1009.87 45.4928 1010.16 45.627 1010.38 45.8503C1010.59 46.0736 1010.71 46.3691 1010.71 46.6758C1010.71 46.9826 1010.59 47.2773 1010.37 47.4994C1010.16 47.7215 1009.86 47.854 1009.55 47.8697ZM1082.28 38.2957H1014.41C1014.09 38.2957 1013.78 38.4221 1013.55 38.6469C1013.32 38.8717 1013.2 39.1767 1013.2 39.4947V77.7869C1013.2 77.9444 1013.23 78.1003 1013.29 78.2457C1013.35 78.3912 1013.44 78.5234 1013.55 78.6347C1013.67 78.746 1013.8 78.8343 1013.95 78.8946C1014.09 78.9548 1014.25 78.9858 1014.41 78.9858H1082.29C1082.61 78.9849 1082.92 78.8582 1083.15 78.6334C1083.37 78.4087 1083.5 78.1043 1083.5 77.7869V39.4947C1083.5 39.3374 1083.47 39.1816 1083.41 39.0361C1083.35 38.8907 1083.26 38.7585 1083.15 38.6471C1083.03 38.5357 1082.9 38.4474 1082.75 38.3871C1082.61 38.3268 1082.45 38.2957 1082.29 38.2957H1082.28ZM1081.07 76.5915H1015.61V40.6901H1081.06L1081.07 76.5915ZM1021.68 67.0176C1022.65 67.0185 1023.57 67.397 1024.25 68.07C1024.93 68.743 1025.32 69.6556 1025.32 70.6073C1025.32 70.9244 1025.45 71.2284 1025.67 71.4526C1025.9 71.6768 1026.21 71.8028 1026.53 71.8028H1070.17C1070.49 71.8028 1070.8 71.6768 1071.02 71.4526C1071.25 71.2284 1071.38 70.9244 1071.38 70.6073C1071.38 69.6558 1071.76 68.7438 1072.45 68.071C1073.13 67.3982 1074.05 67.0194 1075.01 67.0176C1075.34 67.0176 1075.64 66.8917 1075.87 66.6676C1076.1 66.4436 1076.23 66.1395 1076.23 65.8221V51.4595C1076.23 51.1421 1076.1 50.838 1075.87 50.614C1075.64 50.3899 1075.34 50.264 1075.01 50.264C1074.05 50.2622 1073.13 49.8834 1072.45 49.2106C1071.76 48.5378 1071.38 47.6258 1071.38 46.6743C1071.38 46.517 1071.35 46.3611 1071.29 46.2157C1071.23 46.0703 1071.14 45.9381 1071.02 45.8267C1070.91 45.7153 1070.78 45.6269 1070.63 45.5666C1070.48 45.5064 1070.33 45.4753 1070.17 45.4753H1026.53C1026.37 45.4753 1026.21 45.5064 1026.07 45.5666C1025.92 45.6269 1025.78 45.7153 1025.67 45.8267C1025.56 45.9381 1025.47 46.0703 1025.41 46.2157C1025.35 46.3611 1025.32 46.517 1025.32 46.6743C1025.32 47.1467 1025.23 47.6148 1025.05 48.0518C1024.86 48.4887 1024.6 48.8859 1024.26 49.2207C1023.92 49.5554 1023.52 49.8211 1023.08 50.0026C1022.64 50.184 1022.16 50.2776 1021.68 50.2781C1021.36 50.2781 1021.05 50.4039 1020.83 50.628C1020.6 50.8521 1020.47 51.1562 1020.47 51.4735V65.8362C1020.47 66.1511 1020.6 66.4516 1020.83 66.6726C1021.06 66.8937 1021.36 67.0176 1021.68 67.0176ZM1022.89 52.5353C1024.06 52.2991 1025.13 51.7313 1025.97 50.902C1026.81 50.0728 1027.38 49.0186 1027.62 47.8697H1069.08C1069.31 49.0195 1069.89 50.075 1070.73 50.9047C1071.57 51.7343 1072.64 52.3015 1073.8 52.5353V64.7462C1072.64 64.9801 1071.57 65.5473 1070.73 66.3769C1069.89 67.2066 1069.31 68.2621 1069.08 69.4119H1027.62C1027.38 68.263 1026.81 67.2088 1025.97 66.3795C1025.13 65.5503 1024.06 64.9825 1022.89 64.7462V52.5353ZM1034.36 63.4348C1035.62 63.401 1036.82 62.8818 1037.7 61.9878C1038.58 61.0937 1039.08 59.8954 1039.08 58.6478C1039.08 57.4002 1038.58 56.2019 1037.7 55.3079C1036.82 54.4138 1035.62 53.8947 1034.36 53.8609C1033.11 53.9186 1031.94 54.4478 1031.08 55.3386C1030.21 56.2293 1029.73 57.4132 1029.73 58.6443C1029.73 59.8755 1030.21 61.0593 1031.08 61.9501C1031.94 62.8408 1033.11 63.37 1034.36 63.4278V63.4348ZM1034.36 56.2552C1034.98 56.2789 1035.58 56.5414 1036.01 56.9875C1036.45 57.4336 1036.69 58.0287 1036.69 58.6478C1036.69 59.267 1036.45 59.862 1036.01 60.3081C1035.58 60.7543 1034.98 61.0167 1034.36 61.0404C1033.73 61.0167 1033.14 60.7543 1032.7 60.3081C1032.27 59.862 1032.02 59.267 1032.02 58.6478C1032.02 58.0287 1032.27 57.4336 1032.7 56.9875C1033.14 56.5414 1033.73 56.2789 1034.36 56.2552ZM1062.64 63.4348C1063.9 63.401 1065.1 62.8818 1065.98 61.9878C1066.86 61.0937 1067.36 59.8954 1067.36 58.6478C1067.36 57.4002 1066.86 56.2019 1065.98 55.3079C1065.1 54.4138 1063.9 53.8947 1062.64 53.8609C1061.39 53.9186 1060.22 54.4478 1059.36 55.3386C1058.5 56.2293 1058.02 57.4132 1058.02 58.6443C1058.02 59.8755 1058.5 61.0593 1059.36 61.9501C1060.22 62.8408 1061.39 63.37 1062.64 63.4278V63.4348ZM1062.64 56.2552C1063.27 56.2789 1063.86 56.5414 1064.29 56.9875C1064.73 57.4336 1064.97 58.0287 1064.97 58.6478C1064.97 59.267 1064.73 59.862 1064.29 60.3081C1063.86 60.7543 1063.27 61.0167 1062.64 61.0404C1062.01 61.0167 1061.42 60.7543 1060.98 60.3081C1060.55 59.862 1060.31 59.267 1060.31 58.6478C1060.31 58.0287 1060.55 57.4336 1060.98 56.9875C1061.42 56.5414 1062.01 56.2789 1062.64 56.2552ZM1047.13 50.7176C1047.04 49.8316 1047.19 48.6748 1048.34 48.6748C1049.49 48.6748 1049.64 49.8281 1049.55 50.7141C1050.32 50.8734 1051.04 51.212 1051.64 51.7013C1052.25 52.1907 1052.73 52.8167 1053.05 53.5268C1053.15 53.8162 1053.14 54.1353 1053.02 54.4178C1052.89 54.7002 1052.66 54.9244 1052.38 55.0438C1052.09 55.1633 1051.76 55.1687 1051.47 55.0591C1051.18 54.9494 1050.94 54.7331 1050.81 54.4551C1049.95 52.1732 1045.66 52.7287 1045.72 55.2215C1045.72 56.7299 1046.58 57.4647 1048.34 57.4647C1049.57 57.3062 1050.81 57.6357 1051.79 58.3808C1052.77 59.1259 1053.42 60.2255 1053.58 61.4377C1053.74 62.65 1053.4 63.8755 1052.65 64.8448C1051.89 65.8141 1050.78 66.4477 1049.55 66.6062C1049.64 67.4922 1049.48 68.6419 1048.34 68.6454C1047.2 68.6489 1047.04 67.4887 1047.13 66.6027C1046.37 66.441 1045.65 66.1015 1045.05 65.6122C1044.44 65.1229 1043.97 64.4982 1043.65 63.7899C1043.53 63.4976 1043.53 63.1681 1043.65 62.874C1043.77 62.58 1044 62.3453 1044.3 62.2218C1044.6 62.0982 1044.93 62.0959 1045.23 62.2152C1045.52 62.3346 1045.76 62.5658 1045.89 62.8582C1046.75 65.1435 1051.04 64.5845 1050.98 62.0952C1050.98 60.608 1050.09 59.852 1048.34 59.852C1047.11 60.0106 1045.87 59.681 1044.89 58.936C1043.91 58.1909 1043.27 57.0912 1043.11 55.879C1042.95 54.6668 1043.28 53.4412 1044.03 52.472C1044.79 51.5027 1045.9 50.8691 1047.13 50.7106V50.7176Z" fill="#161616"/>
<path d="M980.89 120.986V108.386H986.542C987.994 108.386 989.11 108.68 989.89 109.268C990.67 109.844 991.06 110.636 991.06 111.644C991.06 112.328 990.904 112.904 990.592 113.372C990.292 113.84 989.884 114.2 989.368 114.452C988.852 114.704 988.294 114.83 987.694 114.83L988.018 114.29C988.738 114.29 989.374 114.416 989.926 114.668C990.478 114.92 990.916 115.292 991.24 115.784C991.564 116.264 991.726 116.864 991.726 117.584C991.726 118.664 991.318 119.504 990.502 120.104C989.698 120.692 988.498 120.986 986.902 120.986H980.89ZM982.69 119.528H986.83C987.826 119.528 988.588 119.36 989.116 119.024C989.644 118.688 989.908 118.16 989.908 117.44C989.908 116.708 989.644 116.174 989.116 115.838C988.588 115.502 987.826 115.334 986.83 115.334H982.528V113.876H986.38C987.292 113.876 988 113.708 988.504 113.372C989.008 113.036 989.26 112.532 989.26 111.86C989.26 111.188 989.008 110.684 988.504 110.348C988 110.012 987.292 109.844 986.38 109.844H982.69V119.528ZM998.347 121.094C997.387 121.094 996.535 120.884 995.791 120.464C995.047 120.044 994.459 119.468 994.027 118.736C993.595 117.992 993.379 117.152 993.379 116.216C993.379 115.268 993.595 114.428 994.027 113.696C994.459 112.964 995.047 112.394 995.791 111.986C996.535 111.566 997.387 111.356 998.347 111.356C999.295 111.356 1000.14 111.566 1000.89 111.986C1001.64 112.394 1002.23 112.964 1002.65 113.696C1003.08 114.416 1003.3 115.256 1003.3 116.216C1003.3 117.164 1003.08 118.004 1002.65 118.736C1002.23 119.468 1001.64 120.044 1000.89 120.464C1000.14 120.884 999.295 121.094 998.347 121.094ZM998.347 119.582C998.959 119.582 999.505 119.444 999.985 119.168C1000.48 118.892 1000.86 118.502 1001.14 117.998C1001.41 117.482 1001.55 116.888 1001.55 116.216C1001.55 115.532 1001.41 114.944 1001.14 114.452C1000.86 113.948 1000.48 113.558 999.985 113.282C999.505 113.006 998.959 112.868 998.347 112.868C997.735 112.868 997.189 113.006 996.709 113.282C996.229 113.558 995.845 113.948 995.557 114.452C995.269 114.944 995.125 115.532 995.125 116.216C995.125 116.888 995.269 117.482 995.557 117.998C995.845 118.502 996.229 118.892 996.709 119.168C997.189 119.444 997.735 119.582 998.347 119.582ZM1010.78 111.356C1011.56 111.356 1012.24 111.506 1012.83 111.806C1013.43 112.106 1013.9 112.562 1014.24 113.174C1014.57 113.786 1014.74 114.56 1014.74 115.496V120.986H1013.01V115.694C1013.01 114.77 1012.78 114.074 1012.33 113.606C1011.88 113.138 1011.25 112.904 1010.44 112.904C1009.83 112.904 1009.29 113.024 1008.84 113.264C1008.38 113.504 1008.03 113.858 1007.77 114.326C1007.53 114.794 1007.41 115.376 1007.41 116.072V120.986H1005.69V111.446H1007.34V114.02L1007.07 113.336C1007.38 112.712 1007.86 112.226 1008.51 111.878C1009.16 111.53 1009.92 111.356 1010.78 111.356ZM1021.95 121.094C1021.14 121.094 1020.42 120.944 1019.79 120.644C1019.18 120.344 1018.7 119.888 1018.35 119.276C1018.02 118.652 1017.85 117.872 1017.85 116.936V111.446H1019.58V116.738C1019.58 117.674 1019.8 118.376 1020.24 118.844C1020.7 119.312 1021.33 119.546 1022.15 119.546C1022.75 119.546 1023.27 119.426 1023.72 119.186C1024.16 118.934 1024.5 118.574 1024.74 118.106C1024.98 117.626 1025.1 117.05 1025.1 116.378V111.446H1026.83V120.986H1025.19V118.412L1025.46 119.096C1025.15 119.732 1024.68 120.224 1024.06 120.572C1023.43 120.92 1022.73 121.094 1021.95 121.094ZM1032.86 121.094C1032.06 121.094 1031.31 120.986 1030.59 120.77C1029.88 120.554 1029.32 120.29 1028.91 119.978L1029.63 118.61C1030.04 118.886 1030.55 119.12 1031.15 119.312C1031.75 119.504 1032.36 119.6 1032.98 119.6C1033.79 119.6 1034.36 119.486 1034.71 119.258C1035.07 119.03 1035.25 118.712 1035.25 118.304C1035.25 118.004 1035.14 117.77 1034.93 117.602C1034.71 117.434 1034.42 117.308 1034.06 117.224C1033.71 117.14 1033.32 117.068 1032.89 117.008C1032.46 116.936 1032.03 116.852 1031.6 116.756C1031.16 116.648 1030.77 116.504 1030.41 116.324C1030.05 116.132 1029.76 115.874 1029.54 115.55C1029.33 115.214 1029.22 114.77 1029.22 114.218C1029.22 113.642 1029.38 113.138 1029.71 112.706C1030.03 112.274 1030.49 111.944 1031.07 111.716C1031.67 111.476 1032.38 111.356 1033.2 111.356C1033.82 111.356 1034.45 111.434 1035.09 111.59C1035.74 111.734 1036.26 111.944 1036.67 112.22L1035.93 113.588C1035.5 113.3 1035.05 113.102 1034.58 112.994C1034.12 112.886 1033.65 112.832 1033.18 112.832C1032.42 112.832 1031.86 112.958 1031.49 113.21C1031.12 113.45 1030.93 113.762 1030.93 114.146C1030.93 114.47 1031.04 114.722 1031.25 114.902C1031.48 115.07 1031.77 115.202 1032.12 115.298C1032.48 115.394 1032.87 115.478 1033.31 115.55C1033.74 115.61 1034.17 115.694 1034.6 115.802C1035.03 115.898 1035.42 116.036 1035.77 116.216C1036.13 116.396 1036.42 116.648 1036.64 116.972C1036.86 117.296 1036.98 117.728 1036.98 118.268C1036.98 118.844 1036.81 119.342 1036.47 119.762C1036.14 120.182 1035.66 120.512 1035.05 120.752C1034.44 120.98 1033.71 121.094 1032.86 121.094ZM1046.71 121.094C1045.92 121.094 1045.16 120.986 1044.44 120.77C1043.73 120.554 1043.17 120.29 1042.77 119.978L1043.49 118.61C1043.89 118.886 1044.4 119.12 1045 119.312C1045.6 119.504 1046.21 119.6 1046.83 119.6C1047.64 119.6 1048.21 119.486 1048.56 119.258C1048.92 119.03 1049.1 118.712 1049.1 118.304C1049.1 118.004 1048.99 117.77 1048.78 117.602C1048.56 117.434 1048.27 117.308 1047.91 117.224C1047.57 117.14 1047.18 117.068 1046.74 117.008C1046.31 116.936 1045.88 116.852 1045.45 116.756C1045.02 116.648 1044.62 116.504 1044.26 116.324C1043.9 116.132 1043.61 115.874 1043.4 115.55C1043.18 115.214 1043.07 114.77 1043.07 114.218C1043.07 113.642 1043.23 113.138 1043.56 112.706C1043.88 112.274 1044.34 111.944 1044.93 111.716C1045.53 111.476 1046.23 111.356 1047.05 111.356C1047.67 111.356 1048.3 111.434 1048.94 111.59C1049.59 111.734 1050.12 111.944 1050.52 112.22L1049.79 113.588C1049.35 113.3 1048.9 113.102 1048.44 112.994C1047.97 112.886 1047.5 112.832 1047.03 112.832C1046.28 112.832 1045.71 112.958 1045.34 113.21C1044.97 113.45 1044.78 113.762 1044.78 114.146C1044.78 114.47 1044.89 114.722 1045.11 114.902C1045.33 115.07 1045.62 115.202 1045.97 115.298C1046.33 115.394 1046.73 115.478 1047.16 115.55C1047.59 115.61 1048.02 115.694 1048.45 115.802C1048.89 115.898 1049.28 116.036 1049.62 116.216C1049.98 116.396 1050.27 116.648 1050.49 116.972C1050.72 117.296 1050.83 117.728 1050.83 118.268C1050.83 118.844 1050.66 119.342 1050.33 119.762C1049.99 120.182 1049.52 120.512 1048.9 120.752C1048.29 120.98 1047.56 121.094 1046.71 121.094ZM1053.23 124.586C1052.77 124.586 1052.33 124.508 1051.9 124.352C1051.46 124.208 1051.09 123.992 1050.78 123.704L1051.52 122.408C1051.76 122.636 1052.02 122.81 1052.31 122.93C1052.6 123.05 1052.9 123.11 1053.23 123.11C1053.65 123.11 1054 123.002 1054.27 122.786C1054.55 122.57 1054.81 122.186 1055.05 121.634L1055.64 120.32L1055.82 120.104L1059.56 111.446H1061.26L1056.63 121.94C1056.35 122.612 1056.04 123.14 1055.69 123.524C1055.36 123.908 1054.99 124.178 1054.58 124.334C1054.17 124.502 1053.72 124.586 1053.23 124.586ZM1055.5 121.292L1051.14 111.446H1052.94L1056.65 119.942L1055.5 121.292ZM1065.48 121.094C1064.69 121.094 1063.93 120.986 1063.21 120.77C1062.51 120.554 1061.95 120.29 1061.54 119.978L1062.26 118.61C1062.67 118.886 1063.17 119.12 1063.77 119.312C1064.37 119.504 1064.98 119.6 1065.61 119.6C1066.41 119.6 1066.99 119.486 1067.34 119.258C1067.7 119.03 1067.88 118.712 1067.88 118.304C1067.88 118.004 1067.77 117.77 1067.55 117.602C1067.34 117.434 1067.05 117.308 1066.69 117.224C1066.34 117.14 1065.95 117.068 1065.52 117.008C1065.09 116.936 1064.65 116.852 1064.22 116.756C1063.79 116.648 1063.39 116.504 1063.03 116.324C1062.67 116.132 1062.39 115.874 1062.17 115.55C1061.95 115.214 1061.85 114.77 1061.85 114.218C1061.85 113.642 1062.01 113.138 1062.33 112.706C1062.66 112.274 1063.11 111.944 1063.7 111.716C1064.3 111.476 1065.01 111.356 1065.82 111.356C1066.45 111.356 1067.08 111.434 1067.71 111.59C1068.36 111.734 1068.89 111.944 1069.3 112.22L1068.56 113.588C1068.13 113.3 1067.68 113.102 1067.21 112.994C1066.74 112.886 1066.27 112.832 1065.81 112.832C1065.05 112.832 1064.49 112.958 1064.11 113.21C1063.74 113.45 1063.56 113.762 1063.56 114.146C1063.56 114.47 1063.66 114.722 1063.88 114.902C1064.11 115.07 1064.4 115.202 1064.74 115.298C1065.1 115.394 1065.5 115.478 1065.93 115.55C1066.36 115.61 1066.8 115.694 1067.23 115.802C1067.66 115.898 1068.05 116.036 1068.4 116.216C1068.76 116.396 1069.05 116.648 1069.26 116.972C1069.49 117.296 1069.6 117.728 1069.6 118.268C1069.6 118.844 1069.44 119.342 1069.1 119.762C1068.76 120.182 1068.29 120.512 1067.68 120.752C1067.07 120.98 1066.33 121.094 1065.48 121.094ZM1075.04 121.094C1074.08 121.094 1073.34 120.836 1072.81 120.32C1072.28 119.804 1072.02 119.066 1072.02 118.106V109.358H1073.74V118.034C1073.74 118.55 1073.87 118.946 1074.12 119.222C1074.39 119.498 1074.76 119.636 1075.24 119.636C1075.78 119.636 1076.23 119.486 1076.59 119.186L1077.13 120.428C1076.86 120.656 1076.55 120.824 1076.17 120.932C1075.81 121.04 1075.44 121.094 1075.04 121.094ZM1070.4 112.868V111.446H1076.48V112.868H1070.4ZM1083.15 121.094C1082.13 121.094 1081.23 120.884 1080.45 120.464C1079.68 120.044 1079.08 119.468 1078.65 118.736C1078.23 118.004 1078.02 117.164 1078.02 116.216C1078.02 115.268 1078.22 114.428 1078.63 113.696C1079.05 112.964 1079.62 112.394 1080.34 111.986C1081.07 111.566 1081.89 111.356 1082.81 111.356C1083.73 111.356 1084.55 111.56 1085.25 111.968C1085.96 112.376 1086.51 112.952 1086.91 113.696C1087.32 114.428 1087.52 115.286 1087.52 116.27C1087.52 116.342 1087.52 116.426 1087.5 116.522C1087.5 116.618 1087.5 116.708 1087.49 116.792H1079.37V115.55H1086.59L1085.88 115.982C1085.9 115.37 1085.77 114.824 1085.51 114.344C1085.24 113.864 1084.88 113.492 1084.41 113.228C1083.95 112.952 1083.42 112.814 1082.81 112.814C1082.21 112.814 1081.67 112.952 1081.2 113.228C1080.74 113.492 1080.37 113.87 1080.11 114.362C1079.84 114.842 1079.71 115.394 1079.71 116.018V116.306C1079.71 116.942 1079.85 117.512 1080.14 118.016C1080.44 118.508 1080.86 118.892 1081.38 119.168C1081.91 119.444 1082.52 119.582 1083.2 119.582C1083.77 119.582 1084.28 119.486 1084.73 119.294C1085.2 119.102 1085.61 118.814 1085.96 118.43L1086.91 119.546C1086.48 120.05 1085.94 120.434 1085.29 120.698C1084.65 120.962 1083.94 121.094 1083.15 121.094ZM1101.86 111.356C1102.62 111.356 1103.3 111.506 1103.89 111.806C1104.48 112.106 1104.93 112.562 1105.26 113.174C1105.59 113.786 1105.76 114.56 1105.76 115.496V120.986H1104.03V115.694C1104.03 114.77 1103.82 114.074 1103.39 113.606C1102.95 113.138 1102.35 112.904 1101.57 112.904C1100.99 112.904 1100.49 113.024 1100.06 113.264C1099.62 113.504 1099.29 113.858 1099.05 114.326C1098.82 114.794 1098.71 115.376 1098.71 116.072V120.986H1096.98V115.694C1096.98 114.77 1096.76 114.074 1096.33 113.606C1095.91 113.138 1095.3 112.904 1094.51 112.904C1093.95 112.904 1093.45 113.024 1093.02 113.264C1092.59 113.504 1092.25 113.858 1092.01 114.326C1091.77 114.794 1091.65 115.376 1091.65 116.072V120.986H1089.92V111.446H1091.58V113.984L1091.31 113.336C1091.61 112.712 1092.07 112.226 1092.69 111.878C1093.32 111.53 1094.04 111.356 1094.87 111.356C1095.78 111.356 1096.57 111.584 1097.23 112.04C1097.89 112.484 1098.32 113.162 1098.53 114.074L1097.82 113.786C1098.11 113.054 1098.62 112.466 1099.34 112.022C1100.06 111.578 1100.9 111.356 1101.86 111.356Z" fill="#161616"/>
</svg>
