<svg width="118" height="24" viewBox="0 0 118 24" fill="none" xmlns="http://www.w3.org/2000/svg">
<path d="M17.6794 5.67238C17.6794 4.98051 18.2682 4.41964 18.9947 4.41964C19.7211 4.41964 20.31 4.98051 20.31 5.67238C20.31 6.36424 19.7211 6.92512 18.9947 6.92512C18.2682 6.92512 17.6794 6.36424 17.6794 5.67238Z" fill="black"/>
<path fill-rule="evenodd" clip-rule="evenodd" d="M12.4182 5.98556C8.96774 5.98556 6.17057 8.64971 6.17057 11.9361C6.17057 15.2225 8.96774 17.8866 12.4182 17.8866C15.8688 17.8866 18.6659 15.2225 18.6659 11.9361C18.6659 8.64971 15.8688 5.98556 12.4182 5.98556ZM8.14351 11.9361C8.14351 9.68754 10.0574 7.86468 12.4182 7.86468C14.779 7.86468 16.6929 9.68754 16.6929 11.9361C16.6929 14.1846 14.779 16.0075 12.4182 16.0075C10.0574 16.0075 8.14351 14.1846 8.14351 11.9361Z" fill="black"/>
<path fill-rule="evenodd" clip-rule="evenodd" d="M19.3353 0.451678C14.7757 -0.0336972 10.0625 -0.0336972 5.50298 0.451678C2.85653 0.733382 0.720064 2.71899 0.408931 5.2527C-0.13631 9.69275 -0.13631 14.1783 0.408931 18.6184C0.720064 21.1521 2.85653 23.1377 5.50298 23.4194C10.0625 23.9047 14.7757 23.9047 19.3353 23.4194C21.9817 23.1377 24.1181 21.1521 24.4293 18.6184C24.9745 14.1783 24.9745 9.69275 24.4293 5.2527C24.1181 2.71899 21.9817 0.733382 19.3353 0.451678ZM5.72212 2.31915C10.136 1.8493 14.7022 1.8493 19.116 2.31915C20.8656 2.50538 22.267 3.82029 22.4698 5.47099C22.9972 9.76604 22.9972 14.105 22.4698 18.4001C22.267 20.0508 20.8656 21.3657 19.116 21.552C14.7022 22.0217 10.136 22.0217 5.72212 21.552C3.97264 21.3657 2.57121 20.0508 2.36851 18.4001C1.84107 14.105 1.84107 9.76604 2.36851 5.47099C2.57121 3.82029 3.97264 2.50538 5.72212 2.31915Z" fill="black"/>
<path fill-rule="evenodd" clip-rule="evenodd" d="M51.6562 14.4405C51.7173 14.4602 51.7791 14.4741 51.8407 14.4826C51.908 14.6335 51.9949 14.8284 52.0962 15.0565C52.3436 15.613 52.6769 16.3659 53.0209 17.1511C53.7226 18.7526 54.4303 20.4035 54.5866 20.876C54.7801 21.4602 54.9846 21.8573 55.2079 22.1285C55.3233 22.2687 55.4569 22.3911 55.6131 22.4838C55.6918 22.5305 55.7748 22.5687 55.8616 22.5972C55.8654 22.5986 55.8692 22.5998 55.873 22.601C56.3201 22.762 56.7277 22.6949 56.9828 22.613C57.1194 22.569 57.2298 22.5161 57.3081 22.4732C57.3481 22.4512 57.3818 22.4308 57.4087 22.4135L57.415 22.4095L61.3632 20.0606L65.9236 23.3961C65.9909 23.4453 66.0643 23.4866 66.1421 23.519C66.69 23.747 67.2204 23.8265 67.7196 23.7615C68.2177 23.6966 68.6133 23.497 68.9078 23.2721C69.1961 23.0521 69.3916 22.8055 69.5134 22.6224C69.5756 22.5289 69.6222 22.4461 69.6551 22.3828C69.6717 22.351 69.685 22.3235 69.6951 22.3015L69.7084 22.2725L69.7133 22.261L69.7154 22.2562L69.7164 22.2539L69.7172 22.2518C69.7412 22.1946 69.7595 22.1355 69.7721 22.0751L73.9355 2.05039C73.9488 1.98636 73.9555 1.92121 73.9555 1.85592C73.9555 1.26951 73.7239 0.711905 73.1793 0.373541C72.7139 0.0843412 72.1953 0.0718937 71.8676 0.0956161C71.5141 0.121218 71.1877 0.204472 70.9685 0.270988C70.8545 0.305612 70.7589 0.33901 70.6901 0.364492C70.6554 0.377299 70.6269 0.388294 70.6058 0.396677L70.5899 0.403047L47.2414 9.14106L47.2383 9.14213C47.2235 9.14733 47.2044 9.15412 47.1817 9.16252C47.1365 9.17931 47.0759 9.2029 47.0051 9.23355C46.8671 9.29326 46.6735 9.38642 46.4749 9.51622C46.1575 9.72359 45.4276 10.2915 45.5505 11.2288C45.6485 11.9766 46.1855 12.4358 46.5127 12.6566C46.6923 12.7779 46.863 12.8645 46.9873 12.9211C47.0449 12.9472 47.1646 12.9935 47.2166 13.0138L47.2297 13.0189L51.6562 14.4405ZM71.4071 2.2438L71.4038 2.24516C71.3922 2.24998 71.3805 2.25459 71.3687 2.25902L47.9917 11.0077C47.9795 11.0122 47.9672 11.0166 47.9549 11.0207L47.9419 11.0254C47.9269 11.031 47.9017 11.0407 47.8701 11.0543C47.8522 11.062 47.8335 11.0706 47.8144 11.0796C47.8406 11.0938 47.8657 11.1059 47.888 11.116C47.9094 11.1257 47.9257 11.1324 47.9346 11.1359L52.3248 12.5459C52.4051 12.5717 52.48 12.6059 52.5488 12.6472L67.0448 4.55156L67.0584 4.54391C67.069 4.53795 67.0828 4.5303 67.0994 4.52133C67.1324 4.50354 67.1778 4.47986 67.2317 4.45367C67.3323 4.40483 67.4932 4.33231 67.6746 4.27884C67.8009 4.24162 68.1731 4.13675 68.5756 4.25991C68.824 4.33591 69.0812 4.49931 69.2484 4.77612C69.3315 4.91364 69.3758 5.05179 69.3972 5.17825C69.4542 5.37747 69.4452 5.57419 69.4007 5.74402C69.3046 6.10986 69.0351 6.39523 68.7899 6.6135C68.5799 6.80063 65.8623 9.30059 63.1814 11.7685C61.8443 12.9991 60.521 14.2178 59.5319 15.1286L58.8822 15.727L67.0852 21.7266C67.2732 21.7908 67.3844 21.7876 67.436 21.7808C67.4973 21.7728 67.5474 21.7503 67.5987 21.7113C67.656 21.6675 67.7061 21.6084 67.7436 21.552L67.7451 21.5497L71.7831 2.12806C71.7231 2.1418 71.6625 2.15817 71.6041 2.17589C71.5379 2.19598 71.4834 2.21512 71.4472 2.22848C71.4293 2.23511 71.4165 2.24013 71.4095 2.2429L71.4071 2.2438ZM59.5869 18.7614L57.9504 17.5644L57.5538 19.9709L59.5869 18.7614ZM56.4491 15.1892L58.0765 13.6903C59.0657 12.7794 60.3892 11.5607 61.7263 10.3298L63.0848 9.07949L53.9766 14.1662L54.0254 14.2762C54.2737 14.8347 54.6085 15.5907 54.9543 16.3803C55.2129 16.9705 55.4834 17.5921 55.7297 18.1676L56.1251 15.7681C56.1632 15.5368 56.2817 15.3366 56.4491 15.1892Z" fill="black"/>
<path d="M101.422 5.0049C101.202 4.97424 100.978 5.01637 100.786 5.12427H100.77C100.325 5.37275 99.9252 5.6868 99.5839 6.05475C99.3002 6.36763 99.1463 6.68422 99.1059 6.98895C99.0818 7.17059 99.0981 7.35224 99.1549 7.52573L99.1751 7.53759C99.4945 8.43323 99.9118 9.29475 100.422 10.1059C101.078 11.2454 101.887 12.2992 102.826 13.2414L102.854 13.2799L102.898 13.3111L102.926 13.3421L102.959 13.3689C103.95 14.2679 105.057 15.0426 106.254 15.6739C107.622 16.3842 108.452 16.7201 108.95 16.8595V16.8669C109.096 16.9092 109.229 16.9284 109.363 16.9284C109.788 16.8988 110.189 16.7343 110.505 16.4613C110.889 16.1356 111.214 15.7522 111.468 15.3263V15.3188C111.707 14.8903 111.626 14.4847 111.282 14.2104C110.592 13.6354 109.847 13.1248 109.055 12.6853C108.525 12.411 107.987 12.577 107.768 12.8551L107.303 13.4149C107.064 13.6928 106.63 13.6543 106.63 13.6543L106.618 13.6617C103.384 12.8736 102.522 9.74998 102.522 9.74998C102.522 9.74998 102.481 9.32518 102.78 9.10866L103.363 8.66085C103.642 8.44435 103.837 7.93129 103.537 7.4249C103.08 6.66877 102.546 5.9573 101.943 5.30072C101.811 5.14594 101.626 5.04062 101.42 5.00342L101.422 5.0049Z" fill="black"/>
<path d="M106.888 3.64691C106.561 3.64691 106.295 3.89982 106.295 4.2118C106.295 4.52378 106.561 4.77669 106.888 4.77669C108.385 4.77669 109.629 5.24365 110.612 6.1378C111.118 6.62744 111.512 7.20703 111.771 7.84127C112.031 8.47791 112.149 9.15676 112.118 9.83677C112.104 10.1485 112.358 10.4118 112.685 10.425C113.012 10.4384 113.288 10.1964 113.302 9.88467C113.339 9.04818 113.193 8.21355 112.875 7.43168C112.556 6.64985 112.071 5.9374 111.449 5.33761L111.437 5.32674C110.217 4.21388 108.671 3.64691 106.888 3.64691Z" fill="black"/>
<path d="M106.846 5.50487C106.519 5.50487 106.254 5.75779 106.254 6.06976C106.254 6.38174 106.519 6.63466 106.846 6.63466H106.865C107.946 6.7073 108.732 7.05091 109.283 7.61495C109.848 8.19584 110.14 8.91735 110.118 9.81011C110.111 10.1219 110.37 10.3806 110.697 10.3879C111.024 10.3951 111.295 10.1481 111.302 9.8362C111.331 8.66407 110.936 7.65333 110.151 6.84629L110.15 6.84522C109.349 6.0249 108.25 5.59094 106.925 5.50614L106.906 5.50487H106.846Z" fill="black"/>
<path d="M106.824 7.39673C106.497 7.38033 106.219 7.61959 106.201 7.93114C106.184 8.2427 106.435 8.50855 106.762 8.52496C107.257 8.54985 107.573 8.69171 107.772 8.88314C107.972 9.0754 108.121 9.38325 108.148 9.8659C108.166 10.1775 108.445 10.4164 108.771 10.3996C109.098 10.3829 109.348 10.1168 109.331 9.80523C109.293 9.12735 109.07 8.52803 108.614 8.08816C108.156 7.64748 107.532 7.43226 106.824 7.39673Z" fill="black"/>
<path fill-rule="evenodd" clip-rule="evenodd" d="M100.358 0.690358C104.127 -0.113257 108.035 -0.113257 111.803 0.690358L112.205 0.775973C114.451 1.25499 116.224 2.89862 116.79 5.02699C117.747 8.62292 117.747 12.3899 116.79 15.9857C116.224 18.1141 114.451 19.7577 112.205 20.2368L111.803 20.3224C109.436 20.8272 107.014 21.0149 104.606 20.8855L101.464 23.5675C101.222 23.7734 100.883 23.8378 100.577 23.7356C100.272 23.6334 100.049 23.3806 99.9955 23.0759L99.4758 20.1144C97.4598 19.5168 95.8967 17.9597 95.3716 15.9857C94.415 12.3899 94.415 8.62292 95.3716 5.027C95.9377 2.89862 97.7106 1.25499 99.9569 0.775973L100.358 0.690358ZM111.416 2.34421C107.902 1.59502 104.259 1.59502 100.746 2.34421L100.344 2.42983C98.7518 2.76945 97.4948 3.9348 97.0934 5.44384C96.2096 8.7662 96.2096 12.2465 97.0934 15.5688C97.4948 17.0779 98.7518 18.2433 100.344 18.5829L100.45 18.6055C100.803 18.6807 101.073 18.9524 101.133 19.2926L101.481 21.2787L103.699 19.3859C103.878 19.2331 104.114 19.156 104.354 19.1722C106.714 19.3316 109.093 19.1637 111.416 18.6685L111.817 18.5829C113.41 18.2433 114.667 17.0779 115.068 15.569C115.952 12.2465 115.952 8.7662 115.068 5.44384C114.667 3.9348 113.41 2.76945 111.817 2.42983L111.416 2.34421Z" fill="black"/>
</svg>
